<?xml version="1.0" encoding="UTF-8" standalone="no"?>
<!DOCTYPE svg PUBLIC "-//W3C//DTD SVG 1.1//EN"
 "http://www.w3.org/Graphics/SVG/1.1/DTD/svg11.dtd">
<!-- Generated by graphviz version 14.1.3 (20260303.0454)
 -->
<!-- Pages: 1 -->
<svg width="1896pt" height="2634pt"
 viewBox="0.00 0.00 1896.00 2634.00" xmlns="http://www.w3.org/2000/svg" xmlns:xlink="http://www.w3.org/1999/xlink">
<g id="graph0" class="graph" transform="scale(1 1) rotate(0) translate(4 2629.6)">
<polygon fill="white" stroke="none" points="-4,4 -4,-2629.6 1892.17,-2629.6 1892.17,4 -4,4"/>
<text xml:space="preserve" text-anchor="start" x="778.71" y="-6.7" font-family="Arial" font-size="34.00">Dynamic View: Kairos</text>
<g id="clust1" class="cluster">
<title>cluster_7</title>
<polygon fill="none" stroke="#444444" points="8,-336.2 8,-2345.4 1683,-2345.4 1683,-336.2 8,-336.2"/>
<text xml:space="preserve" text-anchor="start" x="811.38" y="-361.4" font-family="Arial" font-size="24.00" fill="#444444">Kairos</text>
<text xml:space="preserve" text-anchor="start" x="768.62" y="-342.15" font-family="Arial" font-size="19.00" fill="#444444">[Software System]</text>
</g>
<!-- 10 -->
<g id="10" class="node">
<title>10</title>
<polygon fill="#075985" stroke="#043e5d" points="610.17,-2012.2 191.82,-2012.2 191.82,-1806 610.17,-1806 610.17,-2012.2"/>
<text xml:space="preserve" text-anchor="start" x="292.62" y="-1959.3" font-family="Arial" font-size="34.00" fill="#ffffff">Engine facade</text>
<text xml:space="preserve" text-anchor="start" x="220.62" y="-1939.55" font-family="Arial" font-size="19.00" fill="#ffffff">[Container: OCaml / kairos&#45;engine&#45;runtime]</text>
<text xml:space="preserve" text-anchor="start" x="285.88" y="-1901.8" font-family="Arial" font-size="24.00" fill="#ffffff">Stable in&#45;process API</text>
<text xml:space="preserve" text-anchor="start" x="329" y="-1877.8" font-family="Arial" font-size="24.00" fill="#ffffff">distributed by</text>
<text xml:space="preserve" text-anchor="start" x="230.38" y="-1853.8" font-family="Arial" font-size="24.00" fill="#ffffff">kairos&#45;engine&#45;runtime and used</text>
<text xml:space="preserve" text-anchor="start" x="243.5" y="-1829.8" font-family="Arial" font-size="24.00" fill="#ffffff">by optional delivery adapters.</text>
</g>
<!-- 12 -->
<g id="12" class="node">
<title>12</title>
<polygon fill="#075985" stroke="#043e5d" points="595.17,-1680 206.82,-1680 206.82,-1473.8 595.17,-1473.8 595.17,-1680"/>
<text xml:space="preserve" text-anchor="start" x="235.62" y="-1627.1" font-family="Arial" font-size="34.00" fill="#ffffff">Application use&#45;cases</text>
<text xml:space="preserve" text-anchor="start" x="320" y="-1607.35" font-family="Arial" font-size="19.00" fill="#ffffff">[Container: OCaml]</text>
<text xml:space="preserve" text-anchor="start" x="267.12" y="-1569.6" font-family="Arial" font-size="24.00" fill="#ffffff">Ports and use&#45;cases that</text>
<text xml:space="preserve" text-anchor="start" x="276.12" y="-1545.6" font-family="Arial" font-size="24.00" fill="#ffffff">define verification flows</text>
<text xml:space="preserve" text-anchor="start" x="248" y="-1521.6" font-family="Arial" font-size="24.00" fill="#ffffff">independently from concrete</text>
<text xml:space="preserve" text-anchor="start" x="350.38" y="-1497.6" font-family="Arial" font-size="24.00" fill="#ffffff">adapters.</text>
</g>
<!-- 10&#45;&gt;12 -->
<g id="37" class="edge">
<title>10&#45;&gt;12</title>
<path fill="none" stroke="#444444" stroke-dasharray="5,2" d="M401,-1805.88C401,-1769.75 401,-1728.9 401,-1691.85"/>
<polygon fill="#444444" stroke="#444444" points="404.5,-1692 401,-1682 397.5,-1692 404.5,-1692"/>
<text xml:space="preserve" text-anchor="start" x="401" y="-1748.25" font-family="Arial" font-size="24.00" fill="#444444">3. invokes verification</text>
<text xml:space="preserve" text-anchor="start" x="467.38" y="-1721.25" font-family="Arial" font-size="24.00" fill="#444444">use&#45;case</text>
</g>
<!-- 11 -->
<g id="11" class="node">
<title>11</title>
<polygon fill="#7c3aed" stroke="#5628a5" points="490.93,-1335.8 125.07,-1335.8 125.07,-1153.6 490.93,-1153.6 490.93,-1335.8"/>
<text xml:space="preserve" text-anchor="start" x="192.88" y="-1282.9" font-family="Arial" font-size="34.00" fill="#ffffff">Kairos frontend</text>
<text xml:space="preserve" text-anchor="start" x="227" y="-1263.15" font-family="Arial" font-size="19.00" fill="#ffffff">[Container: OCaml]</text>
<text xml:space="preserve" text-anchor="start" x="153.88" y="-1225.4" font-family="Arial" font-size="24.00" fill="#ffffff">Parses the surface language</text>
<text xml:space="preserve" text-anchor="start" x="157.62" y="-1201.4" font-family="Arial" font-size="24.00" fill="#ffffff">and elaborates it to the core</text>
<text xml:space="preserve" text-anchor="start" x="210.5" y="-1177.4" font-family="Arial" font-size="24.00" fill="#ffffff">verification model.</text>
</g>
<!-- 13 -->
<g id="13" class="node">
<title>13</title>
<polygon fill="#166534" stroke="#0f4624" points="383.43,-974.6 32.57,-974.6 32.57,-792.4 383.43,-792.4 383.43,-974.6"/>
<text xml:space="preserve" text-anchor="start" x="111.62" y="-921.7" font-family="Arial" font-size="34.00" fill="#ffffff">Domain core</text>
<text xml:space="preserve" text-anchor="start" x="127" y="-901.95" font-family="Arial" font-size="19.00" fill="#ffffff">[Container: OCaml]</text>
<text xml:space="preserve" text-anchor="start" x="79" y="-864.2" font-family="Arial" font-size="24.00" fill="#ffffff">Core syntax, verification</text>
<text xml:space="preserve" text-anchor="start" x="61.75" y="-840.2" font-family="Arial" font-size="24.00" fill="#ffffff">model, shared IR, temporal</text>
<text xml:space="preserve" text-anchor="start" x="61.38" y="-816.2" font-family="Arial" font-size="24.00" fill="#ffffff">layout, and formula utilities.</text>
</g>
<!-- 11&#45;&gt;13 -->
<g id="42" class="edge">
<title>11&#45;&gt;13</title>
<path fill="none" stroke="#444444" stroke-dasharray="5,2" d="M282.89,-1153.52C268.72,-1102.59 250.95,-1038.78 236.28,-986.09"/>
<polygon fill="#444444" stroke="#444444" points="239.66,-985.18 233.61,-976.48 232.92,-987.06 239.66,-985.18"/>
<text xml:space="preserve" text-anchor="start" x="266.96" y="-1070.35" font-family="Arial" font-size="24.00" fill="#444444">5. produces core model</text>
</g>
<!-- 12&#45;&gt;11 -->
<g id="40" class="edge">
<title>12&#45;&gt;11</title>
<path fill="none" stroke="#444444" stroke-dasharray="5,2" d="M372.21,-1473.68C360.87,-1433.43 347.89,-1387.32 336.57,-1347.14"/>
<polygon fill="#444444" stroke="#444444" points="339.99,-1346.38 333.91,-1337.71 333.26,-1348.28 339.99,-1346.38"/>
<text xml:space="preserve" text-anchor="start" x="360.07" y="-1402.55" font-family="Arial" font-size="24.00" fill="#444444">4. parses and elaborates</text>
</g>
<!-- 22 -->
<g id="22" class="node">
<title>22</title>
<polygon fill="#b45309" stroke="#7d3a06" points="1133.17,-1347.8 714.83,-1347.8 714.83,-1141.6 1133.17,-1141.6 1133.17,-1347.8"/>
<text xml:space="preserve" text-anchor="start" x="757.5" y="-1294.9" font-family="Arial" font-size="34.00" fill="#ffffff">Runtime orchestration</text>
<text xml:space="preserve" text-anchor="start" x="743.62" y="-1275.15" font-family="Arial" font-size="19.00" fill="#ffffff">[Container: OCaml / kairos&#45;engine&#45;runtime]</text>
<text xml:space="preserve" text-anchor="start" x="748.5" y="-1237.4" font-family="Arial" font-size="24.00" fill="#ffffff">Coordinates prepared programs,</text>
<text xml:space="preserve" text-anchor="start" x="759.75" y="-1213.4" font-family="Arial" font-size="24.00" fill="#ffffff">supplied automata, snapshots,</text>
<text xml:space="preserve" text-anchor="start" x="771" y="-1189.4" font-family="Arial" font-size="24.00" fill="#ffffff">outputs, and proof execution</text>
<text xml:space="preserve" text-anchor="start" x="768.38" y="-1165.4" font-family="Arial" font-size="24.00" fill="#ffffff">inside kairos&#45;engine&#45;runtime.</text>
</g>
<!-- 12&#45;&gt;22 -->
<g id="41" class="edge">
<title>12&#45;&gt;22</title>
<path fill="none" stroke="#444444" stroke-dasharray="5,2" d="M586.2,-1473.35C606.2,-1461.61 626.12,-1449.61 645,-1437.8 686.51,-1411.83 730.54,-1382.43 771.05,-1354.58"/>
<polygon fill="#444444" stroke="#444444" points="772.95,-1357.52 779.2,-1348.96 768.98,-1351.76 772.95,-1357.52"/>
<text xml:space="preserve" text-anchor="start" x="723.03" y="-1416.05" font-family="Arial" font-size="24.00" fill="#444444">6. requests snapshot and</text>
<text xml:space="preserve" text-anchor="start" x="794.28" y="-1389.05" font-family="Arial" font-size="24.00" fill="#444444">proof output</text>
</g>
<!-- 14 -->
<g id="14" class="node">
<title>14</title>
<polygon fill="#166534" stroke="#0f4624" points="814.92,-1015.6 455.07,-1015.6 455.07,-751.4 814.92,-751.4 814.92,-1015.6"/>
<text xml:space="preserve" text-anchor="start" x="556.62" y="-962.7" font-family="Arial" font-size="34.00" fill="#ffffff">Reference</text>
<text xml:space="preserve" text-anchor="start" x="502.62" y="-928.7" font-family="Arial" font-size="34.00" fill="#ffffff">verification kernel</text>
<text xml:space="preserve" text-anchor="start" x="554" y="-908.95" font-family="Arial" font-size="19.00" fill="#ffffff">[Container: OCaml]</text>
<text xml:space="preserve" text-anchor="start" x="483.88" y="-871.2" font-family="Arial" font-size="24.00" fill="#ffffff">Validates supplied automata</text>
<text xml:space="preserve" text-anchor="start" x="504.88" y="-847.2" font-family="Arial" font-size="24.00" fill="#ffffff">normal form, then builds</text>
<text xml:space="preserve" text-anchor="start" x="508.25" y="-823.2" font-family="Arial" font-size="24.00" fill="#ffffff">product summaries and</text>
<text xml:space="preserve" text-anchor="start" x="491.38" y="-799.2" font-family="Arial" font-size="24.00" fill="#ffffff">reference proof obligations</text>
<text xml:space="preserve" text-anchor="start" x="523.62" y="-775.2" font-family="Arial" font-size="24.00" fill="#ffffff">from the core model.</text>
</g>
<!-- 22&#45;&gt;14 -->
<g id="44" class="edge">
<title>22&#45;&gt;14</title>
<path fill="none" stroke="#444444" stroke-dasharray="5,2" d="M802.45,-1141.47C790.83,-1129.83 779.62,-1117.77 769.5,-1105.6 749.13,-1081.11 729.73,-1053.24 712.32,-1025.72"/>
<polygon fill="#444444" stroke="#444444" points="715.32,-1023.91 707.05,-1017.29 709.38,-1027.63 715.32,-1023.91"/>
<text xml:space="preserve" text-anchor="start" x="769.5" y="-1083.85" font-family="Arial" font-size="24.00" fill="#444444">9. builds reference</text>
<text xml:space="preserve" text-anchor="start" x="789.75" y="-1056.85" font-family="Arial" font-size="24.00" fill="#444444">product and IR</text>
</g>
<!-- 28 -->
<g id="28" class="node">
<title>28</title>
<polygon fill="#be123c" stroke="#850c2a" points="1266.67,-986.6 887.33,-986.6 887.33,-780.4 1266.67,-780.4 1266.67,-986.6"/>
<text xml:space="preserve" text-anchor="start" x="964.5" y="-933.7" font-family="Arial" font-size="34.00" fill="#ffffff">Why3 backend</text>
<text xml:space="preserve" text-anchor="start" x="963.75" y="-913.95" font-family="Arial" font-size="19.00" fill="#ffffff">[Container: OCaml / Why3]</text>
<text xml:space="preserve" text-anchor="start" x="927.75" y="-876.2" font-family="Arial" font-size="24.00" fill="#ffffff">Projects proof obligations to</text>
<text xml:space="preserve" text-anchor="start" x="916.12" y="-852.2" font-family="Arial" font-size="24.00" fill="#ffffff">Why3, performs backend&#45;only</text>
<text xml:space="preserve" text-anchor="start" x="928.12" y="-828.2" font-family="Arial" font-size="24.00" fill="#ffffff">representation choices, and</text>
<text xml:space="preserve" text-anchor="start" x="970.88" y="-804.2" font-family="Arial" font-size="24.00" fill="#ffffff">calls proof services.</text>
</g>
<!-- 22&#45;&gt;28 -->
<g id="47" class="edge">
<title>22&#45;&gt;28</title>
<path fill="none" stroke="#444444" stroke-dasharray="5,2" d="M967.64,-1141.25C986.77,-1096.33 1009.29,-1043.46 1028.91,-997.41"/>
<polygon fill="#444444" stroke="#444444" points="1032.01,-999.05 1032.71,-988.48 1025.57,-996.31 1032.01,-999.05"/>
<text xml:space="preserve" text-anchor="start" x="1005.09" y="-1083.85" font-family="Arial" font-size="24.00" fill="#444444">10. projects proof</text>
<text xml:space="preserve" text-anchor="start" x="1041.09" y="-1056.85" font-family="Arial" font-size="24.00" fill="#444444">obligations</text>
</g>
<!-- 31 -->
<g id="31" class="node">
<title>31</title>
<polygon fill="#6b7280" stroke="#4a4f59" points="1474.42,-652.4 1099.58,-652.4 1099.58,-436.2 1474.42,-436.2 1474.42,-652.4"/>
<text xml:space="preserve" text-anchor="start" x="1192.5" y="-599.5" font-family="Arial" font-size="34.00" fill="#ffffff">External tool</text>
<text xml:space="preserve" text-anchor="start" x="1221" y="-565.5" font-family="Arial" font-size="34.00" fill="#ffffff">adapters</text>
<text xml:space="preserve" text-anchor="start" x="1206" y="-545.75" font-family="Arial" font-size="19.00" fill="#ffffff">[Container: OCaml]</text>
<text xml:space="preserve" text-anchor="start" x="1128.38" y="-508" font-family="Arial" font-size="24.00" fill="#ffffff">Adapter layer for Spot, Why3,</text>
<text xml:space="preserve" text-anchor="start" x="1155" y="-484" font-family="Arial" font-size="24.00" fill="#ffffff">Z3, Graphviz, and timing</text>
<text xml:space="preserve" text-anchor="start" x="1239.38" y="-460" font-family="Arial" font-size="24.00" fill="#ffffff">services.</text>
</g>
<!-- 22&#45;&gt;31 -->
<g id="48" class="edge">
<title>22&#45;&gt;31</title>
<path fill="none" stroke="#444444" stroke-dasharray="5,2" d="M1133.46,-1162.73C1198.17,-1127.32 1262.91,-1079.06 1303,-1015.6 1384.43,-886.71 1457.83,-831.78 1406,-688.4 1402.8,-679.55 1398.79,-670.87 1394.2,-662.43"/>
<polygon fill="#444444" stroke="#444444" points="1397.33,-660.85 1389.31,-653.94 1391.27,-664.35 1397.33,-660.85"/>
<text xml:space="preserve" text-anchor="start" x="1434.94" y="-902.25" font-family="Arial" font-size="24.00" fill="#444444">7. produces supplied</text>
<text xml:space="preserve" text-anchor="start" x="1423.31" y="-875.25" font-family="Arial" font-size="24.00" fill="#444444">automata through Spot</text>
<text xml:space="preserve" text-anchor="start" x="1505.44" y="-848.25" font-family="Arial" font-size="24.00" fill="#444444">adapter</text>
</g>
<!-- 28&#45;&gt;31 -->
<g id="54" class="edge">
<title>28&#45;&gt;31</title>
<path fill="none" stroke="#444444" stroke-dasharray="5,2" d="M1106.61,-780.09C1117.77,-749.37 1132.12,-716.42 1149.75,-688.4 1155.4,-679.43 1161.67,-670.54 1168.34,-661.85"/>
<polygon fill="#444444" stroke="#444444" points="1171.04,-664.08 1174.49,-654.06 1165.54,-659.74 1171.04,-664.08"/>
<text xml:space="preserve" text-anchor="start" x="1149.75" y="-693.65" font-family="Arial" font-size="24.00" fill="#444444">11. calls Why3/provers</text>
</g>
<!-- 3 -->
<g id="3" class="node">
<title>3</title>
<polygon fill="#374151" stroke="#262d38" points="1037.3,-238.2 682.7,-238.2 682.7,-56 1037.3,-56 1037.3,-238.2"/>
<text xml:space="preserve" text-anchor="start" x="825.12" y="-185.3" font-family="Arial" font-size="34.00" fill="#ffffff">Spot</text>
<text xml:space="preserve" text-anchor="start" x="783.12" y="-165.55" font-family="Arial" font-size="19.00" fill="#ffffff">[Software System]</text>
<text xml:space="preserve" text-anchor="start" x="749.75" y="-127.8" font-family="Arial" font-size="24.00" fill="#ffffff">External tool used to</text>
<text xml:space="preserve" text-anchor="start" x="711.5" y="-103.8" font-family="Arial" font-size="24.00" fill="#ffffff">construct temporal&#45;property</text>
<text xml:space="preserve" text-anchor="start" x="806" y="-79.8" font-family="Arial" font-size="24.00" fill="#ffffff">automata.</text>
</g>
<!-- 31&#45;&gt;3 -->
<g id="58" class="edge">
<title>31&#45;&gt;3</title>
<path fill="none" stroke="#444444" stroke-dasharray="5,2" d="M1170.88,-435.83C1106.95,-376.66 1028.19,-303.77 965.94,-246.15"/>
<polygon fill="#444444" stroke="#444444" points="968.49,-243.74 958.77,-239.52 963.74,-248.88 968.49,-243.74"/>
<text xml:space="preserve" text-anchor="start" x="1047.93" y="-306.45" font-family="Arial" font-size="24.00" fill="#444444">8. builds property</text>
<text xml:space="preserve" text-anchor="start" x="1090.31" y="-279.45" font-family="Arial" font-size="24.00" fill="#444444">automata</text>
</g>
<!-- 4 -->
<g id="4" class="node">
<title>4</title>
<polygon fill="#374151" stroke="#262d38" points="1464.3,-226.2 1109.7,-226.2 1109.7,-68 1464.3,-68 1464.3,-226.2"/>
<text xml:space="preserve" text-anchor="start" x="1243.5" y="-173.3" font-family="Arial" font-size="34.00" fill="#ffffff">Why3</text>
<text xml:space="preserve" text-anchor="start" x="1210.12" y="-153.55" font-family="Arial" font-size="19.00" fill="#ffffff">[Software System]</text>
<text xml:space="preserve" text-anchor="start" x="1138.5" y="-115.8" font-family="Arial" font-size="24.00" fill="#ffffff">External VC generation and</text>
<text xml:space="preserve" text-anchor="start" x="1155.38" y="-91.8" font-family="Arial" font-size="24.00" fill="#ffffff">proof&#45;task infrastructure.</text>
</g>
<!-- 31&#45;&gt;4 -->
<g id="60" class="edge">
<title>31&#45;&gt;4</title>
<path fill="none" stroke="#444444" stroke-dasharray="5,2" d="M1287,-435.83C1287,-373.8 1287,-296.68 1287,-237.9"/>
<polygon fill="#444444" stroke="#444444" points="1290.5,-237.91 1287,-227.91 1283.5,-237.91 1290.5,-237.91"/>
<text xml:space="preserve" text-anchor="start" x="1287" y="-292.95" font-family="Arial" font-size="24.00" fill="#444444">12. submits proof tasks</text>
</g>
<!-- 5 -->
<g id="5" class="node">
<title>5</title>
<polygon fill="#374151" stroke="#262d38" points="1888.17,-238.2 1535.83,-238.2 1535.83,-56 1888.17,-56 1888.17,-238.2"/>
<text xml:space="preserve" text-anchor="start" x="1692.12" y="-185.3" font-family="Arial" font-size="34.00" fill="#ffffff">Z3</text>
<text xml:space="preserve" text-anchor="start" x="1635.12" y="-165.55" font-family="Arial" font-size="19.00" fill="#ffffff">[Software System]</text>
<text xml:space="preserve" text-anchor="start" x="1574" y="-127.8" font-family="Arial" font-size="24.00" fill="#ffffff">External SMT solver used</text>
<text xml:space="preserve" text-anchor="start" x="1564.62" y="-103.8" font-family="Arial" font-size="24.00" fill="#ffffff">through Why3 and selected</text>
<text xml:space="preserve" text-anchor="start" x="1599.5" y="-79.8" font-family="Arial" font-size="24.00" fill="#ffffff">internal experiments.</text>
</g>
<!-- 31&#45;&gt;5 -->
<g id="62" class="edge">
<title>31&#45;&gt;5</title>
<path fill="none" stroke="#444444" stroke-dasharray="5,2" d="M1429.77,-435.76C1471.1,-402.66 1515.44,-365.18 1554,-328.2 1580.26,-303.02 1607.01,-274.03 1630.86,-246.77"/>
<polygon fill="#444444" stroke="#444444" points="1633.25,-249.35 1637.17,-239.51 1627.97,-244.76 1633.25,-249.35"/>
<text xml:space="preserve" text-anchor="start" x="1604.44" y="-306.45" font-family="Arial" font-size="24.00" fill="#444444">13. uses SMT solver</text>
<text xml:space="preserve" text-anchor="start" x="1610.44" y="-279.45" font-family="Arial" font-size="24.00" fill="#444444">through proof stack</text>
</g>
<!-- 8 -->
<g id="8" class="node">
<title>8</title>
<polygon fill="#7c3aed" stroke="#5628a5" points="600.8,-2320.4 201.2,-2320.4 201.2,-2138.2 600.8,-2138.2 600.8,-2320.4"/>
<text xml:space="preserve" text-anchor="start" x="374.38" y="-2267.5" font-family="Arial" font-size="34.00" fill="#ffffff">CLI</text>
<text xml:space="preserve" text-anchor="start" x="274.25" y="-2247.75" font-family="Arial" font-size="19.00" fill="#ffffff">[Container: OCaml / Cmdliner]</text>
<text xml:space="preserve" text-anchor="start" x="244.62" y="-2210" font-family="Arial" font-size="24.00" fill="#ffffff">Command&#45;line entry point for</text>
<text xml:space="preserve" text-anchor="start" x="230" y="-2186" font-family="Arial" font-size="24.00" fill="#ffffff">checking, dumping, and proving</text>
<text xml:space="preserve" text-anchor="start" x="308.75" y="-2162" font-family="Arial" font-size="24.00" fill="#ffffff">Kairos programs.</text>
</g>
<!-- 8&#45;&gt;10 -->
<g id="35" class="edge">
<title>8&#45;&gt;10</title>
<path fill="none" stroke="#444444" stroke-dasharray="5,2" d="M401,-2137.97C401,-2102.5 401,-2061.39 401,-2023.93"/>
<polygon fill="#444444" stroke="#444444" points="404.5,-2023.94 401,-2013.94 397.5,-2023.94 404.5,-2023.94"/>
<text xml:space="preserve" text-anchor="start" x="401" y="-2080.45" font-family="Arial" font-size="24.00" fill="#444444">2. invokes public engine</text>
<text xml:space="preserve" text-anchor="start" x="493.62" y="-2053.45" font-family="Arial" font-size="24.00" fill="#444444">facade</text>
</g>
<!-- 1 -->
<g id="1" class="node">
<title>1</title>
<polygon fill="#164e63" stroke="#0f3645" points="602.67,-2625.6 199.32,-2625.6 199.32,-2419.4 602.67,-2419.4 602.67,-2625.6"/>
<text xml:space="preserve" text-anchor="start" x="273.88" y="-2572.7" font-family="Arial" font-size="34.00" fill="#ffffff">Kairos developer</text>
<text xml:space="preserve" text-anchor="start" x="365.75" y="-2552.95" font-family="Arial" font-size="19.00" fill="#ffffff">[Person]</text>
<text xml:space="preserve" text-anchor="start" x="228.12" y="-2515.2" font-family="Arial" font-size="24.00" fill="#ffffff">Develops Kairos programs, runs</text>
<text xml:space="preserve" text-anchor="start" x="267.12" y="-2491.2" font-family="Arial" font-size="24.00" fill="#ffffff">proofs, inspects artifacts,</text>
<text xml:space="preserve" text-anchor="start" x="293.38" y="-2467.2" font-family="Arial" font-size="24.00" fill="#ffffff">and keeps the Rocq</text>
<text xml:space="preserve" text-anchor="start" x="286.62" y="-2443.2" font-family="Arial" font-size="24.00" fill="#ffffff">formalization aligned.</text>
</g>
<!-- 1&#45;&gt;8 -->
<g id="32" class="edge">
<title>1&#45;&gt;8</title>
<path fill="none" stroke="#444444" stroke-dasharray="5,2" d="M401,-2419.24C401,-2391.01 401,-2360.39 401,-2332.18"/>
<polygon fill="#444444" stroke="#444444" points="404.5,-2332.18 401,-2322.18 397.5,-2332.18 404.5,-2332.18"/>
<text xml:space="preserve" text-anchor="start" x="401" y="-2361.65" font-family="Arial" font-size="24.00" fill="#444444">1. runs &#45;&#45;prove</text>
</g>
</g>
</svg>
