<?xml version="1.0" encoding="UTF-8" standalone="no"?>
<!DOCTYPE svg PUBLIC "-//W3C//DTD SVG 1.1//EN"
 "http://www.w3.org/Graphics/SVG/1.1/DTD/svg11.dtd">
<!-- Generated by graphviz version 14.1.3 (20260303.0454)
 -->
<!-- Pages: 1 -->
<svg width="2179pt" height="1732pt"
 viewBox="0.00 0.00 2179.00 1732.00" xmlns="http://www.w3.org/2000/svg" xmlns:xlink="http://www.w3.org/1999/xlink">
<g id="graph0" class="graph" transform="scale(1 1) rotate(0) translate(4 1728)">
<polygon fill="white" stroke="none" points="-4,4 -4,-1728 2174.68,-1728 2174.68,4 -4,4"/>
<text xml:space="preserve" text-anchor="start" x="919.96" y="-6.7" font-family="Arial" font-size="34.00">Dynamic View: Kairos</text>
<g id="clust1" class="cluster">
<title>cluster_7</title>
<polygon fill="none" stroke="#444444" points="8,-336.2 8,-1416.8 1774,-1416.8 1774,-336.2 8,-336.2"/>
<text xml:space="preserve" text-anchor="start" x="856.88" y="-361.4" font-family="Arial" font-size="24.00" fill="#444444">Kairos</text>
<text xml:space="preserve" text-anchor="start" x="814.12" y="-342.15" font-family="Arial" font-size="19.00" fill="#444444">[Software System]</text>
</g>
<!-- 10 -->
<g id="10" class="node">
<title>10</title>
<polygon fill="#b45309" stroke="#7d3a06" points="1298.17,-1083.6 879.83,-1083.6 879.83,-829.4 1298.17,-829.4 1298.17,-1083.6"/>
<text xml:space="preserve" text-anchor="start" x="964.5" y="-1030.7" font-family="Arial" font-size="34.00" fill="#ffffff">Concrete engine</text>
<text xml:space="preserve" text-anchor="start" x="908.62" y="-1010.95" font-family="Arial" font-size="19.00" fill="#ffffff">[Container: OCaml / kairos&#45;engine&#45;runtime]</text>
<text xml:space="preserve" text-anchor="start" x="951.75" y="-973.2" font-family="Arial" font-size="24.00" fill="#ffffff">Public Kairos_engine.Api,</text>
<text xml:space="preserve" text-anchor="start" x="926.62" y="-949.2" font-family="Arial" font-size="24.00" fill="#ffffff">private Engine_flow, canonical</text>
<text xml:space="preserve" text-anchor="start" x="960.75" y="-925.2" font-family="Arial" font-size="24.00" fill="#ffffff">Pipeline_types contract,</text>
<text xml:space="preserve" text-anchor="start" x="928.12" y="-901.2" font-family="Arial" font-size="24.00" fill="#ffffff">focused runtime services, and</text>
<text xml:space="preserve" text-anchor="start" x="973.5" y="-877.2" font-family="Arial" font-size="24.00" fill="#ffffff">Kairos&#45;specific output</text>
<text xml:space="preserve" text-anchor="start" x="1019.62" y="-853.2" font-family="Arial" font-size="24.00" fill="#ffffff">coordination.</text>
</g>
<!-- 19 -->
<g id="19" class="node">
<title>19</title>
<polygon fill="#7c3aed" stroke="#5628a5" points="398.93,-647.4 33.07,-647.4 33.07,-465.2 398.93,-465.2 398.93,-647.4"/>
<text xml:space="preserve" text-anchor="start" x="100.88" y="-594.5" font-family="Arial" font-size="34.00" fill="#ffffff">Kairos frontend</text>
<text xml:space="preserve" text-anchor="start" x="135" y="-574.75" font-family="Arial" font-size="19.00" fill="#ffffff">[Container: OCaml]</text>
<text xml:space="preserve" text-anchor="start" x="61.88" y="-537" font-family="Arial" font-size="24.00" fill="#ffffff">Parses the surface language</text>
<text xml:space="preserve" text-anchor="start" x="65.62" y="-513" font-family="Arial" font-size="24.00" fill="#ffffff">and elaborates it to the core</text>
<text xml:space="preserve" text-anchor="start" x="118.5" y="-489" font-family="Arial" font-size="24.00" fill="#ffffff">verification model.</text>
</g>
<!-- 10&#45;&gt;19 -->
<g id="36" class="edge">
<title>10&#45;&gt;19</title>
<path fill="none" stroke="#444444" stroke-dasharray="5,2" d="M879.52,-919.35C764.62,-894.19 622.14,-854.07 505,-793.4 435.51,-757.41 367.26,-702.82 314.54,-655.2"/>
<polygon fill="#444444" stroke="#444444" points="317.09,-652.78 307.34,-648.64 312.38,-657.96 317.09,-652.78"/>
<text xml:space="preserve" text-anchor="start" x="505" y="-758.15" font-family="Arial" font-size="24.00" fill="#444444">3. parses and elaborates</text>
<text xml:space="preserve" text-anchor="start" x="528.25" y="-731.15" font-family="Arial" font-size="24.00" fill="#444444">through Engine_flow</text>
</g>
<!-- 21 -->
<g id="21" class="node">
<title>21</title>
<polygon fill="#166534" stroke="#0f4624" points="838.67,-671.4 471.32,-671.4 471.32,-441.2 838.67,-441.2 838.67,-671.4"/>
<text xml:space="preserve" text-anchor="start" x="511.38" y="-618.5" font-family="Arial" font-size="34.00" fill="#ffffff">Verification domain</text>
<text xml:space="preserve" text-anchor="start" x="574" y="-598.75" font-family="Arial" font-size="19.00" fill="#ffffff">[Container: OCaml]</text>
<text xml:space="preserve" text-anchor="start" x="500.12" y="-561" font-family="Arial" font-size="24.00" fill="#ffffff">Builds the reference product,</text>
<text xml:space="preserve" text-anchor="start" x="537.25" y="-537" font-family="Arial" font-size="24.00" fill="#ffffff">summaries and active</text>
<text xml:space="preserve" text-anchor="start" x="533.88" y="-513" font-family="Arial" font-size="24.00" fill="#ffffff">contracts, then applies</text>
<text xml:space="preserve" text-anchor="start" x="511.38" y="-489" font-family="Arial" font-size="24.00" fill="#ffffff">obligation&#45;preserving proof</text>
<text xml:space="preserve" text-anchor="start" x="605.88" y="-465" font-family="Arial" font-size="24.00" fill="#ffffff">planning.</text>
</g>
<!-- 10&#45;&gt;21 -->
<g id="39" class="edge">
<title>10&#45;&gt;21</title>
<path fill="none" stroke="#444444" stroke-dasharray="5,2" d="M913.06,-828.92C898.73,-817.24 884.69,-805.32 871.5,-793.4 833.03,-758.66 793.88,-717.92 759.64,-680.15"/>
<polygon fill="#444444" stroke="#444444" points="762.27,-677.84 752.97,-672.76 757.07,-682.53 762.27,-677.84"/>
<text xml:space="preserve" text-anchor="start" x="871.5" y="-758.15" font-family="Arial" font-size="24.00" fill="#444444">6. builds reference</text>
<text xml:space="preserve" text-anchor="start" x="930.75" y="-731.15" font-family="Arial" font-size="24.00" fill="#444444">product</text>
</g>
<!-- 29 -->
<g id="29" class="node">
<title>29</title>
<polygon fill="#be123c" stroke="#850c2a" points="1267.05,-647.4 910.95,-647.4 910.95,-465.2 1267.05,-465.2 1267.05,-647.4"/>
<text xml:space="preserve" text-anchor="start" x="958.5" y="-594.5" font-family="Arial" font-size="34.00" fill="#ffffff">Artifact renderers</text>
<text xml:space="preserve" text-anchor="start" x="946.88" y="-574.75" font-family="Arial" font-size="19.00" fill="#ffffff">[Container: OCaml / DOT / JSON]</text>
<text xml:space="preserve" text-anchor="start" x="939.75" y="-537" font-family="Arial" font-size="24.00" fill="#ffffff">Renders graphs, text views,</text>
<text xml:space="preserve" text-anchor="start" x="940.88" y="-513" font-family="Arial" font-size="24.00" fill="#ffffff">cost reports, and diagnostic</text>
<text xml:space="preserve" text-anchor="start" x="1043.25" y="-489" font-family="Arial" font-size="24.00" fill="#ffffff">artifacts.</text>
</g>
<!-- 10&#45;&gt;29 -->
<g id="40" class="edge">
<title>10&#45;&gt;29</title>
<path fill="none" stroke="#444444" stroke-dasharray="5,2" d="M1089,-828.96C1089,-774.12 1089,-710.76 1089,-659.04"/>
<polygon fill="#444444" stroke="#444444" points="1092.5,-659.36 1089,-649.36 1085.5,-659.36 1092.5,-659.36"/>
<text xml:space="preserve" text-anchor="start" x="1089" y="-758.15" font-family="Arial" font-size="24.00" fill="#444444">7. renders text/graph</text>
<text xml:space="preserve" text-anchor="start" x="1161.38" y="-731.15" font-family="Arial" font-size="24.00" fill="#444444">outputs</text>
</g>
<!-- 30 -->
<g id="30" class="node">
<title>30</title>
<polygon fill="#6b7280" stroke="#4a4f59" points="1749.05,-676.4 1338.95,-676.4 1338.95,-436.2 1749.05,-436.2 1749.05,-676.4"/>
<text xml:space="preserve" text-anchor="start" x="1449.5" y="-623.5" font-family="Arial" font-size="34.00" fill="#ffffff">External tool</text>
<text xml:space="preserve" text-anchor="start" x="1478" y="-589.5" font-family="Arial" font-size="34.00" fill="#ffffff">adapters</text>
<text xml:space="preserve" text-anchor="start" x="1463" y="-569.75" font-family="Arial" font-size="19.00" fill="#ffffff">[Container: OCaml]</text>
<text xml:space="preserve" text-anchor="start" x="1367.75" y="-532" font-family="Arial" font-size="24.00" fill="#ffffff">Narrow Automata_exchange and</text>
<text xml:space="preserve" text-anchor="start" x="1412.75" y="-508" font-family="Arial" font-size="24.00" fill="#ffffff">Proof_backend_contract</text>
<text xml:space="preserve" text-anchor="start" x="1376.38" y="-484" font-family="Arial" font-size="24.00" fill="#ffffff">boundaries for Spot, Why3, Z3,</text>
<text xml:space="preserve" text-anchor="start" x="1437.12" y="-460" font-family="Arial" font-size="24.00" fill="#ffffff">and timing services.</text>
</g>
<!-- 10&#45;&gt;30 -->
<g id="42" class="edge">
<title>10&#45;&gt;30</title>
<path fill="none" stroke="#444444" stroke-dasharray="5,2" d="M1286.87,-828.99C1302.15,-817.41 1317.04,-805.48 1331,-793.4 1368.64,-760.82 1406.19,-721.89 1439.05,-685.14"/>
<polygon fill="#444444" stroke="#444444" points="1441.39,-687.77 1445.42,-677.97 1436.16,-683.12 1441.39,-687.77"/>
<text xml:space="preserve" text-anchor="start" x="1423.97" y="-771.65" font-family="Arial" font-size="24.00" fill="#444444">4. produces supplied</text>
<text xml:space="preserve" text-anchor="start" x="1412.35" y="-744.65" font-family="Arial" font-size="24.00" fill="#444444">automata through Spot</text>
<text xml:space="preserve" text-anchor="start" x="1494.47" y="-717.65" font-family="Arial" font-size="24.00" fill="#444444">adapter</text>
</g>
<!-- 6 -->
<g id="6" class="node">
<title>6</title>
<polygon fill="#374151" stroke="#262d38" points="2170.68,-635.4 1821.33,-635.4 1821.33,-477.2 2170.68,-477.2 2170.68,-635.4"/>
<text xml:space="preserve" text-anchor="start" x="1928.12" y="-582.5" font-family="Arial" font-size="34.00" fill="#ffffff">Graphviz</text>
<text xml:space="preserve" text-anchor="start" x="1919.12" y="-562.75" font-family="Arial" font-size="19.00" fill="#ffffff">[Software System]</text>
<text xml:space="preserve" text-anchor="start" x="1850.12" y="-525" font-family="Arial" font-size="24.00" fill="#ffffff">External renderer for graph</text>
<text xml:space="preserve" text-anchor="start" x="1950.25" y="-501" font-family="Arial" font-size="24.00" fill="#ffffff">artifacts.</text>
</g>
<!-- 10&#45;&gt;6 -->
<g id="43" class="edge">
<title>10&#45;&gt;6</title>
<path fill="none" stroke="#444444" stroke-dasharray="5,2" d="M1298.46,-917.43C1413.87,-891.67 1557.51,-851.57 1677,-793.4 1758.04,-753.95 1839.55,-693.16 1899.9,-643.15"/>
<polygon fill="#444444" stroke="#444444" points="1902.05,-645.92 1907.48,-636.82 1897.56,-640.54 1902.05,-645.92"/>
<text xml:space="preserve" text-anchor="start" x="1939.08" y="-771.65" font-family="Arial" font-size="24.00" fill="#444444">8. uses</text>
<text xml:space="preserve" text-anchor="start" x="1807.08" y="-744.65" font-family="Arial" font-size="24.00" fill="#444444">Kairos_engine.Graphviz_render</text>
<text xml:space="preserve" text-anchor="start" x="1905.33" y="-717.65" font-family="Arial" font-size="24.00" fill="#444444">when needed</text>
</g>
<!-- 3 -->
<g id="3" class="node">
<title>3</title>
<polygon fill="#374151" stroke="#262d38" points="1721.3,-238.2 1366.7,-238.2 1366.7,-56 1721.3,-56 1721.3,-238.2"/>
<text xml:space="preserve" text-anchor="start" x="1509.12" y="-185.3" font-family="Arial" font-size="34.00" fill="#ffffff">Spot</text>
<text xml:space="preserve" text-anchor="start" x="1467.12" y="-165.55" font-family="Arial" font-size="19.00" fill="#ffffff">[Software System]</text>
<text xml:space="preserve" text-anchor="start" x="1433.75" y="-127.8" font-family="Arial" font-size="24.00" fill="#ffffff">External tool used to</text>
<text xml:space="preserve" text-anchor="start" x="1395.5" y="-103.8" font-family="Arial" font-size="24.00" fill="#ffffff">construct temporal&#45;property</text>
<text xml:space="preserve" text-anchor="start" x="1490" y="-79.8" font-family="Arial" font-size="24.00" fill="#ffffff">automata.</text>
</g>
<!-- 30&#45;&gt;3 -->
<g id="52" class="edge">
<title>30&#45;&gt;3</title>
<path fill="none" stroke="#444444" stroke-dasharray="5,2" d="M1544,-435.88C1544,-376.82 1544,-306.29 1544,-249.84"/>
<polygon fill="#444444" stroke="#444444" points="1547.5,-249.89 1544,-239.89 1540.5,-249.89 1547.5,-249.89"/>
<text xml:space="preserve" text-anchor="start" x="1544" y="-306.45" font-family="Arial" font-size="24.00" fill="#444444">5. builds property</text>
<text xml:space="preserve" text-anchor="start" x="1586.38" y="-279.45" font-family="Arial" font-size="24.00" fill="#444444">automata</text>
</g>
<!-- 8 -->
<g id="8" class="node">
<title>8</title>
<polygon fill="#7c3aed" stroke="#5628a5" points="1288.8,-1391.8 889.2,-1391.8 889.2,-1209.6 1288.8,-1209.6 1288.8,-1391.8"/>
<text xml:space="preserve" text-anchor="start" x="1062.38" y="-1338.9" font-family="Arial" font-size="34.00" fill="#ffffff">CLI</text>
<text xml:space="preserve" text-anchor="start" x="962.25" y="-1319.15" font-family="Arial" font-size="19.00" fill="#ffffff">[Container: OCaml / Cmdliner]</text>
<text xml:space="preserve" text-anchor="start" x="932.62" y="-1281.4" font-family="Arial" font-size="24.00" fill="#ffffff">Command&#45;line entry point for</text>
<text xml:space="preserve" text-anchor="start" x="918" y="-1257.4" font-family="Arial" font-size="24.00" fill="#ffffff">checking, dumping, and proving</text>
<text xml:space="preserve" text-anchor="start" x="996.75" y="-1233.4" font-family="Arial" font-size="24.00" fill="#ffffff">Kairos programs.</text>
</g>
<!-- 8&#45;&gt;10 -->
<g id="34" class="edge">
<title>8&#45;&gt;10</title>
<path fill="none" stroke="#444444" stroke-dasharray="5,2" d="M1089,-1209.34C1089,-1174.38 1089,-1133.58 1089,-1095.13"/>
<polygon fill="#444444" stroke="#444444" points="1092.5,-1095.33 1089,-1085.33 1085.5,-1095.33 1092.5,-1095.33"/>
<text xml:space="preserve" text-anchor="start" x="1089" y="-1151.85" font-family="Arial" font-size="24.00" fill="#444444">2. invokes public API and</text>
<text xml:space="preserve" text-anchor="start" x="1126.12" y="-1124.85" font-family="Arial" font-size="24.00" fill="#444444">canonical contract</text>
</g>
<!-- 1 -->
<g id="1" class="node">
<title>1</title>
<polygon fill="#164e63" stroke="#0f3645" points="1290.67,-1724 887.33,-1724 887.33,-1517.8 1290.67,-1517.8 1290.67,-1724"/>
<text xml:space="preserve" text-anchor="start" x="961.88" y="-1671.1" font-family="Arial" font-size="34.00" fill="#ffffff">Kairos developer</text>
<text xml:space="preserve" text-anchor="start" x="1053.75" y="-1651.35" font-family="Arial" font-size="19.00" fill="#ffffff">[Person]</text>
<text xml:space="preserve" text-anchor="start" x="916.12" y="-1613.6" font-family="Arial" font-size="24.00" fill="#ffffff">Develops Kairos programs, runs</text>
<text xml:space="preserve" text-anchor="start" x="955.12" y="-1589.6" font-family="Arial" font-size="24.00" fill="#ffffff">proofs, inspects artifacts,</text>
<text xml:space="preserve" text-anchor="start" x="981.38" y="-1565.6" font-family="Arial" font-size="24.00" fill="#ffffff">and keeps the Rocq</text>
<text xml:space="preserve" text-anchor="start" x="974.62" y="-1541.6" font-family="Arial" font-size="24.00" fill="#ffffff">formalization aligned.</text>
</g>
<!-- 1&#45;&gt;8 -->
<g id="31" class="edge">
<title>1&#45;&gt;8</title>
<path fill="none" stroke="#444444" stroke-dasharray="5,2" d="M1089,-1517.47C1089,-1480.92 1089,-1439.77 1089,-1403.29"/>
<polygon fill="#444444" stroke="#444444" points="1092.5,-1403.65 1089,-1393.65 1085.5,-1403.65 1092.5,-1403.65"/>
<text xml:space="preserve" text-anchor="start" x="1089" y="-1460.05" font-family="Arial" font-size="24.00" fill="#444444">1. requests diagnostic</text>
<text xml:space="preserve" text-anchor="start" x="1176.38" y="-1433.05" font-family="Arial" font-size="24.00" fill="#444444">dump</text>
</g>
</g>
</svg>
