<?xml version="1.0" encoding="UTF-8" standalone="no"?>
<!DOCTYPE svg PUBLIC "-//W3C//DTD SVG 1.1//EN"
 "http://www.w3.org/Graphics/SVG/1.1/DTD/svg11.dtd">
<!-- Generated by graphviz version 14.1.3 (20260303.0454)
 -->
<!-- Pages: 1 -->
<svg width="2711pt" height="1237pt"
 viewBox="0.00 0.00 2711.00 1237.00" xmlns="http://www.w3.org/2000/svg" xmlns:xlink="http://www.w3.org/1999/xlink">
<g id="graph0" class="graph" transform="scale(1 1) rotate(0) translate(4 1233)">
<polygon fill="white" stroke="none" points="-4,4 -4,-1233 2707.4,-1233 2707.4,4 -4,4"/>
<text xml:space="preserve" text-anchor="start" x="983.08" y="-6.7" font-family="Arial" font-size="34.00">Component View: Kairos &#45; Runtime orchestration</text>
<g id="clust1" class="cluster">
<title>cluster_7</title>
<polygon fill="none" stroke="#444444" points="8,-64 8,-1221 2695.4,-1221 2695.4,-64 8,-64"/>
<text xml:space="preserve" text-anchor="start" x="1317.58" y="-89.2" font-family="Arial" font-size="24.00" fill="#444444">Kairos</text>
<text xml:space="preserve" text-anchor="start" x="1274.83" y="-69.95" font-family="Arial" font-size="19.00" fill="#444444">[Software System]</text>
</g>
<g id="clust2" class="cluster">
<title>cluster_22</title>
<polygon fill="none" stroke="#444444" points="33,-164 33,-1023 1259.45,-1023 1259.45,-164 33,-164"/>
<text xml:space="preserve" text-anchor="start" x="527.72" y="-189.2" font-family="Arial" font-size="24.00" fill="#444444">Runtime orchestration</text>
<text xml:space="preserve" text-anchor="start" x="465.85" y="-169.95" font-family="Arial" font-size="19.00" fill="#444444">[Container: OCaml / kairos&#45;engine&#45;runtime]</text>
</g>
<!-- 23 -->
<g id="23" class="node">
<title>23</title>
<polygon fill="#ffffff" stroke="#444444" points="483.1,-990.1 58,-990.1 58,-807.9 483.1,-807.9 483.1,-990.1"/>
<text xml:space="preserve" text-anchor="start" x="158.43" y="-937.2" font-family="Arial" font-size="34.00" fill="#444444">Snapshot build</text>
<text xml:space="preserve" text-anchor="start" x="181.68" y="-917.45" font-family="Arial" font-size="19.00" fill="#444444">[Component: OCaml]</text>
<text xml:space="preserve" text-anchor="start" x="86.8" y="-879.7" font-family="Arial" font-size="24.00" fill="#444444">Consumes supplied automata and</text>
<text xml:space="preserve" text-anchor="start" x="92.05" y="-855.7" font-family="Arial" font-size="24.00" fill="#444444">assembles reference summaries,</text>
<text xml:space="preserve" text-anchor="start" x="114.93" y="-831.7" font-family="Arial" font-size="24.00" fill="#444444">instrumentation, and metrics.</text>
</g>
<!-- 24 -->
<g id="24" class="node">
<title>24</title>
<polygon fill="#ffffff" stroke="#444444" points="1230.33,-998.1 865.98,-998.1 865.98,-781.9 1230.33,-781.9 1230.33,-998.1"/>
<text xml:space="preserve" text-anchor="start" x="910.15" y="-945.2" font-family="Arial" font-size="34.00" fill="#444444">External automata</text>
<text xml:space="preserve" text-anchor="start" x="997.15" y="-911.2" font-family="Arial" font-size="34.00" fill="#444444">source</text>
<text xml:space="preserve" text-anchor="start" x="959.28" y="-891.45" font-family="Arial" font-size="19.00" fill="#444444">[Component: OCaml]</text>
<text xml:space="preserve" text-anchor="start" x="894.78" y="-853.7" font-family="Arial" font-size="24.00" fill="#444444">Produces supplied automata</text>
<text xml:space="preserve" text-anchor="start" x="900.4" y="-829.7" font-family="Arial" font-size="24.00" fill="#444444">with Spot today, outside the</text>
<text xml:space="preserve" text-anchor="start" x="977.28" y="-805.7" font-family="Arial" font-size="24.00" fill="#444444">runtime core.</text>
</g>
<!-- 23&#45;&gt;24 -->
<g id="77" class="edge">
<title>23&#45;&gt;24</title>
<path fill="none" stroke="#444444" stroke-dasharray="5,2" d="M483.48,-878.92C495.52,-878.17 507.46,-877.52 519.1,-877 655.3,-870.96 689.58,-873 825.85,-877 835.18,-877.27 844.73,-877.61 854.38,-878"/>
<polygon fill="#444444" stroke="#444444" points="854.08,-881.49 864.22,-878.42 854.38,-874.5 854.08,-881.49"/>
<text xml:space="preserve" text-anchor="start" x="519.1" y="-882.25" font-family="Arial" font-size="24.00" fill="#444444">Requests supplied automata</text>
</g>
<!-- 14 -->
<g id="14" class="node">
<title>14</title>
<polygon fill="#166534" stroke="#0f4624" points="1909.3,-1196.1 1549.45,-1196.1 1549.45,-931.9 1909.3,-931.9 1909.3,-1196.1"/>
<text xml:space="preserve" text-anchor="start" x="1651" y="-1143.2" font-family="Arial" font-size="34.00" fill="#ffffff">Reference</text>
<text xml:space="preserve" text-anchor="start" x="1597" y="-1109.2" font-family="Arial" font-size="34.00" fill="#ffffff">verification kernel</text>
<text xml:space="preserve" text-anchor="start" x="1648.38" y="-1089.45" font-family="Arial" font-size="19.00" fill="#ffffff">[Container: OCaml]</text>
<text xml:space="preserve" text-anchor="start" x="1578.25" y="-1051.7" font-family="Arial" font-size="24.00" fill="#ffffff">Validates supplied automata</text>
<text xml:space="preserve" text-anchor="start" x="1599.25" y="-1027.7" font-family="Arial" font-size="24.00" fill="#ffffff">normal form, then builds</text>
<text xml:space="preserve" text-anchor="start" x="1602.62" y="-1003.7" font-family="Arial" font-size="24.00" fill="#ffffff">product summaries and</text>
<text xml:space="preserve" text-anchor="start" x="1585.75" y="-979.7" font-family="Arial" font-size="24.00" fill="#ffffff">reference proof obligations</text>
<text xml:space="preserve" text-anchor="start" x="1618" y="-955.7" font-family="Arial" font-size="24.00" fill="#ffffff">from the core model.</text>
</g>
<!-- 23&#45;&gt;14 -->
<g id="83" class="edge">
<title>23&#45;&gt;14</title>
<path fill="none" stroke="#444444" stroke-dasharray="5,2" d="M483.4,-954.2C595.28,-981.63 735.28,-1013.26 861.85,-1034 1144.92,-1080.38 1219.19,-1082.09 1505.95,-1075 1516.35,-1074.74 1527.02,-1074.42 1537.79,-1074.04"/>
<polygon fill="#444444" stroke="#444444" points="1537.66,-1077.55 1547.53,-1073.69 1537.41,-1070.56 1537.66,-1077.55"/>
<text xml:space="preserve" text-anchor="start" x="916.9" y="-1109.73" font-family="Arial" font-size="24.00" fill="#444444">Builds reference product</text>
<text xml:space="preserve" text-anchor="start" x="918.03" y="-1082.73" font-family="Arial" font-size="24.00" fill="#444444">from validated automata</text>
</g>
<!-- 24&#45;&gt;14 -->
<g id="80" class="edge">
<title>24&#45;&gt;14</title>
<path fill="none" stroke="#444444" stroke-dasharray="5,2" d="M1230.72,-936.51C1325.7,-960.84 1441.9,-990.61 1538.12,-1015.26"/>
<polygon fill="#444444" stroke="#444444" points="1537.13,-1018.62 1547.69,-1017.71 1538.87,-1011.84 1537.13,-1018.62"/>
<text xml:space="preserve" text-anchor="start" x="1270.45" y="-1035" font-family="Arial" font-size="24.00" fill="#444444">Supplies automata for</text>
<text xml:space="preserve" text-anchor="start" x="1337.2" y="-1008" font-family="Arial" font-size="24.00" fill="#444444">validation</text>
</g>
<!-- 31 -->
<g id="31" class="node">
<title>31</title>
<polygon fill="#6b7280" stroke="#4a4f59" points="1916.8,-860.1 1541.95,-860.1 1541.95,-643.9 1916.8,-643.9 1916.8,-860.1"/>
<text xml:space="preserve" text-anchor="start" x="1634.88" y="-807.2" font-family="Arial" font-size="34.00" fill="#ffffff">External tool</text>
<text xml:space="preserve" text-anchor="start" x="1663.38" y="-773.2" font-family="Arial" font-size="34.00" fill="#ffffff">adapters</text>
<text xml:space="preserve" text-anchor="start" x="1648.38" y="-753.45" font-family="Arial" font-size="19.00" fill="#ffffff">[Container: OCaml]</text>
<text xml:space="preserve" text-anchor="start" x="1570.75" y="-715.7" font-family="Arial" font-size="24.00" fill="#ffffff">Adapter layer for Spot, Why3,</text>
<text xml:space="preserve" text-anchor="start" x="1597.38" y="-691.7" font-family="Arial" font-size="24.00" fill="#ffffff">Z3, Graphviz, and timing</text>
<text xml:space="preserve" text-anchor="start" x="1681.75" y="-667.7" font-family="Arial" font-size="24.00" fill="#ffffff">services.</text>
</g>
<!-- 24&#45;&gt;31 -->
<g id="78" class="edge">
<title>24&#45;&gt;31</title>
<path fill="none" stroke="#444444" stroke-dasharray="5,2" d="M1230.72,-853.11C1323.15,-834.33 1435.67,-811.47 1530.32,-792.24"/>
<polygon fill="#444444" stroke="#444444" points="1530.89,-795.7 1539.99,-790.27 1529.5,-788.84 1530.89,-795.7"/>
<text xml:space="preserve" text-anchor="start" x="1288.83" y="-846.67" font-family="Arial" font-size="24.00" fill="#444444">Calls Spot adapter</text>
</g>
<!-- 25 -->
<g id="25" class="node">
<title>25</title>
<polygon fill="#ffffff" stroke="#444444" points="462.85,-531.1 78.25,-531.1 78.25,-348.9 462.85,-348.9 462.85,-531.1"/>
<text xml:space="preserve" text-anchor="start" x="147.55" y="-478.2" font-family="Arial" font-size="34.00" fill="#444444">Output selection</text>
<text xml:space="preserve" text-anchor="start" x="181.68" y="-458.45" font-family="Arial" font-size="19.00" fill="#444444">[Component: OCaml]</text>
<text xml:space="preserve" text-anchor="start" x="107.05" y="-420.7" font-family="Arial" font-size="24.00" fill="#444444">Keeps minimal prove separate</text>
<text xml:space="preserve" text-anchor="start" x="148.68" y="-396.7" font-family="Arial" font-size="24.00" fill="#444444">from diagnostic artifact</text>
<text xml:space="preserve" text-anchor="start" x="201.93" y="-372.7" font-family="Arial" font-size="24.00" fill="#444444">construction.</text>
</g>
<!-- 26 -->
<g id="26" class="node">
<title>26</title>
<polygon fill="#ffffff" stroke="#444444" points="1234.45,-422.1 861.85,-422.1 861.85,-263.9 1234.45,-263.9 1234.45,-422.1"/>
<text xml:space="preserve" text-anchor="start" x="954.03" y="-369.2" font-family="Arial" font-size="34.00" fill="#444444">Proof runner</text>
<text xml:space="preserve" text-anchor="start" x="959.28" y="-349.45" font-family="Arial" font-size="19.00" fill="#444444">[Component: OCaml]</text>
<text xml:space="preserve" text-anchor="start" x="919.9" y="-311.7" font-family="Arial" font-size="24.00" fill="#444444">Runs Why3 proof tasks,</text>
<text xml:space="preserve" text-anchor="start" x="890.65" y="-287.7" font-family="Arial" font-size="24.00" fill="#444444">callbacks, and goal reporting.</text>
</g>
<!-- 25&#45;&gt;26 -->
<g id="86" class="edge">
<title>25&#45;&gt;26</title>
<path fill="none" stroke="#444444" stroke-dasharray="5,2" d="M463.11,-415.12C482.02,-412.7 500.93,-410.29 519.1,-408 628.52,-394.19 750.74,-379.13 850.01,-366.98"/>
<polygon fill="#444444" stroke="#444444" points="850.39,-370.46 859.89,-365.77 849.54,-363.51 850.39,-370.46"/>
<text xml:space="preserve" text-anchor="start" x="541.23" y="-413.25" font-family="Arial" font-size="24.00" fill="#444444">Runs minimal proof path</text>
</g>
<!-- 27 -->
<g id="27" class="node">
<title>27</title>
<polygon fill="#ffffff" stroke="#444444" points="1234.08,-710.1 862.23,-710.1 862.23,-493.9 1234.08,-493.9 1234.08,-710.1"/>
<text xml:space="preserve" text-anchor="start" x="912.4" y="-657.2" font-family="Arial" font-size="34.00" fill="#444444">Diagnostic artifact</text>
<text xml:space="preserve" text-anchor="start" x="997.53" y="-623.2" font-family="Arial" font-size="34.00" fill="#444444">bundle</text>
<text xml:space="preserve" text-anchor="start" x="959.28" y="-603.45" font-family="Arial" font-size="19.00" fill="#444444">[Component: OCaml]</text>
<text xml:space="preserve" text-anchor="start" x="891.03" y="-565.7" font-family="Arial" font-size="24.00" fill="#444444">Builds graphs, canonical text,</text>
<text xml:space="preserve" text-anchor="start" x="930.4" y="-541.7" font-family="Arial" font-size="24.00" fill="#444444">obligations maps, and</text>
<text xml:space="preserve" text-anchor="start" x="951.03" y="-517.7" font-family="Arial" font-size="24.00" fill="#444444">cost&#45;report inputs.</text>
</g>
<!-- 25&#45;&gt;27 -->
<g id="87" class="edge">
<title>25&#45;&gt;27</title>
<path fill="none" stroke="#444444" stroke-dasharray="5,2" d="M463.27,-480.04C581.27,-504.69 732.13,-536.2 850.95,-561.02"/>
<polygon fill="#444444" stroke="#444444" points="849.99,-564.39 860.5,-563.01 851.42,-557.54 849.99,-564.39"/>
<text xml:space="preserve" text-anchor="start" x="550.6" y="-586.38" font-family="Arial" font-size="24.00" fill="#444444">Builds diagnostics only</text>
<text xml:space="preserve" text-anchor="start" x="586.23" y="-559.38" font-family="Arial" font-size="24.00" fill="#444444">when requested</text>
</g>
<!-- 19 -->
<g id="19" class="node">
<title>19</title>
<polygon fill="#075985" stroke="#043e5d" points="2670.4,-1036.1 2286.55,-1036.1 2286.55,-829.9 2670.4,-829.9 2670.4,-1036.1"/>
<text xml:space="preserve" text-anchor="start" x="2334.1" y="-983.2" font-family="Arial" font-size="34.00" fill="#ffffff">Proof&#45;kernel export</text>
<text xml:space="preserve" text-anchor="start" x="2364.1" y="-963.45" font-family="Arial" font-size="19.00" fill="#ffffff">[Container: OCaml / JSON]</text>
<text xml:space="preserve" text-anchor="start" x="2334.1" y="-925.7" font-family="Arial" font-size="24.00" fill="#ffffff">Builds exchange projection</text>
<text xml:space="preserve" text-anchor="start" x="2321.72" y="-901.7" font-family="Arial" font-size="24.00" fill="#ffffff">data used by diagnostics and</text>
<text xml:space="preserve" text-anchor="start" x="2315.35" y="-877.7" font-family="Arial" font-size="24.00" fill="#ffffff">possible Rocq synchronization</text>
<text xml:space="preserve" text-anchor="start" x="2330.35" y="-853.7" font-family="Arial" font-size="24.00" fill="#ffffff">after an adequacy decision.</text>
</g>
<!-- 27&#45;&gt;19 -->
<g id="89" class="edge">
<title>27&#45;&gt;19</title>
<path fill="none" stroke="#444444" stroke-dasharray="5,2" d="M1234.33,-555.33C1413.11,-518.68 1689.43,-484.36 1916.8,-554 2087.57,-606.3 2253.22,-730.12 2359.62,-822.08"/>
<polygon fill="#444444" stroke="#444444" points="2357.15,-824.57 2366.99,-828.49 2361.74,-819.29 2357.15,-824.57"/>
<text xml:space="preserve" text-anchor="start" x="1628.5" y="-586.25" font-family="Arial" font-size="24.00" fill="#444444">Builds proof&#45;kernel</text>
<text xml:space="preserve" text-anchor="start" x="1669" y="-559.25" font-family="Arial" font-size="24.00" fill="#444444">diagnostics</text>
</g>
<!-- 14&#45;&gt;19 -->
<g id="75" class="edge">
<title>14&#45;&gt;19</title>
<path fill="none" stroke="#444444" stroke-dasharray="5,2" d="M1909.64,-932.68C1923.8,-926.09 1938.26,-920.4 1952.8,-916 2056.02,-884.8 2175.9,-886.07 2274.99,-896.46"/>
<polygon fill="#444444" stroke="#444444" points="2274.53,-899.93 2284.85,-897.54 2275.29,-892.97 2274.53,-899.93"/>
<text xml:space="preserve" text-anchor="start" x="1964.43" y="-948.25" font-family="Arial" font-size="24.00" fill="#444444">Provides exchange&#45;ready</text>
<text xml:space="preserve" text-anchor="start" x="2022.93" y="-921.25" font-family="Arial" font-size="24.00" fill="#444444">reference view</text>
</g>
<!-- 19&#45;&gt;14 -->
<g id="51" class="edge">
<title>19&#45;&gt;14</title>
<path fill="none" stroke="#444444" stroke-dasharray="5,2" d="M2286.16,-980.7C2274.13,-983.29 2262.19,-985.74 2250.55,-988 2141.95,-1009.05 2019.58,-1027.2 1920.83,-1040.48"/>
<polygon fill="#444444" stroke="#444444" points="1920.47,-1037 1911.02,-1041.8 1921.4,-1043.94 1920.47,-1037"/>
<text xml:space="preserve" text-anchor="start" x="1952.8" y="-1068.05" font-family="Arial" font-size="24.00" fill="#444444">Uses product and automata</text>
<text xml:space="preserve" text-anchor="start" x="2058.18" y="-1041.05" font-family="Arial" font-size="24.00" fill="#444444">analysis</text>
</g>
</g>
</svg>
