<?xml version="1.0" encoding="UTF-8" standalone="no"?>
<!DOCTYPE svg PUBLIC "-//W3C//DTD SVG 1.1//EN"
 "http://www.w3.org/Graphics/SVG/1.1/DTD/svg11.dtd">
<!-- Generated by graphviz version 14.1.3 (20260303.0454)
 -->
<!-- Pages: 1 -->
<svg width="5029pt" height="2549pt"
 viewBox="0.00 0.00 5029.00 2549.00" xmlns="http://www.w3.org/2000/svg" xmlns:xlink="http://www.w3.org/1999/xlink">
<g id="graph0" class="graph" transform="scale(1 1) rotate(0) translate(4 2545.2)">
<polygon fill="white" stroke="none" points="-4,4 -4,-2545.2 5024.65,-2545.2 5024.65,4 -4,4"/>
<text xml:space="preserve" text-anchor="start" x="2337.83" y="-6.7" font-family="Arial" font-size="34.00">Container View: Kairos</text>
<g id="clust1" class="cluster">
<title>cluster_7</title>
<polygon fill="none" stroke="#444444" points="728.6,-493.1 728.6,-1850.1 5012.65,-1850.1 5012.65,-493.1 728.6,-493.1"/>
<text xml:space="preserve" text-anchor="start" x="2836.5" y="-518.3" font-family="Arial" font-size="24.00" fill="#444444">Kairos</text>
<text xml:space="preserve" text-anchor="start" x="2793.75" y="-499.05" font-family="Arial" font-size="19.00" fill="#444444">[Software System]</text>
</g>
<!-- 1 -->
<g id="1" class="node">
<title>1</title>
<polygon fill="#164e63" stroke="#0f3645" points="403.35,-922.2 0,-922.2 0,-716 403.35,-716 403.35,-922.2"/>
<text xml:space="preserve" text-anchor="start" x="74.55" y="-869.3" font-family="Arial" font-size="34.00" fill="#ffffff">Kairos developer</text>
<text xml:space="preserve" text-anchor="start" x="166.43" y="-849.55" font-family="Arial" font-size="19.00" fill="#ffffff">[Person]</text>
<text xml:space="preserve" text-anchor="start" x="28.8" y="-811.8" font-family="Arial" font-size="24.00" fill="#ffffff">Develops Kairos programs, runs</text>
<text xml:space="preserve" text-anchor="start" x="67.8" y="-787.8" font-family="Arial" font-size="24.00" fill="#ffffff">proofs, inspects artifacts,</text>
<text xml:space="preserve" text-anchor="start" x="94.05" y="-763.8" font-family="Arial" font-size="24.00" fill="#ffffff">and keeps the Rocq</text>
<text xml:space="preserve" text-anchor="start" x="87.3" y="-739.8" font-family="Arial" font-size="24.00" fill="#ffffff">formalization aligned.</text>
</g>
<!-- 8 -->
<g id="8" class="node">
<title>8</title>
<polygon fill="#7c3aed" stroke="#5628a5" points="1153.2,-1037.2 753.6,-1037.2 753.6,-855 1153.2,-855 1153.2,-1037.2"/>
<text xml:space="preserve" text-anchor="start" x="926.78" y="-984.3" font-family="Arial" font-size="34.00" fill="#ffffff">CLI</text>
<text xml:space="preserve" text-anchor="start" x="826.65" y="-964.55" font-family="Arial" font-size="19.00" fill="#ffffff">[Container: OCaml / Cmdliner]</text>
<text xml:space="preserve" text-anchor="start" x="797.03" y="-926.8" font-family="Arial" font-size="24.00" fill="#ffffff">Command&#45;line entry point for</text>
<text xml:space="preserve" text-anchor="start" x="782.4" y="-902.8" font-family="Arial" font-size="24.00" fill="#ffffff">checking, dumping, and proving</text>
<text xml:space="preserve" text-anchor="start" x="861.15" y="-878.8" font-family="Arial" font-size="24.00" fill="#ffffff">Kairos programs.</text>
</g>
<!-- 1&#45;&gt;8 -->
<g id="32" class="edge">
<title>1&#45;&gt;8</title>
<path fill="none" stroke="#444444" stroke-dasharray="5,2" d="M403.59,-853.13C508.21,-870.86 636.07,-892.51 742.04,-910.47"/>
<polygon fill="#444444" stroke="#444444" points="741.27,-913.89 751.72,-912.11 742.44,-906.98 741.27,-913.89"/>
<text xml:space="preserve" text-anchor="start" x="439.35" y="-937.27" font-family="Arial" font-size="24.00" fill="#444444">Runs checks, dumps, and</text>
<text xml:space="preserve" text-anchor="start" x="544.73" y="-910.27" font-family="Arial" font-size="24.00" fill="#444444">proofs</text>
</g>
<!-- 9 -->
<g id="9" class="node">
<title>9</title>
<polygon fill="#7c3aed" stroke="#5628a5" points="1140.08,-783.2 766.73,-783.2 766.73,-601 1140.08,-601 1140.08,-783.2"/>
<text xml:space="preserve" text-anchor="start" x="869.78" y="-730.3" font-family="Arial" font-size="34.00" fill="#ffffff">LSP server</text>
<text xml:space="preserve" text-anchor="start" x="846.53" y="-710.55" font-family="Arial" font-size="19.00" fill="#ffffff">[Container: OCaml / LSP]</text>
<text xml:space="preserve" text-anchor="start" x="801.9" y="-672.8" font-family="Arial" font-size="24.00" fill="#ffffff">Editor&#45;facing protocol server</text>
<text xml:space="preserve" text-anchor="start" x="795.53" y="-648.8" font-family="Arial" font-size="24.00" fill="#ffffff">exposing frontend, proof, and</text>
<text xml:space="preserve" text-anchor="start" x="866.03" y="-624.8" font-family="Arial" font-size="24.00" fill="#ffffff">artifact services.</text>
</g>
<!-- 1&#45;&gt;9 -->
<g id="34" class="edge">
<title>1&#45;&gt;9</title>
<path fill="none" stroke="#444444" stroke-dasharray="5,2" d="M403.59,-785.07C512.62,-766.6 646.87,-743.86 755.3,-725.49"/>
<polygon fill="#444444" stroke="#444444" points="755.62,-728.98 764.89,-723.86 754.45,-722.08 755.62,-728.98"/>
<text xml:space="preserve" text-anchor="start" x="469.73" y="-783.27" font-family="Arial" font-size="24.00" fill="#444444">Uses editor services</text>
</g>
<!-- 2 -->
<g id="2" class="node">
<title>2</title>
<polygon fill="#0f766e" stroke="#0a524d" points="2630.78,-468.2 2291.18,-468.2 2291.18,-286 2630.78,-286 2630.78,-468.2"/>
<text xml:space="preserve" text-anchor="start" x="2319.98" y="-415.3" font-family="Arial" font-size="34.00" fill="#ffffff">Rocq formalization</text>
<text xml:space="preserve" text-anchor="start" x="2384.1" y="-395.55" font-family="Arial" font-size="19.00" fill="#ffffff">[Software System]</text>
<text xml:space="preserve" text-anchor="start" x="2352.98" y="-357.8" font-family="Arial" font-size="24.00" fill="#ffffff">Formal model of the</text>
<text xml:space="preserve" text-anchor="start" x="2369.48" y="-333.8" font-family="Arial" font-size="24.00" fill="#ffffff">correction&#45;critical</text>
<text xml:space="preserve" text-anchor="start" x="2363.48" y="-309.8" font-family="Arial" font-size="24.00" fill="#ffffff">verification kernel.</text>
</g>
<!-- 21 -->
<g id="21" class="node">
<title>21</title>
<polygon fill="#166534" stroke="#0f4624" points="3480.98,-1193.2 3121.13,-1193.2 3121.13,-929 3480.98,-929 3480.98,-1193.2"/>
<text xml:space="preserve" text-anchor="start" x="3222.68" y="-1140.3" font-family="Arial" font-size="34.00" fill="#ffffff">Reference</text>
<text xml:space="preserve" text-anchor="start" x="3168.68" y="-1106.3" font-family="Arial" font-size="34.00" fill="#ffffff">verification kernel</text>
<text xml:space="preserve" text-anchor="start" x="3220.05" y="-1086.55" font-family="Arial" font-size="19.00" fill="#ffffff">[Container: OCaml]</text>
<text xml:space="preserve" text-anchor="start" x="3149.93" y="-1048.8" font-family="Arial" font-size="24.00" fill="#ffffff">Validates supplied automata</text>
<text xml:space="preserve" text-anchor="start" x="3170.93" y="-1024.8" font-family="Arial" font-size="24.00" fill="#ffffff">normal form, then builds</text>
<text xml:space="preserve" text-anchor="start" x="3174.3" y="-1000.8" font-family="Arial" font-size="24.00" fill="#ffffff">product summaries and</text>
<text xml:space="preserve" text-anchor="start" x="3157.43" y="-976.8" font-family="Arial" font-size="24.00" fill="#ffffff">reference proof obligations</text>
<text xml:space="preserve" text-anchor="start" x="3189.68" y="-952.8" font-family="Arial" font-size="24.00" fill="#ffffff">from the core model.</text>
</g>
<!-- 2&#45;&gt;21 -->
<g id="61" class="edge">
<title>2&#45;&gt;21</title>
<path fill="none" stroke="#444444" stroke-dasharray="5,2" d="M2631.27,-415.18C2652.39,-419.45 2673.74,-423.54 2694.15,-427.1 2774.96,-441.19 2995.06,-425.99 3060,-476.1 3197.68,-582.36 3256.89,-781.13 3282.02,-917.23"/>
<polygon fill="#444444" stroke="#444444" points="3278.57,-917.84 3283.79,-927.06 3285.46,-916.6 3278.57,-917.84"/>
<text xml:space="preserve" text-anchor="start" x="2738.7" y="-535.35" font-family="Arial" font-size="24.00" fill="#444444">Checks adequacy against</text>
<text xml:space="preserve" text-anchor="start" x="2754.45" y="-508.35" font-family="Arial" font-size="24.00" fill="#444444">the essential reference</text>
<text xml:space="preserve" text-anchor="start" x="2826.45" y="-481.35" font-family="Arial" font-size="24.00" fill="#444444">boundary</text>
</g>
<!-- 25 -->
<g id="25" class="node">
<title>25</title>
<polygon fill="#075985" stroke="#043e5d" points="4306.8,-1019.2 3922.95,-1019.2 3922.95,-813 4306.8,-813 4306.8,-1019.2"/>
<text xml:space="preserve" text-anchor="start" x="3970.5" y="-966.3" font-family="Arial" font-size="34.00" fill="#ffffff">Proof&#45;kernel export</text>
<text xml:space="preserve" text-anchor="start" x="4000.5" y="-946.55" font-family="Arial" font-size="19.00" fill="#ffffff">[Container: OCaml / JSON]</text>
<text xml:space="preserve" text-anchor="start" x="3970.5" y="-908.8" font-family="Arial" font-size="24.00" fill="#ffffff">Builds exchange projection</text>
<text xml:space="preserve" text-anchor="start" x="3958.12" y="-884.8" font-family="Arial" font-size="24.00" fill="#ffffff">data used by diagnostics and</text>
<text xml:space="preserve" text-anchor="start" x="3951.75" y="-860.8" font-family="Arial" font-size="24.00" fill="#ffffff">possible Rocq synchronization</text>
<text xml:space="preserve" text-anchor="start" x="3966.75" y="-836.8" font-family="Arial" font-size="24.00" fill="#ffffff">after an adequacy decision.</text>
</g>
<!-- 2&#45;&gt;25 -->
<g id="63" class="edge">
<title>2&#45;&gt;25</title>
<path fill="none" stroke="#444444" stroke-dasharray="5,2" d="M2631.06,-365.42C2914.38,-354.17 3492.67,-367.66 3886.95,-622.1 3956.52,-666.99 4013.39,-740.82 4052.8,-803.26"/>
<polygon fill="#444444" stroke="#444444" points="4049.67,-804.86 4057.93,-811.49 4055.61,-801.16 4049.67,-804.86"/>
<text xml:space="preserve" text-anchor="start" x="3159.68" y="-482.91" font-family="Arial" font-size="24.00" fill="#444444">May consume a versioned</text>
<text xml:space="preserve" text-anchor="start" x="3192.68" y="-455.91" font-family="Arial" font-size="24.00" fill="#444444">exchange projection</text>
</g>
<!-- 3 -->
<g id="3" class="node">
<title>3</title>
<polygon fill="#374151" stroke="#262d38" points="4292.18,-2541.2 3937.57,-2541.2 3937.57,-2359 4292.18,-2359 4292.18,-2541.2"/>
<text xml:space="preserve" text-anchor="start" x="4080" y="-2488.3" font-family="Arial" font-size="34.00" fill="#ffffff">Spot</text>
<text xml:space="preserve" text-anchor="start" x="4038" y="-2468.55" font-family="Arial" font-size="19.00" fill="#ffffff">[Software System]</text>
<text xml:space="preserve" text-anchor="start" x="4004.62" y="-2430.8" font-family="Arial" font-size="24.00" fill="#ffffff">External tool used to</text>
<text xml:space="preserve" text-anchor="start" x="3966.38" y="-2406.8" font-family="Arial" font-size="24.00" fill="#ffffff">construct temporal&#45;property</text>
<text xml:space="preserve" text-anchor="start" x="4060.88" y="-2382.8" font-family="Arial" font-size="24.00" fill="#ffffff">automata.</text>
</g>
<!-- 4 -->
<g id="4" class="node">
<title>4</title>
<polygon fill="#374151" stroke="#262d38" points="4292.18,-2287.2 3937.57,-2287.2 3937.57,-2129 4292.18,-2129 4292.18,-2287.2"/>
<text xml:space="preserve" text-anchor="start" x="4071.38" y="-2234.3" font-family="Arial" font-size="34.00" fill="#ffffff">Why3</text>
<text xml:space="preserve" text-anchor="start" x="4038" y="-2214.55" font-family="Arial" font-size="19.00" fill="#ffffff">[Software System]</text>
<text xml:space="preserve" text-anchor="start" x="3966.38" y="-2176.8" font-family="Arial" font-size="24.00" fill="#ffffff">External VC generation and</text>
<text xml:space="preserve" text-anchor="start" x="3983.25" y="-2152.8" font-family="Arial" font-size="24.00" fill="#ffffff">proof&#45;task infrastructure.</text>
</g>
<!-- 5 -->
<g id="5" class="node">
<title>5</title>
<polygon fill="#374151" stroke="#262d38" points="4291.05,-2057.2 3938.7,-2057.2 3938.7,-1875 4291.05,-1875 4291.05,-2057.2"/>
<text xml:space="preserve" text-anchor="start" x="4095" y="-2004.3" font-family="Arial" font-size="34.00" fill="#ffffff">Z3</text>
<text xml:space="preserve" text-anchor="start" x="4038" y="-1984.55" font-family="Arial" font-size="19.00" fill="#ffffff">[Software System]</text>
<text xml:space="preserve" text-anchor="start" x="3976.88" y="-1946.8" font-family="Arial" font-size="24.00" fill="#ffffff">External SMT solver used</text>
<text xml:space="preserve" text-anchor="start" x="3967.5" y="-1922.8" font-family="Arial" font-size="24.00" fill="#ffffff">through Why3 and selected</text>
<text xml:space="preserve" text-anchor="start" x="4002.38" y="-1898.8" font-family="Arial" font-size="24.00" fill="#ffffff">internal experiments.</text>
</g>
<!-- 6 -->
<g id="6" class="node">
<title>6</title>
<polygon fill="#374151" stroke="#262d38" points="2635.65,-214.2 2286.3,-214.2 2286.3,-56 2635.65,-56 2635.65,-214.2"/>
<text xml:space="preserve" text-anchor="start" x="2393.1" y="-161.3" font-family="Arial" font-size="34.00" fill="#ffffff">Graphviz</text>
<text xml:space="preserve" text-anchor="start" x="2384.1" y="-141.55" font-family="Arial" font-size="19.00" fill="#ffffff">[Software System]</text>
<text xml:space="preserve" text-anchor="start" x="2315.1" y="-103.8" font-family="Arial" font-size="24.00" fill="#ffffff">External renderer for graph</text>
<text xml:space="preserve" text-anchor="start" x="2415.23" y="-79.8" font-family="Arial" font-size="24.00" fill="#ffffff">artifacts.</text>
</g>
<!-- 10 -->
<g id="10" class="node">
<title>10</title>
<polygon fill="#b45309" stroke="#7d3a06" points="1929.3,-1044.2 1510.95,-1044.2 1510.95,-790 1929.3,-790 1929.3,-1044.2"/>
<text xml:space="preserve" text-anchor="start" x="1595.63" y="-991.3" font-family="Arial" font-size="34.00" fill="#ffffff">Concrete engine</text>
<text xml:space="preserve" text-anchor="start" x="1539.75" y="-971.55" font-family="Arial" font-size="19.00" fill="#ffffff">[Container: OCaml / kairos&#45;engine&#45;runtime]</text>
<text xml:space="preserve" text-anchor="start" x="1582.88" y="-933.8" font-family="Arial" font-size="24.00" fill="#ffffff">Public Kairos_engine.Api,</text>
<text xml:space="preserve" text-anchor="start" x="1557.75" y="-909.8" font-family="Arial" font-size="24.00" fill="#ffffff">private Engine_flow, canonical</text>
<text xml:space="preserve" text-anchor="start" x="1591.88" y="-885.8" font-family="Arial" font-size="24.00" fill="#ffffff">Pipeline_types contract,</text>
<text xml:space="preserve" text-anchor="start" x="1559.25" y="-861.8" font-family="Arial" font-size="24.00" fill="#ffffff">focused runtime services, and</text>
<text xml:space="preserve" text-anchor="start" x="1604.63" y="-837.8" font-family="Arial" font-size="24.00" fill="#ffffff">Kairos&#45;specific output</text>
<text xml:space="preserve" text-anchor="start" x="1650.75" y="-813.8" font-family="Arial" font-size="24.00" fill="#ffffff">coordination.</text>
</g>
<!-- 10&#45;&gt;6 -->
<g id="45" class="edge">
<title>10&#45;&gt;6</title>
<path fill="none" stroke="#444444" stroke-dasharray="5,2" d="M1787.52,-789.74C1832.49,-708.95 1896.15,-604.36 1965.3,-521.1 2079.78,-383.26 2119.4,-356.2 2263.8,-250.1 2277.37,-240.13 2291.87,-230.29 2306.6,-220.81"/>
<polygon fill="#444444" stroke="#444444" points="2308.47,-223.77 2315.03,-215.45 2304.72,-217.86 2308.47,-223.77"/>
<text xml:space="preserve" text-anchor="start" x="1986.3" y="-553.35" font-family="Arial" font-size="24.00" fill="#444444">Invokes Graphviz on</text>
<text xml:space="preserve" text-anchor="start" x="1996.43" y="-526.35" font-family="Arial" font-size="24.00" fill="#444444">rendered DOT text</text>
</g>
<!-- 19 -->
<g id="19" class="node">
<title>19</title>
<polygon fill="#7c3aed" stroke="#5628a5" points="3060,-775.2 2694.15,-775.2 2694.15,-593 3060,-593 3060,-775.2"/>
<text xml:space="preserve" text-anchor="start" x="2761.95" y="-722.3" font-family="Arial" font-size="34.00" fill="#ffffff">Kairos frontend</text>
<text xml:space="preserve" text-anchor="start" x="2796.08" y="-702.55" font-family="Arial" font-size="19.00" fill="#ffffff">[Container: OCaml]</text>
<text xml:space="preserve" text-anchor="start" x="2722.95" y="-664.8" font-family="Arial" font-size="24.00" fill="#ffffff">Parses the surface language</text>
<text xml:space="preserve" text-anchor="start" x="2726.7" y="-640.8" font-family="Arial" font-size="24.00" fill="#ffffff">and elaborates it to the core</text>
<text xml:space="preserve" text-anchor="start" x="2779.58" y="-616.8" font-family="Arial" font-size="24.00" fill="#ffffff">verification model.</text>
</g>
<!-- 10&#45;&gt;19 -->
<g id="37" class="edge">
<title>10&#45;&gt;19</title>
<path fill="none" stroke="#444444" stroke-dasharray="5,2" d="M1803.01,-789.68C1844.58,-736.78 1900.13,-681.06 1965.3,-652.1 2195.6,-549.76 2491.9,-587.16 2682.92,-630.03"/>
<polygon fill="#444444" stroke="#444444" points="2681.92,-633.39 2692.45,-632.19 2683.47,-626.56 2681.92,-633.39"/>
<text xml:space="preserve" text-anchor="start" x="1999.05" y="-711.35" font-family="Arial" font-size="24.00" fill="#444444">Requests parsing,</text>
<text xml:space="preserve" text-anchor="start" x="1969.8" y="-684.35" font-family="Arial" font-size="24.00" fill="#444444">elaboration, and source</text>
<text xml:space="preserve" text-anchor="start" x="2042.18" y="-657.35" font-family="Arial" font-size="24.00" fill="#444444">inspection</text>
</g>
<!-- 10&#45;&gt;21 -->
<g id="40" class="edge">
<title>10&#45;&gt;21</title>
<path fill="none" stroke="#444444" stroke-dasharray="5,2" d="M1929.52,-953.38C1941.62,-955.35 1953.61,-957.27 1965.3,-959.1 2288.51,-1009.72 2367.8,-1039.15 2694.15,-1062.1 2856.35,-1073.5 2897.4,-1062.44 3060,-1062.1 3076.15,-1062.07 3092.92,-1062.02 3109.74,-1061.97"/>
<polygon fill="#444444" stroke="#444444" points="3109.29,-1065.47 3119.28,-1061.93 3109.27,-1058.47 3109.29,-1065.47"/>
<text xml:space="preserve" text-anchor="start" x="2353.35" y="-1118.25" font-family="Arial" font-size="24.00" fill="#444444">Builds the reference</text>
<text xml:space="preserve" text-anchor="start" x="2323.35" y="-1091.25" font-family="Arial" font-size="24.00" fill="#444444">product and instrumented</text>
<text xml:space="preserve" text-anchor="start" x="2448.98" y="-1064.25" font-family="Arial" font-size="24.00" fill="#444444">IR</text>
</g>
<!-- 10&#45;&gt;25 -->
<g id="41" class="edge">
<title>10&#45;&gt;25</title>
<path fill="none" stroke="#444444" stroke-dasharray="5,2" d="M1929.58,-849.96C2063.26,-806.43 2214.3,-756.2 2227.8,-747.1 2248.19,-733.36 2241.46,-715.37 2263.8,-705.1 2423.03,-631.86 2508.8,-613.38 2658.15,-705.1 2688.3,-723.62 2664.74,-756.43 2694.15,-776.1 2804.64,-850.02 3755.33,-850.42 3886.95,-869.1 3894.96,-870.24 3903.11,-871.49 3911.33,-872.82"/>
<polygon fill="#444444" stroke="#444444" points="3910.65,-876.26 3921.09,-874.44 3911.8,-869.35 3910.65,-876.26"/>
<text xml:space="preserve" text-anchor="start" x="2752.2" y="-863.27" font-family="Arial" font-size="24.00" fill="#444444">Builds kernel exchange</text>
<text xml:space="preserve" text-anchor="start" x="2834.7" y="-836.27" font-family="Arial" font-size="24.00" fill="#444444">artifacts</text>
</g>
<!-- 28 -->
<g id="28" class="node">
<title>28</title>
<polygon fill="#be123c" stroke="#850c2a" points="2658.15,-1402.2 2263.8,-1402.2 2263.8,-1220 2658.15,-1220 2658.15,-1402.2"/>
<text xml:space="preserve" text-anchor="start" x="2348.48" y="-1349.3" font-family="Arial" font-size="34.00" fill="#ffffff">Why3 backend</text>
<text xml:space="preserve" text-anchor="start" x="2347.73" y="-1329.55" font-family="Arial" font-size="19.00" fill="#ffffff">[Container: OCaml / Why3]</text>
<text xml:space="preserve" text-anchor="start" x="2314.73" y="-1291.8" font-family="Arial" font-size="24.00" fill="#ffffff">Translates completed proof</text>
<text xml:space="preserve" text-anchor="start" x="2292.6" y="-1267.8" font-family="Arial" font-size="24.00" fill="#ffffff">plans to WhyML and calls proof</text>
<text xml:space="preserve" text-anchor="start" x="2413.35" y="-1243.8" font-family="Arial" font-size="24.00" fill="#ffffff">services.</text>
</g>
<!-- 10&#45;&gt;28 -->
<g id="43" class="edge">
<title>10&#45;&gt;28</title>
<path fill="none" stroke="#444444" stroke-dasharray="5,2" d="M1897.44,-1044.56C1919.9,-1059.18 1942.88,-1073.38 1965.3,-1086.1 2056.95,-1138.11 2162.8,-1187.57 2253,-1226.8"/>
<polygon fill="#444444" stroke="#444444" points="2251.4,-1229.92 2261.97,-1230.69 2254.19,-1223.5 2251.4,-1229.92"/>
<text xml:space="preserve" text-anchor="start" x="1980.3" y="-1243.36" font-family="Arial" font-size="24.00" fill="#444444">Requests Why3 proof</text>
<text xml:space="preserve" text-anchor="start" x="1965.3" y="-1216.36" font-family="Arial" font-size="24.00" fill="#444444">projection and execution</text>
</g>
<!-- 29 -->
<g id="29" class="node">
<title>29</title>
<polygon fill="#be123c" stroke="#850c2a" points="3886.95,-1586.2 3542.1,-1586.2 3542.1,-1404 3886.95,-1404 3886.95,-1586.2"/>
<text xml:space="preserve" text-anchor="start" x="3633.15" y="-1533.3" font-family="Arial" font-size="34.00" fill="#ffffff">C backend</text>
<text xml:space="preserve" text-anchor="start" x="3618.9" y="-1513.55" font-family="Arial" font-size="19.00" fill="#ffffff">[Container: OCaml / C]</text>
<text xml:space="preserve" text-anchor="start" x="3570.9" y="-1475.8" font-family="Arial" font-size="24.00" fill="#ffffff">Projects normalized Kairos</text>
<text xml:space="preserve" text-anchor="start" x="3576.9" y="-1451.8" font-family="Arial" font-size="24.00" fill="#ffffff">programs to portable C99</text>
<text xml:space="preserve" text-anchor="start" x="3689.78" y="-1427.8" font-family="Arial" font-size="24.00" fill="#ffffff">files.</text>
</g>
<!-- 10&#45;&gt;29 -->
<g id="38" class="edge">
<title>10&#45;&gt;29</title>
<path fill="none" stroke="#444444" stroke-dasharray="5,2" d="M1784.89,-1044.6C1827.88,-1120.96 1890.36,-1215.94 1965.3,-1283.1 2076.62,-1382.87 2122.78,-1388.52 2263.8,-1438.1 2599.58,-1556.15 2704.16,-1531.99 3060,-1524.1 3219.01,-1520.57 3399.62,-1512.23 3530.61,-1505.39"/>
<polygon fill="#444444" stroke="#444444" points="3530.63,-1508.89 3540.43,-1504.87 3530.26,-1501.9 3530.63,-1508.89"/>
<text xml:space="preserve" text-anchor="start" x="2350.73" y="-1560.58" font-family="Arial" font-size="24.00" fill="#444444">Requests portable C</text>
<text xml:space="preserve" text-anchor="start" x="2403.6" y="-1533.58" font-family="Arial" font-size="24.00" fill="#444444">generation</text>
</g>
<!-- 30 -->
<g id="30" class="node">
<title>30</title>
<polygon fill="#be123c" stroke="#850c2a" points="2639.03,-923.2 2282.93,-923.2 2282.93,-741 2639.03,-741 2639.03,-923.2"/>
<text xml:space="preserve" text-anchor="start" x="2330.48" y="-870.3" font-family="Arial" font-size="34.00" fill="#ffffff">Artifact renderers</text>
<text xml:space="preserve" text-anchor="start" x="2318.85" y="-850.55" font-family="Arial" font-size="19.00" fill="#ffffff">[Container: OCaml / DOT / JSON]</text>
<text xml:space="preserve" text-anchor="start" x="2311.73" y="-812.8" font-family="Arial" font-size="24.00" fill="#ffffff">Renders graphs, text views,</text>
<text xml:space="preserve" text-anchor="start" x="2312.85" y="-788.8" font-family="Arial" font-size="24.00" fill="#ffffff">cost reports, and diagnostic</text>
<text xml:space="preserve" text-anchor="start" x="2415.23" y="-764.8" font-family="Arial" font-size="24.00" fill="#ffffff">artifacts.</text>
</g>
<!-- 10&#45;&gt;30 -->
<g id="42" class="edge">
<title>10&#45;&gt;30</title>
<path fill="none" stroke="#444444" stroke-dasharray="5,2" d="M1929.39,-893.14C2036.76,-880.79 2166.72,-865.84 2271.15,-853.82"/>
<polygon fill="#444444" stroke="#444444" points="2271.42,-857.31 2280.96,-852.69 2270.62,-850.36 2271.42,-857.31"/>
<text xml:space="preserve" text-anchor="start" x="1987.05" y="-919.43" font-family="Arial" font-size="24.00" fill="#444444">Builds human&#45;facing</text>
<text xml:space="preserve" text-anchor="start" x="2056.8" y="-892.43" font-family="Arial" font-size="24.00" fill="#444444">outputs</text>
</g>
<!-- 31 -->
<g id="31" class="node">
<title>31</title>
<polygon fill="#6b7280" stroke="#4a4f59" points="3506.1,-1825.2 3096,-1825.2 3096,-1585 3506.1,-1585 3506.1,-1825.2"/>
<text xml:space="preserve" text-anchor="start" x="3206.55" y="-1772.3" font-family="Arial" font-size="34.00" fill="#ffffff">External tool</text>
<text xml:space="preserve" text-anchor="start" x="3235.05" y="-1738.3" font-family="Arial" font-size="34.00" fill="#ffffff">adapters</text>
<text xml:space="preserve" text-anchor="start" x="3220.05" y="-1718.55" font-family="Arial" font-size="19.00" fill="#ffffff">[Container: OCaml]</text>
<text xml:space="preserve" text-anchor="start" x="3124.8" y="-1680.8" font-family="Arial" font-size="24.00" fill="#ffffff">Narrow Automata_exchange and</text>
<text xml:space="preserve" text-anchor="start" x="3169.8" y="-1656.8" font-family="Arial" font-size="24.00" fill="#ffffff">Proof_backend_contract</text>
<text xml:space="preserve" text-anchor="start" x="3133.43" y="-1632.8" font-family="Arial" font-size="24.00" fill="#ffffff">boundaries for Spot, Why3, Z3,</text>
<text xml:space="preserve" text-anchor="start" x="3194.18" y="-1608.8" font-family="Arial" font-size="24.00" fill="#ffffff">and timing services.</text>
</g>
<!-- 10&#45;&gt;31 -->
<g id="44" class="edge">
<title>10&#45;&gt;31</title>
<path fill="none" stroke="#444444" stroke-dasharray="5,2" d="M1732.23,-1044.46C1752.32,-1193.04 1808.54,-1434.91 1965.3,-1565.1 2281.41,-1827.63 2795.43,-1794.89 3084.66,-1749.11"/>
<polygon fill="#444444" stroke="#444444" points="3084.89,-1752.62 3094.21,-1747.58 3083.78,-1745.71 3084.89,-1752.62"/>
<text xml:space="preserve" text-anchor="start" x="2355.98" y="-1838.88" font-family="Arial" font-size="24.00" fill="#444444">Requests automata</text>
<text xml:space="preserve" text-anchor="start" x="2338.35" y="-1811.88" font-family="Arial" font-size="24.00" fill="#444444">production, timing, and</text>
<text xml:space="preserve" text-anchor="start" x="2385.6" y="-1784.88" font-family="Arial" font-size="24.00" fill="#444444">proof services</text>
</g>
<!-- 20 -->
<g id="20" class="node">
<title>20</title>
<polygon fill="#166534" stroke="#0f4624" points="4987.65,-1254.2 4636.8,-1254.2 4636.8,-1072 4987.65,-1072 4987.65,-1254.2"/>
<text xml:space="preserve" text-anchor="start" x="4715.85" y="-1201.3" font-family="Arial" font-size="34.00" fill="#ffffff">Domain core</text>
<text xml:space="preserve" text-anchor="start" x="4731.23" y="-1181.55" font-family="Arial" font-size="19.00" fill="#ffffff">[Container: OCaml]</text>
<text xml:space="preserve" text-anchor="start" x="4683.23" y="-1143.8" font-family="Arial" font-size="24.00" fill="#ffffff">Core syntax, verification</text>
<text xml:space="preserve" text-anchor="start" x="4665.98" y="-1119.8" font-family="Arial" font-size="24.00" fill="#ffffff">model, shared IR, temporal</text>
<text xml:space="preserve" text-anchor="start" x="4665.6" y="-1095.8" font-family="Arial" font-size="24.00" fill="#ffffff">layout, and formula utilities.</text>
</g>
<!-- 19&#45;&gt;20 -->
<g id="39" class="edge">
<title>19&#45;&gt;20</title>
<path fill="none" stroke="#444444" stroke-dasharray="5,2" d="M3060.3,-665.06C3338.14,-642.78 3880.36,-626.08 4306.8,-777.1 4471.94,-835.58 4626.38,-970.14 4719.8,-1063.82"/>
<polygon fill="#444444" stroke="#444444" points="4717.22,-1066.19 4726.75,-1070.83 4722.19,-1061.26 4717.22,-1066.19"/>
<text xml:space="preserve" text-anchor="start" x="3663.53" y="-710.64" font-family="Arial" font-size="24.00" fill="#444444">Produces</text>
<text xml:space="preserve" text-anchor="start" x="3615.53" y="-683.64" font-family="Arial" font-size="24.00" fill="#444444">Verification_model</text>
</g>
<!-- 21&#45;&gt;20 -->
<g id="47" class="edge">
<title>21&#45;&gt;20</title>
<path fill="none" stroke="#444444" stroke-dasharray="5,2" d="M3481.3,-1123.03C3501.61,-1128.27 3522.17,-1132.82 3542.1,-1136.1 3922.77,-1198.81 4376.28,-1188.38 4625.01,-1175.52"/>
<polygon fill="#444444" stroke="#444444" points="4625.01,-1179.02 4634.82,-1175 4624.65,-1172.03 4625.01,-1179.02"/>
<text xml:space="preserve" text-anchor="start" x="3976.5" y="-1217.51" font-family="Arial" font-size="24.00" fill="#444444">Uses core syntax, IR, and</text>
<text xml:space="preserve" text-anchor="start" x="4032" y="-1190.51" font-family="Arial" font-size="24.00" fill="#444444">temporal layout</text>
</g>
<!-- 21&#45;&gt;25 -->
<g id="69" class="edge">
<title>21&#45;&gt;25</title>
<path fill="none" stroke="#444444" stroke-dasharray="5,2" d="M3481.26,-1045.59C3597.7,-1033.61 3752.31,-1014.11 3886.95,-985.1 3895.07,-983.35 3903.31,-981.45 3911.62,-979.43"/>
<polygon fill="#444444" stroke="#444444" points="3912.23,-982.88 3921.09,-977.08 3910.54,-976.09 3912.23,-982.88"/>
<text xml:space="preserve" text-anchor="start" x="3608.4" y="-1096.71" font-family="Arial" font-size="24.00" fill="#444444">Provides temporally</text>
<text xml:space="preserve" text-anchor="start" x="3623.03" y="-1069.71" font-family="Arial" font-size="24.00" fill="#444444">explicit reference</text>
<text xml:space="preserve" text-anchor="start" x="3668.03" y="-1042.71" font-family="Arial" font-size="24.00" fill="#444444">formulas</text>
</g>
<!-- 25&#45;&gt;20 -->
<g id="48" class="edge">
<title>25&#45;&gt;20</title>
<path fill="none" stroke="#444444" stroke-dasharray="5,2" d="M4307.26,-984.08C4406.56,-1019.36 4527.34,-1062.26 4625.76,-1097.22"/>
<polygon fill="#444444" stroke="#444444" points="4624.41,-1100.45 4635.01,-1100.5 4626.75,-1093.86 4624.41,-1100.45"/>
<text xml:space="preserve" text-anchor="start" x="4342.8" y="-1115.46" font-family="Arial" font-size="24.00" fill="#444444">Serializes core formulas</text>
<text xml:space="preserve" text-anchor="start" x="4392.3" y="-1088.46" font-family="Arial" font-size="24.00" fill="#444444">and signatures</text>
</g>
<!-- 25&#45;&gt;21 -->
<g id="49" class="edge">
<title>25&#45;&gt;21</title>
<path fill="none" stroke="#444444" stroke-dasharray="5,2" d="M3922.76,-891.31C3809.98,-882.83 3665.6,-882.78 3542.1,-917.1 3525.14,-921.81 3508.16,-928.08 3491.53,-935.36"/>
<polygon fill="#444444" stroke="#444444" points="3490.27,-932.09 3482.6,-939.4 3493.15,-938.47 3490.27,-932.09"/>
<text xml:space="preserve" text-anchor="start" x="3565.65" y="-949.35" font-family="Arial" font-size="24.00" fill="#444444">Uses product and automata</text>
<text xml:space="preserve" text-anchor="start" x="3671.03" y="-922.35" font-family="Arial" font-size="24.00" fill="#444444">analysis</text>
</g>
<!-- 28&#45;&gt;20 -->
<g id="50" class="edge">
<title>28&#45;&gt;20</title>
<path fill="none" stroke="#444444" stroke-dasharray="5,2" d="M2658.56,-1315.31C2996.53,-1320.32 3709.04,-1321.15 4306.8,-1257.1 4413.09,-1245.71 4530.57,-1224.34 4625.39,-1204.86"/>
<polygon fill="#444444" stroke="#444444" points="4625.98,-1208.31 4635.06,-1202.86 4624.56,-1201.46 4625.98,-1208.31"/>
<text xml:space="preserve" text-anchor="start" x="3611.03" y="-1339.56" font-family="Arial" font-size="24.00" fill="#444444">Compiles formulas,</text>
<text xml:space="preserve" text-anchor="start" x="3596.03" y="-1312.56" font-family="Arial" font-size="24.00" fill="#444444">statements, and types</text>
</g>
<!-- 28&#45;&gt;21 -->
<g id="51" class="edge">
<title>28&#45;&gt;21</title>
<path fill="none" stroke="#444444" stroke-dasharray="5,2" d="M2658.47,-1252.49C2794.72,-1211.84 2975.19,-1158.01 3110.02,-1117.79"/>
<polygon fill="#444444" stroke="#444444" points="3110.83,-1121.2 3119.42,-1114.98 3108.83,-1114.49 3110.83,-1121.2"/>
<text xml:space="preserve" text-anchor="start" x="2712.83" y="-1242.48" font-family="Arial" font-size="24.00" fill="#444444">Consumes product summaries</text>
</g>
<!-- 28&#45;&gt;31 -->
<g id="52" class="edge">
<title>28&#45;&gt;31</title>
<path fill="none" stroke="#444444" stroke-dasharray="5,2" d="M2656.62,-1402.61C2784.93,-1462.93 2953.06,-1541.97 3085.27,-1604.13"/>
<polygon fill="#444444" stroke="#444444" points="3083.62,-1607.22 3094.16,-1608.31 3086.6,-1600.88 3083.62,-1607.22"/>
<text xml:space="preserve" text-anchor="start" x="2768.7" y="-1593.93" font-family="Arial" font-size="24.00" fill="#444444">Calls Why3 services</text>
</g>
<!-- 29&#45;&gt;20 -->
<g id="53" class="edge">
<title>29&#45;&gt;20</title>
<path fill="none" stroke="#444444" stroke-dasharray="5,2" d="M3887.41,-1483.38C4070.87,-1465.83 4366.74,-1422.81 4600.8,-1319.1 4634.43,-1304.2 4667.81,-1283.14 4697.75,-1261.31"/>
<polygon fill="#444444" stroke="#444444" points="4699.76,-1264.17 4705.71,-1255.41 4695.59,-1258.55 4699.76,-1264.17"/>
<text xml:space="preserve" text-anchor="start" x="4002" y="-1510.77" font-family="Arial" font-size="24.00" fill="#444444">Compiles normalized</text>
<text xml:space="preserve" text-anchor="start" x="4027.12" y="-1483.77" font-family="Arial" font-size="24.00" fill="#444444">program models</text>
</g>
<!-- 30&#45;&gt;21 -->
<g id="54" class="edge">
<title>30&#45;&gt;21</title>
<path fill="none" stroke="#444444" stroke-dasharray="5,2" d="M2639.44,-901.82C2657.79,-908.05 2676.26,-913.95 2694.15,-919.1 2853.65,-965.03 2898.67,-955.1 3060,-994.1 3076.21,-998.02 3092.99,-1002.28 3109.79,-1006.69"/>
<polygon fill="#444444" stroke="#444444" points="3108.8,-1010.04 3119.36,-1009.21 3110.59,-1003.28 3108.8,-1010.04"/>
<text xml:space="preserve" text-anchor="start" x="2763.83" y="-1026.35" font-family="Arial" font-size="24.00" fill="#444444">Renders product and</text>
<text xml:space="preserve" text-anchor="start" x="2775.45" y="-999.35" font-family="Arial" font-size="24.00" fill="#444444">automata analyses</text>
</g>
<!-- 31&#45;&gt;3 -->
<g id="55" class="edge">
<title>31&#45;&gt;3</title>
<path fill="none" stroke="#444444" stroke-dasharray="5,2" d="M3337.06,-1825.64C3373.29,-1932.01 3439.23,-2085.24 3542.1,-2185.1 3649.28,-2289.14 3804.75,-2357.58 3926.53,-2398.8"/>
<polygon fill="#444444" stroke="#444444" points="3925.06,-2402 3935.65,-2401.85 3927.28,-2395.36 3925.06,-2402"/>
<text xml:space="preserve" text-anchor="start" x="3579.9" y="-2385.49" font-family="Arial" font-size="24.00" fill="#444444">Builds property automata</text>
</g>
<!-- 31&#45;&gt;4 -->
<g id="57" class="edge">
<title>31&#45;&gt;4</title>
<path fill="none" stroke="#444444" stroke-dasharray="5,2" d="M3413.43,-1825.41C3451.94,-1863.04 3496.84,-1902.84 3542.1,-1934.1 3662.12,-2016.98 3811.07,-2087.47 3926.85,-2136.19"/>
<polygon fill="#444444" stroke="#444444" points="3925.27,-2139.32 3935.85,-2139.95 3927.98,-2132.86 3925.27,-2139.32"/>
<text xml:space="preserve" text-anchor="start" x="3584.4" y="-2145.09" font-family="Arial" font-size="24.00" fill="#444444">Builds and proves Why3</text>
<text xml:space="preserve" text-anchor="start" x="3686.4" y="-2118.09" font-family="Arial" font-size="24.00" fill="#444444">tasks</text>
</g>
<!-- 31&#45;&gt;5 -->
<g id="59" class="edge">
<title>31&#45;&gt;5</title>
<path fill="none" stroke="#444444" stroke-dasharray="5,2" d="M3506.38,-1770.79C3635.77,-1812.39 3801.79,-1865.76 3927.56,-1906.2"/>
<polygon fill="#444444" stroke="#444444" points="3926.42,-1909.51 3937.01,-1909.24 3928.56,-1902.85 3926.42,-1909.51"/>
<text xml:space="preserve" text-anchor="start" x="3568.65" y="-1894.23" font-family="Arial" font-size="24.00" fill="#444444">Runs selected SMT checks</text>
</g>
<!-- 8&#45;&gt;10 -->
<g id="35" class="edge">
<title>8&#45;&gt;10</title>
<path fill="none" stroke="#444444" stroke-dasharray="5,2" d="M1153.33,-938.56C1259.33,-934.54 1389.98,-929.58 1499.01,-925.45"/>
<polygon fill="#444444" stroke="#444444" points="1499.14,-928.95 1509,-925.07 1498.87,-921.95 1499.14,-928.95"/>
<text xml:space="preserve" text-anchor="start" x="1189.2" y="-968.97" font-family="Arial" font-size="24.00" fill="#444444">Invokes Kairos_engine.Api</text>
<text xml:space="preserve" text-anchor="start" x="1242.83" y="-941.97" font-family="Arial" font-size="24.00" fill="#444444">and Api.Contract</text>
</g>
<!-- 9&#45;&gt;10 -->
<g id="36" class="edge">
<title>9&#45;&gt;10</title>
<path fill="none" stroke="#444444" stroke-dasharray="5,2" d="M1140.49,-746.85C1248.85,-778.74 1386.06,-819.11 1499.67,-852.53"/>
<polygon fill="#444444" stroke="#444444" points="1498.56,-855.85 1509.14,-855.32 1500.54,-849.14 1498.56,-855.85"/>
<text xml:space="preserve" text-anchor="start" x="1189.2" y="-876.57" font-family="Arial" font-size="24.00" fill="#444444">Invokes Kairos_engine.Api</text>
<text xml:space="preserve" text-anchor="start" x="1242.83" y="-849.57" font-family="Arial" font-size="24.00" fill="#444444">and Api.Contract</text>
</g>
</g>
</svg>
