<?xml version="1.0" encoding="UTF-8" standalone="no"?>
<!DOCTYPE svg PUBLIC "-//W3C//DTD SVG 1.1//EN"
 "http://www.w3.org/Graphics/SVG/1.1/DTD/svg11.dtd">
<!-- Generated by graphviz version 14.1.3 (20260303.0454)
 -->
<!-- Title: KairosCorrectionPath Pages: 1 -->
<svg width="712pt" height="954pt"
 viewBox="0.00 0.00 712.00 954.00" xmlns="http://www.w3.org/2000/svg" xmlns:xlink="http://www.w3.org/1999/xlink">
<g id="graph0" class="graph" transform="scale(1 1) rotate(0) translate(18 936.03)">
<title>KairosCorrectionPath</title>
<polygon fill="white" stroke="none" points="-18,18 -18,-936.03 694.28,-936.03 694.28,18 -18,18"/>
<text xml:space="preserve" text-anchor="middle" x="338.14" y="-900.73" font-family="Helvetica,sans-Serif" font-size="14.00">Essential correction boundary for Rocq adequacy</text>
<!-- surface -->
<g id="node1" class="node">
<title>surface</title>
<path fill="#ede9fe" stroke="#1f2937" d="M179.65,-895.03C179.65,-895.03 16.13,-895.03 16.13,-895.03 10.13,-895.03 4.12,-889.03 4.12,-883.03 4.12,-883.03 4.12,-870.01 4.12,-870.01 4.12,-864.01 10.12,-858.01 16.12,-858.01 16.12,-858.01 179.65,-858.01 179.65,-858.01 185.65,-858.01 191.65,-864.01 191.65,-870.01 191.65,-870.01 191.65,-883.03 191.65,-883.03 191.65,-889.03 185.65,-895.03 179.65,-895.03"/>
<text xml:space="preserve" text-anchor="middle" x="97.89" y="-877.87" font-family="Helvetica,sans-Serif" font-size="12.00">Surface Kairos</text>
<text xml:space="preserve" text-anchor="middle" x="97.89" y="-865.12" font-family="Helvetica,sans-Serif" font-size="12.00">syntax sugar, observers, actions</text>
</g>
<!-- elaboration -->
<g id="node2" class="node">
<title>elaboration</title>
<path fill="#ddd6fe" stroke="#1f2937" d="M155.65,-817.01C155.65,-817.01 40.12,-817.01 40.12,-817.01 34.12,-817.01 28.12,-811.01 28.12,-805.01 28.12,-805.01 28.12,-779.24 28.12,-779.24 28.12,-773.24 34.12,-767.24 40.12,-767.24 40.12,-767.24 155.65,-767.24 155.65,-767.24 161.65,-767.24 167.65,-773.24 167.65,-779.24 167.65,-779.24 167.65,-805.01 167.65,-805.01 167.65,-811.01 161.65,-817.01 155.65,-817.01"/>
<text xml:space="preserve" text-anchor="middle" x="97.89" y="-799.85" font-family="Helvetica,sans-Serif" font-size="12.00">Elaboration frontier</text>
<text xml:space="preserve" text-anchor="middle" x="97.89" y="-787.1" font-family="Helvetica,sans-Serif" font-size="12.00">surface &#45;&gt; core model</text>
<text xml:space="preserve" text-anchor="middle" x="97.89" y="-774.35" font-family="Helvetica,sans-Serif" font-size="12.00">not yet the Rocq kernel</text>
</g>
<!-- surface&#45;&gt;elaboration -->
<g id="edge1" class="edge">
<title>surface&#45;&gt;elaboration</title>
<path fill="none" stroke="#374151" d="M97.89,-857.65C97.89,-848.59 97.89,-837.28 97.89,-826.68"/>
<polygon fill="#374151" stroke="#374151" points="100.69,-826.74 97.89,-818.74 95.09,-826.74 100.69,-826.74"/>
</g>
<!-- core -->
<g id="node3" class="node">
<title>core</title>
<path fill="#dcfce7" stroke="#1f2937" stroke-width="2" d="M183.78,-726.24C183.78,-726.24 12,-726.24 12,-726.24 6,-726.24 0,-720.24 0,-714.24 0,-714.24 0,-701.22 0,-701.22 0,-695.22 6,-689.22 12,-689.22 12,-689.22 183.78,-689.22 183.78,-689.22 189.78,-689.22 195.78,-695.22 195.78,-701.22 195.78,-701.22 195.78,-714.24 195.78,-714.24 195.78,-720.24 189.78,-726.24 183.78,-726.24"/>
<text xml:space="preserve" text-anchor="middle" x="97.89" y="-709.08" font-family="Helvetica,sans-Serif" font-size="12.00">Core program model</text>
<text xml:space="preserve" text-anchor="middle" x="97.89" y="-696.33" font-family="Helvetica,sans-Serif" font-size="12.00">Verification_model + Core_syntax</text>
</g>
<!-- elaboration&#45;&gt;core -->
<g id="edge2" class="edge">
<title>elaboration&#45;&gt;core</title>
<path fill="none" stroke="#374151" d="M97.89,-766.85C97.89,-757.31 97.89,-746.31 97.89,-736.45"/>
<polygon fill="#374151" stroke="#374151" points="100.69,-736.6 97.89,-728.6 95.09,-736.6 100.69,-736.6"/>
</g>
<!-- product -->
<g id="node5" class="node">
<title>product</title>
<path fill="#bbf7d0" stroke="#1f2937" stroke-width="3" d="M181.9,-648.22C181.9,-648.22 13.87,-648.22 13.87,-648.22 7.87,-648.22 1.87,-642.22 1.87,-636.22 1.87,-636.22 1.87,-610.45 1.87,-610.45 1.87,-604.45 7.87,-598.45 13.87,-598.45 13.87,-598.45 181.9,-598.45 181.9,-598.45 187.9,-598.45 193.9,-604.45 193.9,-610.45 193.9,-610.45 193.9,-636.22 193.9,-636.22 193.9,-642.22 187.9,-648.22 181.9,-648.22"/>
<text xml:space="preserve" text-anchor="middle" x="97.89" y="-631.06" font-family="Helvetica,sans-Serif" font-size="12.00">Reference product</text>
<text xml:space="preserve" text-anchor="middle" x="97.89" y="-618.31" font-family="Helvetica,sans-Serif" font-size="12.00">program states x automata states</text>
<text xml:space="preserve" text-anchor="middle" x="97.89" y="-605.56" font-family="Helvetica,sans-Serif" font-size="12.00">Product_build / From_model</text>
</g>
<!-- core&#45;&gt;product -->
<g id="edge3" class="edge">
<title>core&#45;&gt;product</title>
<path fill="none" stroke="#374151" d="M97.89,-688.45C97.89,-679.75 97.89,-669.06 97.89,-658.92"/>
<polygon fill="#374151" stroke="#374151" points="100.69,-658.96 97.89,-650.96 95.09,-658.96 100.69,-658.96"/>
</g>
<!-- automata -->
<g id="node4" class="node">
<title>automata</title>
<path fill="#e5e7eb" stroke="#1f2937" d="M189.53,-49.77C189.53,-49.77 22.25,-49.77 22.25,-49.77 16.25,-49.77 10.25,-43.77 10.25,-37.77 10.25,-37.77 10.25,-12 10.25,-12 10.25,-6 16.25,0 22.25,0 22.25,0 189.53,0 189.53,0 195.53,0 201.53,-6 201.53,-12 201.53,-12 201.53,-37.77 201.53,-37.77 201.53,-43.77 195.53,-49.77 189.53,-49.77"/>
<text xml:space="preserve" text-anchor="middle" x="105.89" y="-32.61" font-family="Helvetica,sans-Serif" font-size="12.00">Assumption/guarantee automata</text>
<text xml:space="preserve" text-anchor="middle" x="105.89" y="-19.86" font-family="Helvetica,sans-Serif" font-size="12.00">external parameters of the kernel</text>
<text xml:space="preserve" text-anchor="middle" x="105.89" y="-7.11" font-family="Helvetica,sans-Serif" font-size="12.00">Spot is outside this box</text>
</g>
<!-- automata&#45;&gt;product -->
<g id="edge4" class="edge">
<title>automata&#45;&gt;product</title>
<path fill="none" stroke="#374151" d="M95.53,-50.13C87.91,-70.15 78.89,-99.51 78.89,-126.2 78.89,-533.57 78.89,-533.57 78.89,-533.57 78.89,-551.75 82.75,-571.57 86.99,-587.86"/>
<polygon fill="#374151" stroke="#374151" points="84.28,-588.58 89.1,-595.55 89.68,-587.09 84.28,-588.58"/>
</g>
<!-- prepost -->
<g id="node6" class="node">
<title>prepost</title>
<path fill="#86efac" stroke="#1f2937" stroke-width="3" d="M359.65,-557.45C359.65,-557.45 184.12,-557.45 184.12,-557.45 178.12,-557.45 172.12,-551.45 172.12,-545.45 172.12,-545.45 172.12,-519.68 172.12,-519.68 172.12,-513.68 178.12,-507.68 184.12,-507.68 184.12,-507.68 359.65,-507.68 359.65,-507.68 365.65,-507.68 371.65,-513.68 371.65,-519.68 371.65,-519.68 371.65,-545.45 371.65,-545.45 371.65,-551.45 365.65,-557.45 359.65,-557.45"/>
<text xml:space="preserve" text-anchor="middle" x="271.89" y="-540.29" font-family="Helvetica,sans-Serif" font-size="12.00">Essential obligation shaping</text>
<text xml:space="preserve" text-anchor="middle" x="271.89" y="-527.54" font-family="Helvetica,sans-Serif" font-size="12.00">Pre / Post</text>
<text xml:space="preserve" text-anchor="middle" x="271.89" y="-514.79" font-family="Helvetica,sans-Serif" font-size="12.00">source and destination obligations</text>
</g>
<!-- product&#45;&gt;prepost -->
<g id="edge5" class="edge">
<title>product&#45;&gt;prepost</title>
<path fill="none" stroke="#374151" d="M147.29,-597.14C168.04,-586.55 192.33,-574.16 213.93,-563.14"/>
<polygon fill="#374151" stroke="#374151" points="215.17,-565.65 221.02,-559.52 212.62,-560.66 215.17,-565.65"/>
</g>
<!-- reachability -->
<g id="node7" class="node">
<title>reachability</title>
<path fill="#fde68a" stroke="#1f2937" stroke-width="2" d="M353.65,-456.43C353.65,-456.43 190.12,-456.43 190.12,-456.43 184.12,-456.43 178.12,-450.43 178.12,-444.43 178.12,-444.43 178.12,-418.66 178.12,-418.66 178.12,-412.66 184.12,-406.66 190.12,-406.66 190.12,-406.66 353.65,-406.66 353.65,-406.66 359.65,-406.66 365.65,-412.66 365.65,-418.66 365.65,-418.66 365.65,-444.43 365.65,-444.43 365.65,-450.43 359.65,-456.43 353.65,-456.43"/>
<text xml:space="preserve" text-anchor="middle" x="271.89" y="-439.27" font-family="Helvetica,sans-Serif" font-size="12.00">Reachability invariant extension</text>
<text xml:space="preserve" text-anchor="middle" x="271.89" y="-426.52" font-family="Helvetica,sans-Serif" font-size="12.00">Product_reachability</text>
<text xml:space="preserve" text-anchor="middle" x="271.89" y="-413.77" font-family="Helvetica,sans-Serif" font-size="12.00">not pruning</text>
</g>
<!-- prepost&#45;&gt;reachability -->
<g id="edge9" class="edge">
<title>prepost&#45;&gt;reachability</title>
<path fill="none" stroke="#374151" stroke-dasharray="5,2" d="M271.89,-506.33C271.89,-494.25 271.89,-479.6 271.89,-466.56"/>
<polygon fill="#374151" stroke="#374151" points="274.69,-466.92 271.89,-458.92 269.09,-466.92 274.69,-466.92"/>
<text xml:space="preserve" text-anchor="middle" x="327.39" y="-478.18" font-family="Helvetica,sans-Serif" font-size="10.00">optional invariant scheme</text>
</g>
<!-- temporal -->
<g id="node8" class="node">
<title>temporal</title>
<path fill="#86efac" stroke="#1f2937" stroke-width="3" d="M582.53,-456.43C582.53,-456.43 409.25,-456.43 409.25,-456.43 403.25,-456.43 397.25,-450.43 397.25,-444.43 397.25,-444.43 397.25,-418.66 397.25,-418.66 397.25,-412.66 403.25,-406.66 409.25,-406.66 409.25,-406.66 582.53,-406.66 582.53,-406.66 588.53,-406.66 594.53,-412.66 594.53,-418.66 594.53,-418.66 594.53,-444.43 594.53,-444.43 594.53,-450.43 588.53,-456.43 582.53,-456.43"/>
<text xml:space="preserve" text-anchor="middle" x="495.89" y="-439.27" font-family="Helvetica,sans-Serif" font-size="12.00">Reference temporal normalization</text>
<text xml:space="preserve" text-anchor="middle" x="495.89" y="-426.52" font-family="Helvetica,sans-Serif" font-size="12.00">Temporal_lower</text>
<text xml:space="preserve" text-anchor="middle" x="495.89" y="-413.77" font-family="Helvetica,sans-Serif" font-size="12.00">pre/pre_k &#45;&gt; temporal layout</text>
</g>
<!-- prepost&#45;&gt;temporal -->
<g id="edge6" class="edge">
<title>prepost&#45;&gt;temporal</title>
<path fill="none" stroke="#374151" d="M345.18,-506.25C360.43,-500.5 376.3,-494.17 390.89,-487.68 407.95,-480.1 426.1,-470.97 442.43,-462.34"/>
<polygon fill="#374151" stroke="#374151" points="443.71,-464.83 449.45,-458.59 441.07,-459.89 443.71,-464.83"/>
</g>
<!-- obligations -->
<g id="node9" class="node">
<title>obligations</title>
<path fill="#4ade80" stroke="#1f2937" stroke-width="3" d="M379.78,-355.41C379.78,-355.41 262,-355.41 262,-355.41 256,-355.41 250,-349.41 250,-343.41 250,-343.41 250,-317.64 250,-317.64 250,-311.64 256,-305.64 262,-305.64 262,-305.64 379.78,-305.64 379.78,-305.64 385.78,-305.64 391.78,-311.64 391.78,-317.64 391.78,-317.64 391.78,-343.41 391.78,-343.41 391.78,-349.41 385.78,-355.41 379.78,-355.41"/>
<text xml:space="preserve" text-anchor="middle" x="320.89" y="-338.25" font-family="Helvetica,sans-Serif" font-size="12.00">Essential obligations</text>
<text xml:space="preserve" text-anchor="middle" x="320.89" y="-325.5" font-family="Helvetica,sans-Serif" font-size="12.00">correction / progression</text>
<text xml:space="preserve" text-anchor="middle" x="320.89" y="-312.75" font-family="Helvetica,sans-Serif" font-size="12.00">relative completeness</text>
</g>
<!-- reachability&#45;&gt;obligations -->
<g id="edge10" class="edge">
<title>reachability&#45;&gt;obligations</title>
<path fill="none" stroke="#374151" stroke-dasharray="5,2" d="M284.13,-405.82C290.22,-393.51 297.68,-378.44 304.28,-365.1"/>
<polygon fill="#374151" stroke="#374151" points="306.76,-366.4 307.8,-357.99 301.74,-363.92 306.76,-366.4"/>
</g>
<!-- temporal&#45;&gt;obligations -->
<g id="edge7" class="edge">
<title>temporal&#45;&gt;obligations</title>
<path fill="none" stroke="#374151" d="M451.28,-405.31C427.71,-391.97 398.64,-375.52 373.92,-361.54"/>
<polygon fill="#374151" stroke="#374151" points="375.38,-359.15 367.04,-357.64 372.63,-364.02 375.38,-359.15"/>
</g>
<!-- sharing -->
<g id="node12" class="node">
<title>sharing</title>
<path fill="#fef3c7" stroke="#1f2937" d="M625.53,-355.41C625.53,-355.41 452.25,-355.41 452.25,-355.41 446.25,-355.41 440.25,-349.41 440.25,-343.41 440.25,-343.41 440.25,-317.64 440.25,-317.64 440.25,-311.64 446.25,-305.64 452.25,-305.64 452.25,-305.64 625.53,-305.64 625.53,-305.64 631.53,-305.64 637.53,-311.64 637.53,-317.64 637.53,-317.64 637.53,-343.41 637.53,-343.41 637.53,-349.41 631.53,-355.41 625.53,-355.41"/>
<text xml:space="preserve" text-anchor="middle" x="538.89" y="-338.25" font-family="Helvetica,sans-Serif" font-size="12.00">Formula_sharing</text>
<text xml:space="preserve" text-anchor="middle" x="538.89" y="-325.5" font-family="Helvetica,sans-Serif" font-size="12.00">obligation&#45;preserving optimization</text>
<text xml:space="preserve" text-anchor="middle" x="538.89" y="-312.75" font-family="Helvetica,sans-Serif" font-size="12.00">not semantic</text>
</g>
<!-- temporal&#45;&gt;sharing -->
<g id="edge13" class="edge">
<title>temporal&#45;&gt;sharing</title>
<path fill="none" stroke="#374151" stroke-dasharray="5,2" d="M506.85,-405.31C512.28,-392.8 518.9,-377.56 524.71,-364.18"/>
<polygon fill="#374151" stroke="#374151" points="527.17,-365.54 527.79,-357.09 522.04,-363.31 527.17,-365.54"/>
<text xml:space="preserve" text-anchor="middle" x="581.3" y="-377.16" font-family="Helvetica,sans-Serif" font-size="10.00">may share identical formulas</text>
</g>
<!-- kernel_export -->
<g id="node10" class="node">
<title>kernel_export</title>
<path fill="#dbeafe" stroke="#1f2937" stroke-width="2" d="M280.03,-254.39C280.03,-254.39 139.75,-254.39 139.75,-254.39 133.75,-254.39 127.75,-248.39 127.75,-242.39 127.75,-242.39 127.75,-216.62 127.75,-216.62 127.75,-210.62 133.75,-204.62 139.75,-204.62 139.75,-204.62 280.03,-204.62 280.03,-204.62 286.03,-204.62 292.03,-210.62 292.03,-216.62 292.03,-216.62 292.03,-242.39 292.03,-242.39 292.03,-248.39 286.03,-254.39 280.03,-254.39"/>
<text xml:space="preserve" text-anchor="middle" x="209.89" y="-237.23" font-family="Helvetica,sans-Serif" font-size="12.00">Proof&#45;kernel export</text>
<text xml:space="preserve" text-anchor="middle" x="209.89" y="-224.48" font-family="Helvetica,sans-Serif" font-size="12.00">Proof_kernel_types.node_ir</text>
<text xml:space="preserve" text-anchor="middle" x="209.89" y="-211.73" font-family="Helvetica,sans-Serif" font-size="12.00">projection candidate</text>
</g>
<!-- obligations&#45;&gt;kernel_export -->
<g id="edge11" class="edge">
<title>obligations&#45;&gt;kernel_export</title>
<path fill="none" stroke="#374151" stroke-dasharray="5,2" d="M254.62,-304.41C245.98,-299.15 237.82,-292.93 231.14,-285.64 225.56,-279.56 221.39,-271.85 218.29,-264.13"/>
<polygon fill="#374151" stroke="#374151" points="220.94,-263.22 215.63,-256.61 215.66,-265.08 220.94,-263.22"/>
<text xml:space="preserve" text-anchor="middle" x="281.01" y="-276.14" font-family="Helvetica,sans-Serif" font-size="10.00">derived exchange view</text>
</g>
<!-- rocq -->
<g id="node11" class="node">
<title>rocq</title>
<ellipse fill="#dcfce7" stroke="#1f2937" stroke-width="2" cx="293.89" cy="-127.2" rx="152.76" ry="26.18"/>
<text xml:space="preserve" text-anchor="middle" x="293.89" y="-128.55" font-family="Helvetica,sans-Serif" font-size="12.00">Rocq formalization</text>
<text xml:space="preserve" text-anchor="middle" x="293.89" y="-115.8" font-family="Helvetica,sans-Serif" font-size="12.00">adequacy against essential boundary</text>
</g>
<!-- obligations&#45;&gt;rocq -->
<g id="edge8" class="edge">
<title>obligations&#45;&gt;rocq</title>
<path fill="none" stroke="#374151" d="M329.87,-304.23C339.64,-272.53 351.75,-217.05 334.89,-173.37 333.26,-169.15 331.03,-165.08 328.45,-161.22"/>
<polygon fill="#374151" stroke="#374151" points="330.69,-159.55 323.64,-154.85 326.22,-162.92 330.69,-159.55"/>
<text xml:space="preserve" text-anchor="middle" x="378.92" y="-225.63" font-family="Helvetica,sans-Serif" font-size="10.00">adequacy check</text>
</g>
<!-- kernel_export&#45;&gt;rocq -->
<g id="edge12" class="edge">
<title>kernel_export&#45;&gt;rocq</title>
<path fill="none" stroke="#374151" stroke-dasharray="5,2" d="M222.24,-203.8C227.76,-193.87 234.74,-182.62 242.39,-173.37 246.12,-168.87 250.33,-164.42 254.68,-160.18"/>
<polygon fill="#374151" stroke="#374151" points="256.56,-162.26 260.49,-154.74 252.73,-158.17 256.56,-162.26"/>
<text xml:space="preserve" text-anchor="middle" x="286.64" y="-175.12" font-family="Helvetica,sans-Serif" font-size="10.00">optional sync format</text>
</g>
<!-- backend -->
<g id="node13" class="node">
<title>backend</title>
<path fill="#fecdd3" stroke="#1f2937" d="M664.28,-254.39C664.28,-254.39 471.5,-254.39 471.5,-254.39 465.5,-254.39 459.5,-248.39 459.5,-242.39 459.5,-242.39 459.5,-216.62 459.5,-216.62 459.5,-210.62 465.5,-204.62 471.5,-204.62 471.5,-204.62 664.28,-204.62 664.28,-204.62 670.28,-204.62 676.28,-210.62 676.28,-216.62 676.28,-216.62 676.28,-242.39 676.28,-242.39 676.28,-248.39 670.28,-254.39 664.28,-254.39"/>
<text xml:space="preserve" text-anchor="middle" x="567.89" y="-237.23" font-family="Helvetica,sans-Serif" font-size="12.00">Why3 backend</text>
<text xml:space="preserve" text-anchor="middle" x="567.89" y="-224.48" font-family="Helvetica,sans-Serif" font-size="12.00">slicing, grouping, printing, solver calls</text>
<text xml:space="preserve" text-anchor="middle" x="567.89" y="-211.73" font-family="Helvetica,sans-Serif" font-size="12.00">not the source of truth</text>
</g>
<!-- sharing&#45;&gt;backend -->
<g id="edge14" class="edge">
<title>sharing&#45;&gt;backend</title>
<path fill="none" stroke="#374151" stroke-dasharray="5,2" d="M545.98,-305.31C549.64,-292.84 554.14,-277.45 558.12,-263.87"/>
<polygon fill="#374151" stroke="#374151" points="560.78,-264.74 560.34,-256.28 555.41,-263.17 560.78,-264.74"/>
</g>
<!-- external -->
<g id="node14" class="node">
<title>external</title>
<path fill="#e5e7eb" stroke="#1f2937" d="M625.4,-145.71C625.4,-145.71 496.38,-145.71 496.38,-145.71 490.38,-145.71 484.38,-139.71 484.38,-133.71 484.38,-133.71 484.38,-120.69 484.38,-120.69 484.38,-114.69 490.38,-108.69 496.38,-108.69 496.38,-108.69 625.4,-108.69 625.4,-108.69 631.4,-108.69 637.4,-114.69 637.4,-120.69 637.4,-120.69 637.4,-133.71 637.4,-133.71 637.4,-139.71 631.4,-145.71 625.4,-145.71"/>
<text xml:space="preserve" text-anchor="middle" x="560.89" y="-128.55" font-family="Helvetica,sans-Serif" font-size="12.00">External tools</text>
<text xml:space="preserve" text-anchor="middle" x="560.89" y="-115.8" font-family="Helvetica,sans-Serif" font-size="12.00">Spot, Why3, Z3, Graphviz</text>
</g>
<!-- backend&#45;&gt;external -->
<g id="edge15" class="edge">
<title>backend&#45;&gt;external</title>
<path fill="none" stroke="#374151" stroke-dasharray="5,2" d="M566.2,-204.23C565.17,-189.48 563.85,-170.63 562.79,-155.38"/>
<polygon fill="#374151" stroke="#374151" points="565.59,-155.26 562.24,-147.48 560,-155.65 565.59,-155.26"/>
</g>
<!-- external&#45;&gt;automata -->
<g id="edge16" class="edge">
<title>external&#45;&gt;automata</title>
<path fill="none" stroke="#374151" stroke-dasharray="5,2" d="M492.45,-108.2C482.55,-105.72 472.47,-103.26 462.89,-101.02 378.46,-81.3 282.24,-61.18 210.98,-46.74"/>
<polygon fill="#374151" stroke="#374151" points="211.86,-44.06 203.46,-45.21 210.75,-49.55 211.86,-44.06"/>
<text xml:space="preserve" text-anchor="middle" x="417.26" y="-71.52" font-family="Helvetica,sans-Serif" font-size="10.00">Spot may produce them</text>
</g>
</g>
</svg>
