<?xml version="1.0" encoding="UTF-8" standalone="no"?>
<!DOCTYPE svg PUBLIC "-//W3C//DTD SVG 1.1//EN"
 "http://www.w3.org/Graphics/SVG/1.1/DTD/svg11.dtd">
<!-- Generated by graphviz version 14.1.3 (20260303.0454)
 -->
<!-- Title: KairosModuleFlow Pages: 1 -->
<svg width="3326pt" height="359pt"
 viewBox="0.00 0.00 3326.00 359.00" xmlns="http://www.w3.org/2000/svg" xmlns:xlink="http://www.w3.org/1999/xlink">
<g id="graph0" class="graph" transform="scale(1 1) rotate(0) translate(18 341)">
<title>KairosModuleFlow</title>
<polygon fill="white" stroke="none" points="-18,18 -18,-341 3307.85,-341 3307.85,18 -18,18"/>
<text xml:space="preserve" text-anchor="middle" x="1644.92" y="-305.7" font-family="Helvetica,sans-Serif" font-size="14.00">Kairos module flow: files and responsibilities</text>
<!-- cli -->
<g id="node1" class="node">
<title>cli</title>
<path fill="#ede9fe" stroke="#1f2937" d="M128.4,-131.04C128.4,-131.04 12,-131.04 12,-131.04 6,-131.04 0,-125.04 0,-119.04 0,-119.04 0,-96.96 0,-96.96 0,-90.96 6,-84.96 12,-84.96 12,-84.96 128.4,-84.96 128.4,-84.96 134.4,-84.96 140.4,-90.96 140.4,-96.96 140.4,-96.96 140.4,-119.04 140.4,-119.04 140.4,-125.04 134.4,-131.04 128.4,-131.04"/>
<text xml:space="preserve" text-anchor="middle" x="70.2" y="-115.55" font-family="Helvetica,sans-Serif" font-size="11.00">bin/cli/kairos.ml</text>
<text xml:space="preserve" text-anchor="middle" x="70.2" y="-103.55" font-family="Helvetica,sans-Serif" font-size="11.00">parse CLI options</text>
<text xml:space="preserve" text-anchor="middle" x="70.2" y="-91.55" font-family="Helvetica,sans-Serif" font-size="11.00">choose dump/prove action</text>
</g>
<!-- api -->
<g id="node2" class="node">
<title>api</title>
<path fill="#dbeafe" stroke="#1f2937" d="M315.55,-131.04C315.55,-131.04 201.4,-131.04 201.4,-131.04 195.4,-131.04 189.4,-125.04 189.4,-119.04 189.4,-119.04 189.4,-96.96 189.4,-96.96 189.4,-90.96 195.4,-84.96 201.4,-84.96 201.4,-84.96 315.55,-84.96 315.55,-84.96 321.55,-84.96 327.55,-90.96 327.55,-96.96 327.55,-96.96 327.55,-119.04 327.55,-119.04 327.55,-125.04 321.55,-131.04 315.55,-131.04"/>
<text xml:space="preserve" text-anchor="middle" x="258.47" y="-115.55" font-family="Helvetica,sans-Serif" font-size="11.00">Kairos_engine.Api</text>
<text xml:space="preserve" text-anchor="middle" x="258.47" y="-103.55" font-family="Helvetica,sans-Serif" font-size="11.00">public facade</text>
<text xml:space="preserve" text-anchor="middle" x="258.47" y="-91.55" font-family="Helvetica,sans-Serif" font-size="11.00">Contract = Pipeline_types</text>
</g>
<!-- cli&#45;&gt;api -->
<g id="edge1" class="edge">
<title>cli&#45;&gt;api</title>
<path fill="none" stroke="#374151" d="M140.83,-108C153.67,-108 167.16,-108 180.21,-108"/>
<polygon fill="#374151" stroke="#374151" points="180.16,-110.63 187.66,-108 180.16,-105.38 180.16,-110.63"/>
</g>
<!-- engine_flow -->
<g id="node3" class="node">
<title>engine_flow</title>
<path fill="#dbeafe" stroke="#1f2937" d="M584.45,-126C584.45,-126 388.55,-126 388.55,-126 382.55,-126 376.55,-120 376.55,-114 376.55,-114 376.55,-102 376.55,-102 376.55,-96 382.55,-90 388.55,-90 388.55,-90 584.45,-90 584.45,-90 590.45,-90 596.45,-96 596.45,-102 596.45,-102 596.45,-114 596.45,-114 596.45,-120 590.45,-126 584.45,-126"/>
<text xml:space="preserve" text-anchor="middle" x="486.5" y="-109.55" font-family="Helvetica,sans-Serif" font-size="11.00">private Engine_flow</text>
<text xml:space="preserve" text-anchor="middle" x="486.5" y="-97.55" font-family="Helvetica,sans-Serif" font-size="11.00">concrete parse &#45;&gt; snapshot &#45;&gt; outputs flow</text>
</g>
<!-- api&#45;&gt;engine_flow -->
<g id="edge2" class="edge">
<title>api&#45;&gt;engine_flow</title>
<path fill="none" stroke="#374151" d="M327.9,-108C340.48,-108 353.93,-108 367.49,-108"/>
<polygon fill="#374151" stroke="#374151" points="367.38,-110.63 374.88,-108 367.38,-105.38 367.38,-110.63"/>
</g>
<!-- frontend -->
<g id="node4" class="node">
<title>frontend</title>
<path fill="#ede9fe" stroke="#1f2937" d="M807.6,-245.04C807.6,-245.04 657.45,-245.04 657.45,-245.04 651.45,-245.04 645.45,-239.04 645.45,-233.04 645.45,-233.04 645.45,-210.96 645.45,-210.96 645.45,-204.96 651.45,-198.96 657.45,-198.96 657.45,-198.96 807.6,-198.96 807.6,-198.96 813.6,-198.96 819.6,-204.96 819.6,-210.96 819.6,-210.96 819.6,-233.04 819.6,-233.04 819.6,-239.04 813.6,-245.04 807.6,-245.04"/>
<text xml:space="preserve" text-anchor="middle" x="732.52" y="-229.55" font-family="Helvetica,sans-Serif" font-size="11.00">Kairos_frontend</text>
<text xml:space="preserve" text-anchor="middle" x="732.52" y="-217.55" font-family="Helvetica,sans-Serif" font-size="11.00">read file</text>
<text xml:space="preserve" text-anchor="middle" x="732.52" y="-205.55" font-family="Helvetica,sans-Serif" font-size="11.00">Kx_parse_api + Kairos_to_model</text>
</g>
<!-- engine_flow&#45;&gt;frontend -->
<g id="edge3" class="edge">
<title>engine_flow&#45;&gt;frontend</title>
<path fill="none" stroke="#374151" d="M526.98,-126.44C566.68,-144.99 628.33,-173.79 673.58,-194.93"/>
<polygon fill="#374151" stroke="#374151" points="672.26,-197.21 680.17,-198.01 674.48,-192.46 672.26,-197.21"/>
</g>
<!-- snapshot -->
<g id="node7" class="node">
<title>snapshot</title>
<path fill="#fed7aa" stroke="#1f2937" d="M785.47,-131.04C785.47,-131.04 679.57,-131.04 679.57,-131.04 673.57,-131.04 667.57,-125.04 667.57,-119.04 667.57,-119.04 667.57,-96.96 667.57,-96.96 667.57,-90.96 673.57,-84.96 679.57,-84.96 679.57,-84.96 785.47,-84.96 785.47,-84.96 791.47,-84.96 797.47,-90.96 797.47,-96.96 797.47,-96.96 797.47,-119.04 797.47,-119.04 797.47,-125.04 791.47,-131.04 785.47,-131.04"/>
<text xml:space="preserve" text-anchor="middle" x="732.52" y="-115.55" font-family="Helvetica,sans-Serif" font-size="11.00">kairos_runtime_core</text>
<text xml:space="preserve" text-anchor="middle" x="732.52" y="-103.55" font-family="Helvetica,sans-Serif" font-size="11.00">Pipeline_build</text>
<text xml:space="preserve" text-anchor="middle" x="732.52" y="-91.55" font-family="Helvetica,sans-Serif" font-size="11.00">build Runtime_snapshot</text>
</g>
<!-- engine_flow&#45;&gt;snapshot -->
<g id="edge6" class="edge">
<title>engine_flow&#45;&gt;snapshot</title>
<path fill="none" stroke="#374151" d="M596.67,-108C617.57,-108 638.99,-108 658.43,-108"/>
<polygon fill="#374151" stroke="#374151" points="658.19,-110.63 665.69,-108 658.19,-105.38 658.19,-110.63"/>
</g>
<!-- outputs -->
<g id="node16" class="node">
<title>outputs</title>
<path fill="#fed7aa" stroke="#1f2937" d="M2766.55,-162C2766.55,-162 2612.65,-162 2612.65,-162 2606.65,-162 2600.65,-156 2600.65,-150 2600.65,-150 2600.65,-138 2600.65,-138 2600.65,-132 2606.65,-126 2612.65,-126 2612.65,-126 2766.55,-126 2766.55,-126 2772.55,-126 2778.55,-132 2778.55,-138 2778.55,-138 2778.55,-150 2778.55,-150 2778.55,-156 2772.55,-162 2766.55,-162"/>
<text xml:space="preserve" text-anchor="middle" x="2689.6" y="-145.55" font-family="Helvetica,sans-Serif" font-size="11.00">lib/engine output pipeline</text>
<text xml:space="preserve" text-anchor="middle" x="2689.6" y="-133.55" font-family="Helvetica,sans-Serif" font-size="11.00">Pipeline_outputs / Output_mapper</text>
</g>
<!-- engine_flow&#45;&gt;outputs -->
<g id="edge19" class="edge">
<title>engine_flow&#45;&gt;outputs</title>
<path fill="none" stroke="#374151" d="M510.9,-89.68C552.68,-58.87 643.96,0 731.52,0 731.52,0 731.52,0 2402.45,0 2507.94,0 2614.19,-79.05 2662.17,-120.01"/>
<polygon fill="#374151" stroke="#374151" points="2660.29,-121.85 2667.67,-124.77 2663.72,-117.88 2660.29,-121.85"/>
<text xml:space="preserve" text-anchor="middle" x="1572.67" y="-1.2" font-family="Helvetica,sans-Serif" font-size="9.00">select outputs</text>
</g>
<!-- surface -->
<g id="node5" class="node">
<title>surface</title>
<path fill="#ede9fe" stroke="#1f2937" d="M1046.5,-254C1046.5,-254 880.6,-254 880.6,-254 874.6,-254 868.6,-248 868.6,-242 868.6,-242 868.6,-230 868.6,-230 868.6,-224 874.6,-218 880.6,-218 880.6,-218 1046.5,-218 1046.5,-218 1052.5,-218 1058.5,-224 1058.5,-230 1058.5,-230 1058.5,-242 1058.5,-242 1058.5,-248 1052.5,-254 1046.5,-254"/>
<text xml:space="preserve" text-anchor="middle" x="963.55" y="-237.55" font-family="Helvetica,sans-Serif" font-size="11.00">Kx_* frontend modules</text>
<text xml:space="preserve" text-anchor="middle" x="963.55" y="-225.55" font-family="Helvetica,sans-Serif" font-size="11.00">lexer/parser/surface AST/elaboration</text>
</g>
<!-- frontend&#45;&gt;surface -->
<g id="edge4" class="edge">
<title>frontend&#45;&gt;surface</title>
<path fill="none" stroke="#374151" d="M819.78,-227.27C832.79,-228.07 846.31,-228.89 859.61,-229.71"/>
<polygon fill="#374151" stroke="#374151" points="859.17,-232.31 866.81,-230.15 859.49,-227.07 859.17,-232.31"/>
</g>
<!-- model -->
<g id="node6" class="node">
<title>model</title>
<path fill="#dcfce7" stroke="#1f2937" stroke-width="2" d="M1234.02,-263.04C1234.02,-263.04 1146.87,-263.04 1146.87,-263.04 1140.87,-263.04 1134.87,-257.04 1134.87,-251.04 1134.87,-251.04 1134.87,-228.96 1134.87,-228.96 1134.87,-222.96 1140.87,-216.96 1146.87,-216.96 1146.87,-216.96 1234.02,-216.96 1234.02,-216.96 1240.02,-216.96 1246.02,-222.96 1246.02,-228.96 1246.02,-228.96 1246.02,-251.04 1246.02,-251.04 1246.02,-257.04 1240.02,-263.04 1234.02,-263.04"/>
<text xml:space="preserve" text-anchor="middle" x="1190.45" y="-247.55" font-family="Helvetica,sans-Serif" font-size="11.00">Verification_model</text>
<text xml:space="preserve" text-anchor="middle" x="1190.45" y="-235.55" font-family="Helvetica,sans-Serif" font-size="11.00">Core_syntax</text>
<text xml:space="preserve" text-anchor="middle" x="1190.45" y="-223.55" font-family="Helvetica,sans-Serif" font-size="11.00">core program model</text>
</g>
<!-- surface&#45;&gt;model -->
<g id="edge5" class="edge">
<title>surface&#45;&gt;model</title>
<path fill="none" stroke="#374151" d="M1058.95,-237.68C1081.25,-238.08 1104.53,-238.49 1125.15,-238.86"/>
<polygon fill="#374151" stroke="#374151" points="1125.05,-241.48 1132.6,-238.99 1125.15,-236.23 1125.05,-241.48"/>
</g>
<!-- partition -->
<g id="node8" class="node">
<title>partition</title>
<path fill="#fde68a" stroke="#1f2937" d="M1032.62,-126C1032.62,-126 894.47,-126 894.47,-126 888.47,-126 882.47,-120 882.47,-114 882.47,-114 882.47,-102 882.47,-102 882.47,-96 888.47,-90 894.47,-90 894.47,-90 1032.62,-90 1032.62,-90 1038.62,-90 1044.62,-96 1044.62,-102 1044.62,-102 1044.62,-114 1044.62,-114 1044.62,-120 1038.62,-126 1032.62,-126"/>
<text xml:space="preserve" text-anchor="middle" x="963.55" y="-109.55" font-family="Helvetica,sans-Serif" font-size="11.00">Contract_partition</text>
<text xml:space="preserve" text-anchor="middle" x="963.55" y="-97.55" font-family="Helvetica,sans-Serif" font-size="11.00">proof&#45;shaping before automata</text>
</g>
<!-- snapshot&#45;&gt;partition -->
<g id="edge7" class="edge">
<title>snapshot&#45;&gt;partition</title>
<path fill="none" stroke="#374151" d="M797.93,-108C821.36,-108 848.28,-108 873.48,-108"/>
<polygon fill="#374151" stroke="#374151" points="873.29,-110.63 880.79,-108 873.29,-105.38 873.29,-110.63"/>
</g>
<!-- automata -->
<g id="node9" class="node">
<title>automata</title>
<path fill="#e5e7eb" stroke="#1f2937" d="M1261.4,-185.04C1261.4,-185.04 1119.5,-185.04 1119.5,-185.04 1113.5,-185.04 1107.5,-179.04 1107.5,-173.04 1107.5,-173.04 1107.5,-150.96 1107.5,-150.96 1107.5,-144.96 1113.5,-138.96 1119.5,-138.96 1119.5,-138.96 1261.4,-138.96 1261.4,-138.96 1267.4,-138.96 1273.4,-144.96 1273.4,-150.96 1273.4,-150.96 1273.4,-173.04 1273.4,-173.04 1273.4,-179.04 1267.4,-185.04 1261.4,-185.04"/>
<text xml:space="preserve" text-anchor="middle" x="1190.45" y="-169.55" font-family="Helvetica,sans-Serif" font-size="11.00">kairos_runtime_automata</text>
<text xml:space="preserve" text-anchor="middle" x="1190.45" y="-157.55" font-family="Helvetica,sans-Serif" font-size="11.00">Runtime_automata_source</text>
<text xml:space="preserve" text-anchor="middle" x="1190.45" y="-145.55" font-family="Helvetica,sans-Serif" font-size="11.00">Spot&#45;backed supplied automata</text>
</g>
<!-- partition&#45;&gt;automata -->
<g id="edge8" class="edge">
<title>partition&#45;&gt;automata</title>
<path fill="none" stroke="#374151" d="M1041.32,-126.43C1059.75,-130.86 1079.6,-135.62 1098.6,-140.19"/>
<polygon fill="#374151" stroke="#374151" points="1097.89,-142.71 1105.79,-141.91 1099.11,-137.61 1097.89,-142.71"/>
</g>
<!-- reference -->
<g id="node10" class="node">
<title>reference</title>
<path fill="#bbf7d0" stroke="#1f2937" stroke-width="3" d="M1508.55,-172.04C1508.55,-172.04 1334.4,-172.04 1334.4,-172.04 1328.4,-172.04 1322.4,-166.04 1322.4,-160.04 1322.4,-160.04 1322.4,-137.96 1322.4,-137.96 1322.4,-131.96 1328.4,-125.96 1334.4,-125.96 1334.4,-125.96 1508.55,-125.96 1508.55,-125.96 1514.55,-125.96 1520.55,-131.96 1520.55,-137.96 1520.55,-137.96 1520.55,-160.04 1520.55,-160.04 1520.55,-166.04 1514.55,-172.04 1508.55,-172.04"/>
<text xml:space="preserve" text-anchor="middle" x="1421.47" y="-156.55" font-family="Helvetica,sans-Serif" font-size="11.00">Orchestration.build_reference_product</text>
<text xml:space="preserve" text-anchor="middle" x="1421.47" y="-144.55" font-family="Helvetica,sans-Serif" font-size="11.00">From_model / Product_build</text>
<text xml:space="preserve" text-anchor="middle" x="1421.47" y="-132.55" font-family="Helvetica,sans-Serif" font-size="11.00">program x automata</text>
</g>
<!-- partition&#45;&gt;reference -->
<g id="edge10" class="edge">
<title>partition&#45;&gt;reference</title>
<path fill="none" stroke="#374151" d="M1045.09,-109.13C1107.54,-110.67 1196.18,-114.33 1273.4,-123 1286.08,-124.42 1299.33,-126.26 1312.44,-128.3"/>
<polygon fill="#374151" stroke="#374151" points="1311.72,-130.84 1319.54,-129.43 1312.55,-125.66 1311.72,-130.84"/>
</g>
<!-- automata&#45;&gt;reference -->
<g id="edge11" class="edge">
<title>automata&#45;&gt;reference</title>
<path fill="none" stroke="#374151" d="M1273.81,-157.33C1286.31,-156.62 1299.37,-155.87 1312.32,-155.14"/>
<polygon fill="#374151" stroke="#374151" points="1312.41,-157.76 1319.75,-154.72 1312.12,-152.52 1312.41,-157.76"/>
</g>
<!-- external -->
<g id="node18" class="node">
<title>external</title>
<path fill="#e5e7eb" stroke="#1f2937" d="M3277.85,-246C3277.85,-246 3117.2,-246 3117.2,-246 3111.2,-246 3105.2,-240 3105.2,-234 3105.2,-234 3105.2,-222 3105.2,-222 3105.2,-216 3111.2,-210 3117.2,-210 3117.2,-210 3277.85,-210 3277.85,-210 3283.85,-210 3289.85,-216 3289.85,-222 3289.85,-222 3289.85,-234 3289.85,-234 3289.85,-240 3283.85,-246 3277.85,-246"/>
<text xml:space="preserve" text-anchor="middle" x="3197.52" y="-229.55" font-family="Helvetica,sans-Serif" font-size="11.00">External adapters</text>
<text xml:space="preserve" text-anchor="middle" x="3197.52" y="-217.55" font-family="Helvetica,sans-Serif" font-size="11.00">Spot / Why3 / Z3 / Graphviz / timing</text>
</g>
<!-- automata&#45;&gt;external -->
<g id="edge9" class="edge">
<title>automata&#45;&gt;external</title>
<path fill="none" stroke="#374151" d="M1243.63,-185.41C1253.65,-190.3 1263.96,-195.61 1273.4,-201 1341.85,-240.04 1341.68,-300 1420.47,-300 1420.47,-300 1420.47,-300 2973.87,-300 3039.47,-300 3110.88,-271.36 3154.69,-250.21"/>
<polygon fill="#374151" stroke="#374151" points="3155.6,-252.68 3161.18,-247.02 3153.29,-247.97 3155.6,-252.68"/>
</g>
<!-- passes -->
<g id="node11" class="node">
<title>passes</title>
<path fill="#86efac" stroke="#1f2937" stroke-width="3" d="M1760.7,-167C1760.7,-167 1636.8,-167 1636.8,-167 1630.8,-167 1624.8,-161 1624.8,-155 1624.8,-155 1624.8,-143 1624.8,-143 1624.8,-137 1630.8,-131 1636.8,-131 1636.8,-131 1760.7,-131 1760.7,-131 1766.7,-131 1772.7,-137 1772.7,-143 1772.7,-143 1772.7,-155 1772.7,-155 1772.7,-161 1766.7,-167 1760.7,-167"/>
<text xml:space="preserve" text-anchor="middle" x="1698.75" y="-150.55" font-family="Helvetica,sans-Serif" font-size="11.00">Pre / Post / Temporal_lower</text>
<text xml:space="preserve" text-anchor="middle" x="1698.75" y="-138.55" font-family="Helvetica,sans-Serif" font-size="11.00">essential obligation pipeline</text>
</g>
<!-- reference&#45;&gt;passes -->
<g id="edge12" class="edge">
<title>reference&#45;&gt;passes</title>
<path fill="none" stroke="#374151" d="M1521.86,-149C1552.28,-149 1585.42,-149 1614.64,-149"/>
<polygon fill="#374151" stroke="#374151" points="1614.56,-151.63 1622.06,-149 1614.56,-146.38 1614.56,-151.63"/>
</g>
<!-- reachability -->
<g id="node12" class="node">
<title>reachability</title>
<path fill="#fde68a" stroke="#1f2937" stroke-width="2" d="M1960.35,-118.04C1960.35,-118.04 1872.45,-118.04 1872.45,-118.04 1866.45,-118.04 1860.45,-112.04 1860.45,-106.04 1860.45,-106.04 1860.45,-83.96 1860.45,-83.96 1860.45,-77.96 1866.45,-71.96 1872.45,-71.96 1872.45,-71.96 1960.35,-71.96 1960.35,-71.96 1966.35,-71.96 1972.35,-77.96 1972.35,-83.96 1972.35,-83.96 1972.35,-106.04 1972.35,-106.04 1972.35,-112.04 1966.35,-118.04 1960.35,-118.04"/>
<text xml:space="preserve" text-anchor="middle" x="1916.4" y="-102.55" font-family="Helvetica,sans-Serif" font-size="11.00">Product_reachability</text>
<text xml:space="preserve" text-anchor="middle" x="1916.4" y="-90.55" font-family="Helvetica,sans-Serif" font-size="11.00">reference extension</text>
<text xml:space="preserve" text-anchor="middle" x="1916.4" y="-78.55" font-family="Helvetica,sans-Serif" font-size="11.00">not pruning</text>
</g>
<!-- passes&#45;&gt;reachability -->
<g id="edge13" class="edge">
<title>passes&#45;&gt;reachability</title>
<path fill="none" stroke="#374151" stroke-dasharray="5,2" d="M1773.96,-130.42C1799.14,-124.11 1827.03,-117.13 1851.35,-111.04"/>
<polygon fill="#374151" stroke="#374151" points="1851.68,-113.66 1858.32,-109.29 1850.41,-108.57 1851.68,-113.66"/>
<text xml:space="preserve" text-anchor="middle" x="1816.57" y="-124.82" font-family="Helvetica,sans-Serif" font-size="9.00">extension</text>
</g>
<!-- snapshot_data -->
<g id="node13" class="node">
<title>snapshot_data</title>
<path fill="#fed7aa" stroke="#1f2937" d="M2156.5,-185.04C2156.5,-185.04 2033.35,-185.04 2033.35,-185.04 2027.35,-185.04 2021.35,-179.04 2021.35,-173.04 2021.35,-173.04 2021.35,-114.96 2021.35,-114.96 2021.35,-108.96 2027.35,-102.96 2033.35,-102.96 2033.35,-102.96 2156.5,-102.96 2156.5,-102.96 2162.5,-102.96 2168.5,-108.96 2168.5,-114.96 2168.5,-114.96 2168.5,-173.04 2168.5,-173.04 2168.5,-179.04 2162.5,-185.04 2156.5,-185.04"/>
<text xml:space="preserve" text-anchor="middle" x="2094.92" y="-169.55" font-family="Helvetica,sans-Serif" font-size="11.00">Runtime_snapshot.ast_flow</text>
<text xml:space="preserve" text-anchor="middle" x="2094.92" y="-157.55" font-family="Helvetica,sans-Serif" font-size="11.00">verification_model</text>
<text xml:space="preserve" text-anchor="middle" x="2094.92" y="-145.55" font-family="Helvetica,sans-Serif" font-size="11.00">runtime_model</text>
<text xml:space="preserve" text-anchor="middle" x="2094.92" y="-133.55" font-family="Helvetica,sans-Serif" font-size="11.00">automata</text>
<text xml:space="preserve" text-anchor="middle" x="2094.92" y="-121.55" font-family="Helvetica,sans-Serif" font-size="11.00">summaries</text>
<text xml:space="preserve" text-anchor="middle" x="2094.92" y="-109.55" font-family="Helvetica,sans-Serif" font-size="11.00">instrumentation</text>
</g>
<!-- passes&#45;&gt;snapshot_data -->
<g id="edge14" class="edge">
<title>passes&#45;&gt;snapshot_data</title>
<path fill="none" stroke="#374151" d="M1773.89,-148.06C1841.79,-147.2 1942.11,-145.93 2012.28,-145.04"/>
<polygon fill="#374151" stroke="#374151" points="2012.14,-147.66 2019.6,-144.94 2012.07,-142.41 2012.14,-147.66"/>
</g>
<!-- reachability&#45;&gt;snapshot_data -->
<g id="edge15" class="edge">
<title>reachability&#45;&gt;snapshot_data</title>
<path fill="none" stroke="#374151" stroke-dasharray="5,2" d="M1973.25,-110.5C1985.68,-113.95 1999.11,-117.68 2012.33,-121.35"/>
<polygon fill="#374151" stroke="#374151" points="2011.59,-123.87 2019.52,-123.35 2013,-118.81 2011.59,-123.87"/>
</g>
<!-- proof_export -->
<g id="node14" class="node">
<title>proof_export</title>
<path fill="#dbeafe" stroke="#1f2937" stroke-width="2" d="M2461.52,-173.04C2461.52,-173.04 2341.37,-173.04 2341.37,-173.04 2335.37,-173.04 2329.37,-167.04 2329.37,-161.04 2329.37,-161.04 2329.37,-126.96 2329.37,-126.96 2329.37,-120.96 2335.37,-114.96 2341.37,-114.96 2341.37,-114.96 2461.52,-114.96 2461.52,-114.96 2467.52,-114.96 2473.52,-120.96 2473.52,-126.96 2473.52,-126.96 2473.52,-161.04 2473.52,-161.04 2473.52,-167.04 2467.52,-173.04 2461.52,-173.04"/>
<text xml:space="preserve" text-anchor="middle" x="2401.45" y="-157.55" font-family="Helvetica,sans-Serif" font-size="11.00">kairos_runtime_diagnostics</text>
<text xml:space="preserve" text-anchor="middle" x="2401.45" y="-145.55" font-family="Helvetica,sans-Serif" font-size="11.00">Pipeline_artifact_bundle</text>
<text xml:space="preserve" text-anchor="middle" x="2401.45" y="-133.55" font-family="Helvetica,sans-Serif" font-size="11.00">Proof_kernel_pass</text>
<text xml:space="preserve" text-anchor="middle" x="2401.45" y="-121.55" font-family="Helvetica,sans-Serif" font-size="11.00">exchange projection</text>
</g>
<!-- snapshot_data&#45;&gt;proof_export -->
<g id="edge16" class="edge">
<title>snapshot_data&#45;&gt;proof_export</title>
<path fill="none" stroke="#374151" d="M2168.87,-144C2214.33,-144 2272.87,-144 2319.72,-144"/>
<polygon fill="#374151" stroke="#374151" points="2319.62,-146.63 2327.12,-144 2319.62,-141.38 2319.62,-146.63"/>
<text xml:space="preserve" text-anchor="middle" x="2237.87" y="-145.2" font-family="Helvetica,sans-Serif" font-size="9.00">non&#45;prove diagnostics</text>
</g>
<!-- why3 -->
<g id="node15" class="node">
<title>why3</title>
<path fill="#fecdd3" stroke="#1f2937" d="M2483.65,-251.04C2483.65,-251.04 2319.25,-251.04 2319.25,-251.04 2313.25,-251.04 2307.25,-245.04 2307.25,-239.04 2307.25,-239.04 2307.25,-216.96 2307.25,-216.96 2307.25,-210.96 2313.25,-204.96 2319.25,-204.96 2319.25,-204.96 2483.65,-204.96 2483.65,-204.96 2489.65,-204.96 2495.65,-210.96 2495.65,-216.96 2495.65,-216.96 2495.65,-239.04 2495.65,-239.04 2495.65,-245.04 2489.65,-251.04 2483.65,-251.04"/>
<text xml:space="preserve" text-anchor="middle" x="2401.45" y="-235.55" font-family="Helvetica,sans-Serif" font-size="11.00">kairos_runtime_proof + kairos_why3</text>
<text xml:space="preserve" text-anchor="middle" x="2401.45" y="-223.55" font-family="Helvetica,sans-Serif" font-size="11.00">Why_runtime_view</text>
<text xml:space="preserve" text-anchor="middle" x="2401.45" y="-211.55" font-family="Helvetica,sans-Serif" font-size="11.00">Why_compile / Proof_runner</text>
</g>
<!-- snapshot_data&#45;&gt;why3 -->
<g id="edge17" class="edge">
<title>snapshot_data&#45;&gt;why3</title>
<path fill="none" stroke="#374151" d="M2168.87,-164.12C2210.19,-175.52 2262.33,-189.9 2306.67,-202.13"/>
<polygon fill="#374151" stroke="#374151" points="2305.76,-204.6 2313.69,-204.07 2307.15,-199.54 2305.76,-204.6"/>
<text xml:space="preserve" text-anchor="middle" x="2237.87" y="-194.72" font-family="Helvetica,sans-Serif" font-size="9.00">prove / why dumps</text>
</g>
<!-- snapshot_data&#45;&gt;outputs -->
<g id="edge20" class="edge">
<title>snapshot_data&#45;&gt;outputs</title>
<path fill="none" stroke="#374151" d="M2168.67,-124.57C2209.14,-114.75 2260.62,-103.91 2307.25,-99 2390.52,-90.23 2412.47,-89.43 2495.65,-99 2536.46,-103.7 2581.19,-113.8 2617.29,-123.25"/>
<polygon fill="#374151" stroke="#374151" points="2616.42,-125.74 2624.34,-125.12 2617.76,-120.66 2616.42,-125.74"/>
</g>
<!-- proof_export&#45;&gt;outputs -->
<g id="edge21" class="edge">
<title>proof_export&#45;&gt;outputs</title>
<path fill="none" stroke="#374151" d="M2474.29,-144C2509.84,-144 2553.28,-144 2591.72,-144"/>
<polygon fill="#374151" stroke="#374151" points="2591.34,-146.63 2598.84,-144 2591.34,-141.38 2591.34,-146.63"/>
<text xml:space="preserve" text-anchor="middle" x="2548.15" y="-145.2" font-family="Helvetica,sans-Serif" font-size="9.00">artifact modes</text>
</g>
<!-- why3&#45;&gt;outputs -->
<g id="edge22" class="edge">
<title>why3&#45;&gt;outputs</title>
<path fill="none" stroke="#374151" d="M2482.54,-204.49C2524.83,-192.07 2576.3,-176.97 2617.22,-164.95"/>
<polygon fill="#374151" stroke="#374151" points="2617.88,-167.5 2624.33,-162.87 2616.4,-162.46 2617.88,-167.5"/>
</g>
<!-- why3&#45;&gt;external -->
<g id="edge18" class="edge">
<title>why3&#45;&gt;external</title>
<path fill="none" stroke="#374151" d="M2495.88,-228C2646.46,-228 2941.58,-228 3096.36,-228"/>
<polygon fill="#374151" stroke="#374151" points="3095.97,-230.63 3103.47,-228 3095.97,-225.38 3095.97,-230.63"/>
</g>
<!-- graphviz_service -->
<g id="node17" class="node">
<title>graphviz_service</title>
<path fill="#fed7aa" stroke="#1f2937" d="M3044.2,-175C3044.2,-175 2901.55,-175 2901.55,-175 2895.55,-175 2889.55,-169 2889.55,-163 2889.55,-163 2889.55,-151 2889.55,-151 2889.55,-145 2895.55,-139 2901.55,-139 2901.55,-139 3044.2,-139 3044.2,-139 3050.2,-139 3056.2,-145 3056.2,-151 3056.2,-151 3056.2,-163 3056.2,-163 3056.2,-169 3050.2,-175 3044.2,-175"/>
<text xml:space="preserve" text-anchor="middle" x="2972.87" y="-158.55" font-family="Helvetica,sans-Serif" font-size="11.00">Kairos_engine.Graphviz_render</text>
<text xml:space="preserve" text-anchor="middle" x="2972.87" y="-146.55" font-family="Helvetica,sans-Serif" font-size="11.00">DOT &#45;&gt; Graphviz process</text>
</g>
<!-- outputs&#45;&gt;graphviz_service -->
<g id="edge23" class="edge">
<title>outputs&#45;&gt;graphviz_service</title>
<path fill="none" stroke="#374151" d="M2778.83,-148.08C2811.21,-149.57 2847.93,-151.27 2880.58,-152.78"/>
<polygon fill="#374151" stroke="#374151" points="2880.11,-155.39 2887.72,-153.11 2880.35,-150.14 2880.11,-155.39"/>
<text xml:space="preserve" text-anchor="middle" x="2834.05" y="-153.25" font-family="Helvetica,sans-Serif" font-size="9.00">PNG requested</text>
</g>
<!-- graphviz_service&#45;&gt;external -->
<g id="edge24" class="edge">
<title>graphviz_service&#45;&gt;external</title>
<path fill="none" stroke="#374151" d="M3031.79,-175.47C3061.95,-185.09 3098.97,-196.89 3130.27,-206.87"/>
<polygon fill="#374151" stroke="#374151" points="3129.13,-209.26 3137.07,-209.04 3130.72,-204.26 3129.13,-209.26"/>
</g>
</g>
</svg>
