<?xml version="1.0" encoding="UTF-8" standalone="no"?>
<!DOCTYPE svg PUBLIC "-//W3C//DTD SVG 1.1//EN"
 "http://www.w3.org/Graphics/SVG/1.1/DTD/svg11.dtd">
<!-- Generated by graphviz version 14.1.3 (20260303.0454)
 -->
<!-- Title: why3_product_backend Pages: 1 -->
<svg width="1488pt" height="777pt"
 viewBox="0.00 0.00 1488.00 777.00" xmlns="http://www.w3.org/2000/svg" xmlns:xlink="http://www.w3.org/1999/xlink">
<g id="graph0" class="graph" transform="scale(1 1) rotate(0) translate(4 772.75)">
<title>why3_product_backend</title>
<polygon fill="white" stroke="none" points="-4,4 -4,-772.75 1483.75,-772.75 1483.75,4 -4,4"/>
<text xml:space="preserve" text-anchor="middle" x="739.88" y="-747.65" font-family="Helvetica,sans-Serif" font-size="18.00">Observed Why3 product backend dependencies (arrow = depends on)</text>
<g id="clust1" class="cluster">
<title>cluster_0</title>
<path fill="#ffffff" stroke="#dbeafe" d="M20,-380C20,-380 578.62,-380 578.62,-380 584.62,-380 590.62,-386 590.62,-392 590.62,-392 590.62,-555 590.62,-555 590.62,-561 584.62,-567 578.62,-567 578.62,-567 20,-567 20,-567 14,-567 8,-561 8,-555 8,-555 8,-392 8,-392 8,-386 14,-380 20,-380"/>
<text xml:space="preserve" text-anchor="middle" x="299.31" y="-545.9" font-family="Helvetica,sans-Serif" font-size="18.00">Orchestration</text>
</g>
<g id="clust2" class="cluster">
<title>cluster_1</title>
<path fill="#ffffff" stroke="#dcfce7" d="M655.62,-527C655.62,-527 1459.75,-527 1459.75,-527 1465.75,-527 1471.75,-533 1471.75,-539 1471.75,-539 1471.75,-722 1471.75,-722 1471.75,-728 1465.75,-734 1459.75,-734 1459.75,-734 655.62,-734 655.62,-734 649.62,-734 643.62,-728 643.62,-722 643.62,-722 643.62,-539 643.62,-539 643.62,-533 649.62,-527 655.62,-527"/>
<text xml:space="preserve" text-anchor="middle" x="1057.69" y="-712.9" font-family="Helvetica,sans-Serif" font-size="18.00">Helper Plan</text>
</g>
<g id="clust3" class="cluster">
<title>cluster_2</title>
<path fill="#ffffff" stroke="#fef3c7" d="M865.88,-8C865.88,-8 1451.12,-8 1451.12,-8 1457.12,-8 1463.12,-14 1463.12,-20 1463.12,-20 1463.12,-75 1463.12,-75 1463.12,-81 1457.12,-87 1451.12,-87 1451.12,-87 865.88,-87 865.88,-87 859.88,-87 853.88,-81 853.88,-75 853.88,-75 853.88,-20 853.88,-20 853.88,-14 859.88,-8 865.88,-8"/>
<text xml:space="preserve" text-anchor="middle" x="1158.5" y="-65.9" font-family="Helvetica,sans-Serif" font-size="18.00">Helper Specs</text>
</g>
<g id="clust4" class="cluster">
<title>cluster_3</title>
<path fill="#ffffff" stroke="#fce7f3" d="M219,-95C219,-95 993.88,-95 993.88,-95 999.88,-95 1005.88,-101 1005.88,-107 1005.88,-107 1005.88,-270 1005.88,-270 1005.88,-276 999.88,-282 993.88,-282 993.88,-282 219,-282 219,-282 213,-282 207,-276 207,-270 207,-270 207,-107 207,-107 207,-101 213,-95 219,-95"/>
<text xml:space="preserve" text-anchor="middle" x="606.44" y="-260.9" font-family="Helvetica,sans-Serif" font-size="18.00">Helper Emission</text>
</g>
<g id="clust5" class="cluster">
<title>cluster_4</title>
<path fill="#ffffff" stroke="#e0e7ff" d="M866.62,-290C866.62,-290 1435.75,-290 1435.75,-290 1441.75,-290 1447.75,-296 1447.75,-302 1447.75,-302 1447.75,-465 1447.75,-465 1447.75,-471 1441.75,-477 1435.75,-477 1435.75,-477 866.62,-477 866.62,-477 860.62,-477 854.62,-471 854.62,-465 854.62,-465 854.62,-302 854.62,-302 854.62,-296 860.62,-290 866.62,-290"/>
<text xml:space="preserve" text-anchor="middle" x="1151.19" y="-455.9" font-family="Helvetica,sans-Serif" font-size="18.00">Nearby Compile Services</text>
</g>
<!-- Why_compile_product_pipeline -->
<g id="node1" class="node">
<title>Why_compile_product_pipeline</title>
<path fill="#f8fafc" stroke="#475569" d="M155,-451C155,-451 28,-451 28,-451 22,-451 16,-445 16,-439 16,-439 16,-427 16,-427 16,-421 22,-415 28,-415 28,-415 155,-415 155,-415 161,-415 167,-421 167,-427 167,-427 167,-439 167,-439 167,-445 161,-451 155,-451"/>
<text xml:space="preserve" text-anchor="middle" x="91.5" y="-429.12" font-family="Helvetica,sans-Serif" font-size="10.00">Why_compile_product_pipeline</text>
</g>
<!-- Why_compile_product_bundle_state -->
<g id="node2" class="node">
<title>Why_compile_product_bundle_state</title>
<path fill="#f8fafc" stroke="#475569" d="M364.5,-478C364.5,-478 215,-478 215,-478 209,-478 203,-472 203,-466 203,-466 203,-454 203,-454 203,-448 209,-442 215,-442 215,-442 364.5,-442 364.5,-442 370.5,-442 376.5,-448 376.5,-454 376.5,-454 376.5,-466 376.5,-466 376.5,-472 370.5,-478 364.5,-478"/>
<text xml:space="preserve" text-anchor="middle" x="289.75" y="-456.12" font-family="Helvetica,sans-Serif" font-size="10.00">Why_compile_product_bundle_state</text>
</g>
<!-- Why_compile_product_pipeline&#45;&gt;Why_compile_product_bundle_state -->
<g id="edge34" class="edge">
<title>Why_compile_product_pipeline&#45;&gt;Why_compile_product_bundle_state</title>
<path fill="none" stroke="#64748b" d="M167.25,-443.28C176.13,-444.51 185.27,-445.76 194.37,-447.02"/>
<polygon fill="#64748b" stroke="#64748b" points="193.94,-449.43 201.21,-447.96 194.61,-444.58 193.94,-449.43"/>
</g>
<!-- Why_compile_product_plan -->
<g id="node3" class="node">
<title>Why_compile_product_plan</title>
<path fill="#f8fafc" stroke="#475569" d="M345.75,-424C345.75,-424 233.75,-424 233.75,-424 227.75,-424 221.75,-418 221.75,-412 221.75,-412 221.75,-400 221.75,-400 221.75,-394 227.75,-388 233.75,-388 233.75,-388 345.75,-388 345.75,-388 351.75,-388 357.75,-394 357.75,-400 357.75,-400 357.75,-412 357.75,-412 357.75,-418 351.75,-424 345.75,-424"/>
<text xml:space="preserve" text-anchor="middle" x="289.75" y="-402.12" font-family="Helvetica,sans-Serif" font-size="10.00">Why_compile_product_plan</text>
</g>
<!-- Why_compile_product_pipeline&#45;&gt;Why_compile_product_plan -->
<g id="edge36" class="edge">
<title>Why_compile_product_pipeline&#45;&gt;Why_compile_product_plan</title>
<path fill="none" stroke="#64748b" d="M167.25,-422.72C182.24,-420.65 198,-418.48 213.03,-416.42"/>
<polygon fill="#64748b" stroke="#64748b" points="213.18,-418.87 219.79,-415.49 212.52,-414.02 213.18,-418.87"/>
</g>
<!-- Why_compile_product_plan_metrics -->
<g id="node4" class="node">
<title>Why_compile_product_plan_metrics</title>
<path fill="#f8fafc" stroke="#475569" d="M364.5,-532C364.5,-532 215,-532 215,-532 209,-532 203,-526 203,-520 203,-520 203,-508 203,-508 203,-502 209,-496 215,-496 215,-496 364.5,-496 364.5,-496 370.5,-496 376.5,-502 376.5,-508 376.5,-508 376.5,-520 376.5,-520 376.5,-526 370.5,-532 364.5,-532"/>
<text xml:space="preserve" text-anchor="middle" x="289.75" y="-510.12" font-family="Helvetica,sans-Serif" font-size="10.00">Why_compile_product_plan_metrics</text>
</g>
<!-- Why_compile_product_pipeline&#45;&gt;Why_compile_product_plan_metrics -->
<g id="edge37" class="edge">
<title>Why_compile_product_pipeline&#45;&gt;Why_compile_product_plan_metrics</title>
<path fill="none" stroke="#64748b" d="M126.74,-451.38C148.26,-462.52 176.82,-476.55 203,-487 208.06,-489.02 213.34,-490.99 218.68,-492.89"/>
<polygon fill="#64748b" stroke="#64748b" points="217.69,-495.14 225.11,-495.12 219.3,-490.51 217.69,-495.14"/>
</g>
<!-- Why_compile_product_helpers -->
<g id="node16" class="node">
<title>Why_compile_product_helpers</title>
<path fill="#f8fafc" stroke="#475569" d="M352.5,-247C352.5,-247 227,-247 227,-247 221,-247 215,-241 215,-235 215,-235 215,-223 215,-223 215,-217 221,-211 227,-211 227,-211 352.5,-211 352.5,-211 358.5,-211 364.5,-217 364.5,-223 364.5,-223 364.5,-235 364.5,-235 364.5,-241 358.5,-247 352.5,-247"/>
<text xml:space="preserve" text-anchor="middle" x="289.75" y="-225.12" font-family="Helvetica,sans-Serif" font-size="10.00">Why_compile_product_helpers</text>
</g>
<!-- Why_compile_product_pipeline&#45;&gt;Why_compile_product_helpers -->
<g id="edge35" class="edge">
<title>Why_compile_product_pipeline&#45;&gt;Why_compile_product_helpers</title>
<path fill="none" stroke="#64748b" d="M110.26,-414.54C145.8,-377.59 225.65,-294.59 265.38,-253.29"/>
<polygon fill="#64748b" stroke="#64748b" points="267.03,-255.11 270.12,-248.37 263.5,-251.71 267.03,-255.11"/>
</g>
<!-- Why_compile_bundles -->
<g id="node26" class="node">
<title>Why_compile_bundles</title>
<path fill="#f8fafc" stroke="#475569" d="M1193.5,-442C1193.5,-442 1103.25,-442 1103.25,-442 1097.25,-442 1091.25,-436 1091.25,-430 1091.25,-430 1091.25,-418 1091.25,-418 1091.25,-412 1097.25,-406 1103.25,-406 1103.25,-406 1193.5,-406 1193.5,-406 1199.5,-406 1205.5,-412 1205.5,-418 1205.5,-418 1205.5,-430 1205.5,-430 1205.5,-436 1199.5,-442 1193.5,-442"/>
<text xml:space="preserve" text-anchor="middle" x="1148.38" y="-420.12" font-family="Helvetica,sans-Serif" font-size="10.00">Why_compile_bundles</text>
</g>
<!-- Why_compile_product_bundle_state&#45;&gt;Why_compile_bundles -->
<g id="edge5" class="edge">
<title>Why_compile_product_bundle_state&#45;&gt;Why_compile_bundles</title>
<path fill="none" stroke="#64748b" d="M361.66,-478.46C366.87,-480.97 371.88,-483.8 376.5,-487 397.84,-501.78 389.16,-521.63 412.5,-533 488.41,-569.99 518.83,-544.41 602.5,-533 618.95,-530.76 622.18,-526.08 638.5,-523 805.99,-491.41 862.9,-550.11 1020,-484 1039.2,-475.92 1037.78,-464.09 1056,-454 1064.44,-449.32 1073.73,-445.23 1083.06,-441.69"/>
<polygon fill="#64748b" stroke="#64748b" points="1083.71,-444.06 1089.46,-439.37 1082.04,-439.45 1083.71,-444.06"/>
</g>
<!-- Why_compile_modules -->
<g id="node27" class="node">
<title>Why_compile_modules</title>
<path fill="#f8fafc" stroke="#475569" d="M1195,-388C1195,-388 1101.75,-388 1101.75,-388 1095.75,-388 1089.75,-382 1089.75,-376 1089.75,-376 1089.75,-364 1089.75,-364 1089.75,-358 1095.75,-352 1101.75,-352 1101.75,-352 1195,-352 1195,-352 1201,-352 1207,-358 1207,-364 1207,-364 1207,-376 1207,-376 1207,-382 1201,-388 1195,-388"/>
<text xml:space="preserve" text-anchor="middle" x="1148.38" y="-366.12" font-family="Helvetica,sans-Serif" font-size="10.00">Why_compile_modules</text>
</g>
<!-- Why_compile_product_bundle_state&#45;&gt;Why_compile_modules -->
<g id="edge6" class="edge">
<title>Why_compile_product_bundle_state&#45;&gt;Why_compile_modules</title>
<path fill="none" stroke="#64748b" d="M376.92,-463.41C557.78,-469.91 964.86,-480.95 1020,-451 1045.35,-437.23 1032.78,-414.11 1056,-397 1063.62,-391.38 1072.4,-386.93 1081.44,-383.4"/>
<polygon fill="#64748b" stroke="#64748b" points="1082.25,-385.71 1088.01,-381.04 1080.59,-381.1 1082.25,-385.71"/>
</g>
<!-- Why_compile_product_groups -->
<g id="node6" class="node">
<title>Why_compile_product_groups</title>
<path fill="#f8fafc" stroke="#475569" d="M786.88,-572C786.88,-572 663.62,-572 663.62,-572 657.62,-572 651.62,-566 651.62,-560 651.62,-560 651.62,-548 651.62,-548 651.62,-542 657.62,-536 663.62,-536 663.62,-536 786.88,-536 786.88,-536 792.88,-536 798.88,-542 798.88,-548 798.88,-548 798.88,-560 798.88,-560 798.88,-566 792.88,-572 786.88,-572"/>
<text xml:space="preserve" text-anchor="middle" x="725.25" y="-550.12" font-family="Helvetica,sans-Serif" font-size="10.00">Why_compile_product_groups</text>
</g>
<!-- Why_compile_product_plan&#45;&gt;Why_compile_product_groups -->
<g id="edge39" class="edge">
<title>Why_compile_product_plan&#45;&gt;Why_compile_product_groups</title>
<path fill="none" stroke="#64748b" d="M357.88,-420.23C364.7,-423.62 371.1,-427.81 376.5,-433 410.57,-465.72 374.79,-504.55 412.5,-533 477.94,-582.36 574.74,-580.77 643.08,-571.17"/>
<polygon fill="#64748b" stroke="#64748b" points="643.21,-573.63 649.78,-570.19 642.49,-568.78 643.21,-573.63"/>
</g>
<!-- Why_compile_product_layout -->
<g id="node22" class="node">
<title>Why_compile_product_layout</title>
<path fill="#f8fafc" stroke="#475569" d="M785.38,-247C785.38,-247 665.12,-247 665.12,-247 659.12,-247 653.12,-241 653.12,-235 653.12,-235 653.12,-223 653.12,-223 653.12,-217 659.12,-211 665.12,-211 665.12,-211 785.38,-211 785.38,-211 791.38,-211 797.38,-217 797.38,-223 797.38,-223 797.38,-235 797.38,-235 797.38,-241 791.38,-247 785.38,-247"/>
<text xml:space="preserve" text-anchor="middle" x="725.25" y="-225.12" font-family="Helvetica,sans-Serif" font-size="10.00">Why_compile_product_layout</text>
</g>
<!-- Why_compile_product_plan&#45;&gt;Why_compile_product_layout -->
<g id="edge40" class="edge">
<title>Why_compile_product_plan&#45;&gt;Why_compile_product_layout</title>
<path fill="none" stroke="#64748b" d="M335.92,-387.56C416.67,-354.59 585.37,-285.71 671.38,-250.59"/>
<polygon fill="#64748b" stroke="#64748b" points="672.23,-252.89 677.79,-247.97 670.38,-248.35 672.23,-252.89"/>
</g>
<!-- Why_compile_contract_facts -->
<g id="node24" class="node">
<title>Why_compile_contract_facts</title>
<path fill="#f8fafc" stroke="#475569" d="M993.38,-442C993.38,-442 874.62,-442 874.62,-442 868.62,-442 862.62,-436 862.62,-430 862.62,-430 862.62,-418 862.62,-418 862.62,-412 868.62,-406 874.62,-406 874.62,-406 993.38,-406 993.38,-406 999.38,-406 1005.38,-412 1005.38,-418 1005.38,-418 1005.38,-430 1005.38,-430 1005.38,-436 999.38,-442 993.38,-442"/>
<text xml:space="preserve" text-anchor="middle" x="934" y="-420.12" font-family="Helvetica,sans-Serif" font-size="10.00">Why_compile_contract_facts</text>
</g>
<!-- Why_compile_product_plan&#45;&gt;Why_compile_contract_facts -->
<g id="edge38" class="edge">
<title>Why_compile_product_plan&#45;&gt;Why_compile_contract_facts</title>
<path fill="none" stroke="#64748b" d="M357.97,-407.88C477.58,-411.24 726.74,-418.22 854.2,-421.79"/>
<polygon fill="#64748b" stroke="#64748b" points="853.84,-424.23 860.91,-421.98 853.98,-419.33 853.84,-424.23"/>
</g>
<!-- Why_compile_product_metrics -->
<g id="node5" class="node">
<title>Why_compile_product_metrics</title>
<path fill="#f8fafc" stroke="#475569" d="M570.62,-524C570.62,-524 444.38,-524 444.38,-524 438.38,-524 432.38,-518 432.38,-512 432.38,-512 432.38,-500 432.38,-500 432.38,-494 438.38,-488 444.38,-488 444.38,-488 570.62,-488 570.62,-488 576.62,-488 582.62,-494 582.62,-500 582.62,-500 582.62,-512 582.62,-512 582.62,-518 576.62,-524 570.62,-524"/>
<text xml:space="preserve" text-anchor="middle" x="507.5" y="-502.12" font-family="Helvetica,sans-Serif" font-size="10.00">Why_compile_product_metrics</text>
</g>
<!-- Why_compile_product_plan_metrics&#45;&gt;Why_compile_product_metrics -->
<g id="edge41" class="edge">
<title>Why_compile_product_plan_metrics&#45;&gt;Why_compile_product_metrics</title>
<path fill="none" stroke="#64748b" d="M376.95,-510.8C392.3,-510.23 408.26,-509.64 423.52,-509.08"/>
<polygon fill="#64748b" stroke="#64748b" points="423.5,-511.53 430.4,-508.82 423.32,-506.63 423.5,-511.53"/>
</g>
<!-- Why_compile_product_metrics&#45;&gt;Why_compile_product_groups -->
<g id="edge32" class="edge">
<title>Why_compile_product_metrics&#45;&gt;Why_compile_product_groups</title>
<path fill="none" stroke="#64748b" d="M583.05,-522.59C602.43,-526.9 623.39,-531.56 643.09,-535.94"/>
<polygon fill="#64748b" stroke="#64748b" points="642.31,-538.28 649.68,-537.41 643.38,-533.5 642.31,-538.28"/>
</g>
<!-- Why_product_step_names -->
<g id="node23" class="node">
<title>Why_product_step_names</title>
<path fill="#f8fafc" stroke="#475569" d="M988.12,-388C988.12,-388 879.88,-388 879.88,-388 873.88,-388 867.88,-382 867.88,-376 867.88,-376 867.88,-364 867.88,-364 867.88,-358 873.88,-352 879.88,-352 879.88,-352 988.12,-352 988.12,-352 994.12,-352 1000.12,-358 1000.12,-364 1000.12,-364 1000.12,-376 1000.12,-376 1000.12,-382 994.12,-388 988.12,-388"/>
<text xml:space="preserve" text-anchor="middle" x="934" y="-366.12" font-family="Helvetica,sans-Serif" font-size="10.00">Why_product_step_names</text>
</g>
<!-- Why_compile_product_metrics&#45;&gt;Why_product_step_names -->
<g id="edge33" class="edge">
<title>Why_compile_product_metrics&#45;&gt;Why_product_step_names</title>
<path fill="none" stroke="#64748b" d="M565.85,-487.53C633.34,-465.8 748.78,-428.69 848,-397 854.12,-395.05 860.49,-393.02 866.86,-390.99"/>
<polygon fill="#64748b" stroke="#64748b" points="867.55,-393.34 873.48,-388.88 866.07,-388.67 867.55,-393.34"/>
</g>
<!-- Why_compile_product_group_partition -->
<g id="node7" class="node">
<title>Why_compile_product_group_partition</title>
<path fill="#f8fafc" stroke="#475569" d="M1227.25,-699C1227.25,-699 1069.5,-699 1069.5,-699 1063.5,-699 1057.5,-693 1057.5,-687 1057.5,-687 1057.5,-675 1057.5,-675 1057.5,-669 1063.5,-663 1069.5,-663 1069.5,-663 1227.25,-663 1227.25,-663 1233.25,-663 1239.25,-669 1239.25,-675 1239.25,-675 1239.25,-687 1239.25,-687 1239.25,-693 1233.25,-699 1227.25,-699"/>
<text xml:space="preserve" text-anchor="middle" x="1148.38" y="-677.12" font-family="Helvetica,sans-Serif" font-size="10.00">Why_compile_product_group_partition</text>
</g>
<!-- Why_compile_product_groups&#45;&gt;Why_compile_product_group_partition -->
<g id="edge20" class="edge">
<title>Why_compile_product_groups&#45;&gt;Why_compile_product_group_partition</title>
<path fill="none" stroke="#64748b" d="M743.22,-572.17C765.09,-594.28 805.41,-630.81 848,-648 911.68,-673.7 988.8,-681.72 1048.83,-683.43"/>
<polygon fill="#64748b" stroke="#64748b" points="1048.61,-685.88 1055.67,-683.6 1048.73,-680.98 1048.61,-685.88"/>
</g>
<!-- Why_compile_product_group_policy -->
<g id="node8" class="node">
<title>Why_compile_product_group_policy</title>
<path fill="#f8fafc" stroke="#475569" d="M1222.75,-645C1222.75,-645 1074,-645 1074,-645 1068,-645 1062,-639 1062,-633 1062,-633 1062,-621 1062,-621 1062,-615 1068,-609 1074,-609 1074,-609 1222.75,-609 1222.75,-609 1228.75,-609 1234.75,-615 1234.75,-621 1234.75,-621 1234.75,-633 1234.75,-633 1234.75,-639 1228.75,-645 1222.75,-645"/>
<text xml:space="preserve" text-anchor="middle" x="1148.38" y="-623.12" font-family="Helvetica,sans-Serif" font-size="10.00">Why_compile_product_group_policy</text>
</g>
<!-- Why_compile_product_groups&#45;&gt;Why_compile_product_group_policy -->
<g id="edge21" class="edge">
<title>Why_compile_product_groups&#45;&gt;Why_compile_product_group_policy</title>
<path fill="none" stroke="#64748b" d="M745.86,-572.47C768.44,-592.37 807.66,-622.81 848,-635 914.55,-655.11 993.25,-652.03 1053.25,-644.5"/>
<polygon fill="#64748b" stroke="#64748b" points="1053.47,-646.94 1060.09,-643.61 1052.84,-642.09 1053.47,-646.94"/>
</g>
<!-- Why_compile_product_group_terms -->
<g id="node9" class="node">
<title>Why_compile_product_group_terms</title>
<path fill="#f8fafc" stroke="#475569" d="M1008,-572C1008,-572 860,-572 860,-572 854,-572 848,-566 848,-560 848,-560 848,-548 848,-548 848,-542 854,-536 860,-536 860,-536 1008,-536 1008,-536 1014,-536 1020,-542 1020,-548 1020,-548 1020,-560 1020,-560 1020,-566 1014,-572 1008,-572"/>
<text xml:space="preserve" text-anchor="middle" x="934" y="-550.12" font-family="Helvetica,sans-Serif" font-size="10.00">Why_compile_product_group_terms</text>
</g>
<!-- Why_compile_product_groups&#45;&gt;Why_compile_product_group_terms -->
<g id="edge22" class="edge">
<title>Why_compile_product_groups&#45;&gt;Why_compile_product_group_terms</title>
<path fill="none" stroke="#64748b" d="M799.14,-554C812.14,-554 825.84,-554 839.32,-554"/>
<polygon fill="#64748b" stroke="#64748b" points="839.17,-556.45 846.17,-554 839.17,-551.55 839.17,-556.45"/>
</g>
<!-- Why_compile_product_group_cost -->
<g id="node11" class="node">
<title>Why_compile_product_group_cost</title>
<path fill="#f8fafc" stroke="#475569" d="M1005,-626C1005,-626 863,-626 863,-626 857,-626 851,-620 851,-614 851,-614 851,-602 851,-602 851,-596 857,-590 863,-590 863,-590 1005,-590 1005,-590 1011,-590 1017,-596 1017,-602 1017,-602 1017,-614 1017,-614 1017,-620 1011,-626 1005,-626"/>
<text xml:space="preserve" text-anchor="middle" x="934" y="-604.12" font-family="Helvetica,sans-Serif" font-size="10.00">Why_compile_product_group_cost</text>
</g>
<!-- Why_compile_product_groups&#45;&gt;Why_compile_product_group_cost -->
<g id="edge19" class="edge">
<title>Why_compile_product_groups&#45;&gt;Why_compile_product_group_cost</title>
<path fill="none" stroke="#64748b" d="M796.82,-572.43C815.35,-577.27 835.44,-582.52 854.37,-587.46"/>
<polygon fill="#64748b" stroke="#64748b" points="853.54,-589.78 860.93,-589.18 854.78,-585.04 853.54,-589.78"/>
</g>
<!-- Why_compile_product_group_boundary -->
<g id="node12" class="node">
<title>Why_compile_product_group_boundary</title>
<path fill="#f8fafc" stroke="#475569" d="M1451.75,-608C1451.75,-608 1288.75,-608 1288.75,-608 1282.75,-608 1276.75,-602 1276.75,-596 1276.75,-596 1276.75,-584 1276.75,-584 1276.75,-578 1282.75,-572 1288.75,-572 1288.75,-572 1451.75,-572 1451.75,-572 1457.75,-572 1463.75,-578 1463.75,-584 1463.75,-584 1463.75,-596 1463.75,-596 1463.75,-602 1457.75,-608 1451.75,-608"/>
<text xml:space="preserve" text-anchor="middle" x="1370.25" y="-586.12" font-family="Helvetica,sans-Serif" font-size="10.00">Why_compile_product_group_boundary</text>
</g>
<!-- Why_compile_product_group_partition&#45;&gt;Why_compile_product_group_boundary -->
<g id="edge11" class="edge">
<title>Why_compile_product_group_partition&#45;&gt;Why_compile_product_group_boundary</title>
<path fill="none" stroke="#64748b" d="M1216.7,-662.57C1224.88,-659.9 1233.05,-657.03 1240.75,-654 1271.02,-642.1 1303.82,-625.7 1328.7,-612.48"/>
<polygon fill="#64748b" stroke="#64748b" points="1329.81,-614.67 1334.83,-609.2 1327.5,-610.35 1329.81,-614.67"/>
</g>
<!-- Why_compile_product_group_policy&#45;&gt;Why_compile_product_group_boundary -->
<g id="edge12" class="edge">
<title>Why_compile_product_group_policy&#45;&gt;Why_compile_product_group_boundary</title>
<path fill="none" stroke="#64748b" d="M1235.01,-612.59C1245.98,-610.74 1257.28,-608.84 1268.46,-606.96"/>
<polygon fill="#64748b" stroke="#64748b" points="1268.58,-609.43 1275.08,-605.85 1267.77,-604.59 1268.58,-609.43"/>
</g>
<!-- Why_compile_product_group_factoring -->
<g id="node10" class="node">
<title>Why_compile_product_group_factoring</title>
<path fill="#f8fafc" stroke="#475569" d="M1228.75,-571C1228.75,-571 1068,-571 1068,-571 1062,-571 1056,-565 1056,-559 1056,-559 1056,-547 1056,-547 1056,-541 1062,-535 1068,-535 1068,-535 1228.75,-535 1228.75,-535 1234.75,-535 1240.75,-541 1240.75,-547 1240.75,-547 1240.75,-559 1240.75,-559 1240.75,-565 1234.75,-571 1228.75,-571"/>
<text xml:space="preserve" text-anchor="middle" x="1148.38" y="-549.12" font-family="Helvetica,sans-Serif" font-size="10.00">Why_compile_product_group_factoring</text>
</g>
<!-- Why_compile_product_group_terms&#45;&gt;Why_compile_product_group_factoring -->
<g id="edge13" class="edge">
<title>Why_compile_product_group_terms&#45;&gt;Why_compile_product_group_factoring</title>
<path fill="none" stroke="#64748b" d="M1020.46,-553.6C1029.38,-553.56 1038.49,-553.51 1047.55,-553.47"/>
<polygon fill="#64748b" stroke="#64748b" points="1047.33,-555.92 1054.32,-553.44 1047.31,-551.02 1047.33,-555.92"/>
</g>
<!-- Why_compile_product_group_factoring&#45;&gt;Why_compile_product_group_boundary -->
<g id="edge9" class="edge">
<title>Why_compile_product_group_factoring&#45;&gt;Why_compile_product_group_boundary</title>
<path fill="none" stroke="#64748b" d="M1241.03,-568.42C1249.96,-569.93 1259.06,-571.46 1268.08,-572.97"/>
<polygon fill="#64748b" stroke="#64748b" points="1267.53,-575.37 1274.84,-574.11 1268.34,-570.53 1267.53,-575.37"/>
</g>
<!-- Why_compile_ptree_helpers -->
<g id="node28" class="node">
<title>Why_compile_ptree_helpers</title>
<path fill="#f8fafc" stroke="#475569" d="M1427.75,-442C1427.75,-442 1312.75,-442 1312.75,-442 1306.75,-442 1300.75,-436 1300.75,-430 1300.75,-430 1300.75,-418 1300.75,-418 1300.75,-412 1306.75,-406 1312.75,-406 1312.75,-406 1427.75,-406 1427.75,-406 1433.75,-406 1439.75,-412 1439.75,-418 1439.75,-418 1439.75,-430 1439.75,-430 1439.75,-436 1433.75,-442 1427.75,-442"/>
<text xml:space="preserve" text-anchor="middle" x="1370.25" y="-420.12" font-family="Helvetica,sans-Serif" font-size="10.00">Why_compile_ptree_helpers</text>
</g>
<!-- Why_compile_product_group_factoring&#45;&gt;Why_compile_ptree_helpers -->
<g id="edge10" class="edge">
<title>Why_compile_product_group_factoring&#45;&gt;Why_compile_ptree_helpers</title>
<path fill="none" stroke="#64748b" d="M1183.88,-534.65C1201.09,-525.37 1222.14,-513.8 1240.75,-503 1272.32,-484.67 1307.61,-462.88 1333.21,-446.83"/>
<polygon fill="#64748b" stroke="#64748b" points="1334.25,-449.07 1338.88,-443.27 1331.65,-444.92 1334.25,-449.07"/>
</g>
<!-- Why_compile_product_group_cost&#45;&gt;Why_compile_product_group_boundary -->
<g id="edge7" class="edge">
<title>Why_compile_product_group_cost&#45;&gt;Why_compile_product_group_boundary</title>
<path fill="none" stroke="#64748b" d="M1017.31,-602.18C1030.26,-601.37 1043.49,-600.61 1056,-600 1126.86,-596.53 1206.81,-594 1268.2,-592.35"/>
<polygon fill="#64748b" stroke="#64748b" points="1267.91,-594.81 1274.84,-592.18 1267.78,-589.91 1267.91,-594.81"/>
</g>
<!-- Why_compile_product_group_cost&#45;&gt;Why_compile_ptree_helpers -->
<g id="edge8" class="edge">
<title>Why_compile_product_group_cost&#45;&gt;Why_compile_ptree_helpers</title>
<path fill="none" stroke="#64748b" d="M1006.02,-589.7C1010.96,-587.16 1015.68,-584.28 1020,-581 1043.27,-563.33 1032.8,-543.75 1056,-526 1093.39,-497.4 1212.19,-463.41 1292.26,-442.79"/>
<polygon fill="#64748b" stroke="#64748b" points="1292.73,-445.2 1298.91,-441.08 1291.52,-440.45 1292.73,-445.2"/>
</g>
<!-- Why_compile_product_specs -->
<g id="node13" class="node">
<title>Why_compile_product_specs</title>
<path fill="#f8fafc" stroke="#475569" d="M994.12,-52C994.12,-52 873.88,-52 873.88,-52 867.88,-52 861.88,-46 861.88,-40 861.88,-40 861.88,-28 861.88,-28 861.88,-22 867.88,-16 873.88,-16 873.88,-16 994.12,-16 994.12,-16 1000.12,-16 1006.12,-22 1006.12,-28 1006.12,-28 1006.12,-40 1006.12,-40 1006.12,-46 1000.12,-52 994.12,-52"/>
<text xml:space="preserve" text-anchor="middle" x="934" y="-30.12" font-family="Helvetica,sans-Serif" font-size="10.00">Why_compile_product_specs</text>
</g>
<!-- Why_compile_product_specs&#45;&gt;Why_compile_product_group_boundary -->
<g id="edge44" class="edge">
<title>Why_compile_product_specs&#45;&gt;Why_compile_product_group_boundary</title>
<path fill="none" stroke="#64748b" d="M971.61,-52.37C1037.7,-87.66 1176.05,-171.65 1240.75,-286 1284.15,-362.7 1238.96,-401.38 1276.75,-481 1292.54,-514.26 1321.09,-545.58 1342.31,-566.04"/>
<polygon fill="#64748b" stroke="#64748b" points="1340.5,-567.69 1347.27,-570.73 1343.87,-564.13 1340.5,-567.69"/>
</g>
<!-- Why_compile_product_spec_terms -->
<g id="node14" class="node">
<title>Why_compile_product_spec_terms</title>
<path fill="#f8fafc" stroke="#475569" d="M1220.88,-52C1220.88,-52 1075.88,-52 1075.88,-52 1069.88,-52 1063.88,-46 1063.88,-40 1063.88,-40 1063.88,-28 1063.88,-28 1063.88,-22 1069.88,-16 1075.88,-16 1075.88,-16 1220.88,-16 1220.88,-16 1226.88,-16 1232.88,-22 1232.88,-28 1232.88,-28 1232.88,-40 1232.88,-40 1232.88,-46 1226.88,-52 1220.88,-52"/>
<text xml:space="preserve" text-anchor="middle" x="1148.38" y="-30.12" font-family="Helvetica,sans-Serif" font-size="10.00">Why_compile_product_spec_terms</text>
</g>
<!-- Why_compile_product_specs&#45;&gt;Why_compile_product_spec_terms -->
<g id="edge45" class="edge">
<title>Why_compile_product_specs&#45;&gt;Why_compile_product_spec_terms</title>
<path fill="none" stroke="#64748b" d="M1006.6,-34C1022.19,-34 1038.89,-34 1055.15,-34"/>
<polygon fill="#64748b" stroke="#64748b" points="1055.09,-36.45 1062.09,-34 1055.09,-31.55 1055.09,-36.45"/>
</g>
<!-- Why_compile_product_spec_labels -->
<g id="node15" class="node">
<title>Why_compile_product_spec_labels</title>
<path fill="#f8fafc" stroke="#475569" d="M1443.12,-52C1443.12,-52 1297.38,-52 1297.38,-52 1291.38,-52 1285.38,-46 1285.38,-40 1285.38,-40 1285.38,-28 1285.38,-28 1285.38,-22 1291.38,-16 1297.38,-16 1297.38,-16 1443.12,-16 1443.12,-16 1449.12,-16 1455.12,-22 1455.12,-28 1455.12,-28 1455.12,-40 1455.12,-40 1455.12,-46 1449.12,-52 1443.12,-52"/>
<text xml:space="preserve" text-anchor="middle" x="1370.25" y="-30.12" font-family="Helvetica,sans-Serif" font-size="10.00">Why_compile_product_spec_labels</text>
</g>
<!-- Why_compile_product_spec_terms&#45;&gt;Why_compile_product_spec_labels -->
<g id="edge43" class="edge">
<title>Why_compile_product_spec_terms&#45;&gt;Why_compile_product_spec_labels</title>
<path fill="none" stroke="#64748b" d="M1233.13,-34C1247.33,-34 1262.15,-34 1276.57,-34"/>
<polygon fill="#64748b" stroke="#64748b" points="1276.49,-36.45 1283.49,-34 1276.49,-31.55 1276.49,-36.45"/>
</g>
<!-- Why_compile_product_spec_terms&#45;&gt;Why_compile_bundles -->
<g id="edge42" class="edge">
<title>Why_compile_product_spec_terms&#45;&gt;Why_compile_bundles</title>
<path fill="none" stroke="#64748b" d="M1137.47,-52.47C1113.64,-94.03 1057.5,-198.81 1038,-295 1029.79,-335.51 1016.27,-352.84 1038,-388 1047.79,-403.83 1064.88,-412.93 1082.73,-418.09"/>
<polygon fill="#64748b" stroke="#64748b" points="1082.1,-420.46 1089.49,-419.82 1083.32,-415.71 1082.1,-420.46"/>
</g>
<!-- Why_compile_product_individual_helper -->
<g id="node17" class="node">
<title>Why_compile_product_individual_helper</title>
<path fill="#f8fafc" stroke="#475569" d="M590.5,-193C590.5,-193 424.5,-193 424.5,-193 418.5,-193 412.5,-187 412.5,-181 412.5,-181 412.5,-169 412.5,-169 412.5,-163 418.5,-157 424.5,-157 424.5,-157 590.5,-157 590.5,-157 596.5,-157 602.5,-163 602.5,-169 602.5,-169 602.5,-181 602.5,-181 602.5,-187 596.5,-193 590.5,-193"/>
<text xml:space="preserve" text-anchor="middle" x="507.5" y="-171.12" font-family="Helvetica,sans-Serif" font-size="10.00">Why_compile_product_individual_helper</text>
</g>
<!-- Why_compile_product_helpers&#45;&gt;Why_compile_product_individual_helper -->
<g id="edge27" class="edge">
<title>Why_compile_product_helpers&#45;&gt;Why_compile_product_individual_helper</title>
<path fill="none" stroke="#64748b" d="M364.4,-210.57C383.82,-205.71 404.89,-200.43 424.71,-195.47"/>
<polygon fill="#64748b" stroke="#64748b" points="425.16,-197.89 431.35,-193.81 423.97,-193.13 425.16,-197.89"/>
</g>
<!-- Why_compile_product_grouped_helper -->
<g id="node18" class="node">
<title>Why_compile_product_grouped_helper</title>
<path fill="#f8fafc" stroke="#475569" d="M587.5,-247C587.5,-247 427.5,-247 427.5,-247 421.5,-247 415.5,-241 415.5,-235 415.5,-235 415.5,-223 415.5,-223 415.5,-217 421.5,-211 427.5,-211 427.5,-211 587.5,-211 587.5,-211 593.5,-211 599.5,-217 599.5,-223 599.5,-223 599.5,-235 599.5,-235 599.5,-241 593.5,-247 587.5,-247"/>
<text xml:space="preserve" text-anchor="middle" x="507.5" y="-225.12" font-family="Helvetica,sans-Serif" font-size="10.00">Why_compile_product_grouped_helper</text>
</g>
<!-- Why_compile_product_helpers&#45;&gt;Why_compile_product_grouped_helper -->
<g id="edge26" class="edge">
<title>Why_compile_product_helpers&#45;&gt;Why_compile_product_grouped_helper</title>
<path fill="none" stroke="#64748b" d="M365,-229C378.55,-229 392.89,-229 407.03,-229"/>
<polygon fill="#64748b" stroke="#64748b" points="406.82,-231.45 413.82,-229 406.82,-226.55 406.82,-231.45"/>
</g>
<!-- Why_compile_product_individual_helper&#45;&gt;Why_compile_product_groups -->
<g id="edge28" class="edge">
<title>Why_compile_product_individual_helper&#45;&gt;Why_compile_product_groups</title>
<path fill="none" stroke="#64748b" d="M591.16,-193.32C595.23,-195.85 599.05,-198.73 602.5,-202 614.95,-213.8 690.46,-448.04 715.89,-527.72"/>
<polygon fill="#64748b" stroke="#64748b" points="713.55,-528.43 718.01,-534.36 718.22,-526.95 713.55,-528.43"/>
</g>
<!-- Why_compile_product_helper_types -->
<g id="node20" class="node">
<title>Why_compile_product_helper_types</title>
<path fill="#f8fafc" stroke="#475569" d="M800,-139C800,-139 650.5,-139 650.5,-139 644.5,-139 638.5,-133 638.5,-127 638.5,-127 638.5,-115 638.5,-115 638.5,-109 644.5,-103 650.5,-103 650.5,-103 800,-103 800,-103 806,-103 812,-109 812,-115 812,-115 812,-127 812,-127 812,-133 806,-139 800,-139"/>
<text xml:space="preserve" text-anchor="middle" x="725.25" y="-117.12" font-family="Helvetica,sans-Serif" font-size="10.00">Why_compile_product_helper_types</text>
</g>
<!-- Why_compile_product_individual_helper&#45;&gt;Why_compile_product_helper_types -->
<g id="edge30" class="edge">
<title>Why_compile_product_individual_helper&#45;&gt;Why_compile_product_helper_types</title>
<path fill="none" stroke="#64748b" d="M582.15,-156.57C601.57,-151.71 622.64,-146.43 642.46,-141.47"/>
<polygon fill="#64748b" stroke="#64748b" points="642.91,-143.89 649.1,-139.81 641.72,-139.13 642.91,-143.89"/>
</g>
<!-- Why_compile_product_helper_body -->
<g id="node21" class="node">
<title>Why_compile_product_helper_body</title>
<path fill="#f8fafc" stroke="#475569" d="M798.5,-193C798.5,-193 652,-193 652,-193 646,-193 640,-187 640,-181 640,-181 640,-169 640,-169 640,-163 646,-157 652,-157 652,-157 798.5,-157 798.5,-157 804.5,-157 810.5,-163 810.5,-169 810.5,-169 810.5,-181 810.5,-181 810.5,-187 804.5,-193 798.5,-193"/>
<text xml:space="preserve" text-anchor="middle" x="725.25" y="-171.12" font-family="Helvetica,sans-Serif" font-size="10.00">Why_compile_product_helper_body</text>
</g>
<!-- Why_compile_product_individual_helper&#45;&gt;Why_compile_product_helper_body -->
<g id="edge29" class="edge">
<title>Why_compile_product_individual_helper&#45;&gt;Why_compile_product_helper_body</title>
<path fill="none" stroke="#64748b" d="M602.82,-175C612.29,-175 621.9,-175 631.36,-175"/>
<polygon fill="#64748b" stroke="#64748b" points="631.11,-177.45 638.11,-175 631.11,-172.55 631.11,-177.45"/>
</g>
<!-- Why_compile_product_individual_helper&#45;&gt;Why_product_step_names -->
<g id="edge31" class="edge">
<title>Why_compile_product_individual_helper&#45;&gt;Why_product_step_names</title>
<path fill="none" stroke="#64748b" d="M588.39,-193.47C593.36,-195.97 598.11,-198.79 602.5,-202 625.79,-219.02 614.77,-239.6 638.5,-256 703.6,-300.99 745.46,-253.17 812,-296 834.13,-310.24 826.47,-327.88 848,-343 851.72,-345.61 855.71,-347.98 859.85,-350.13"/>
<polygon fill="#64748b" stroke="#64748b" points="858.71,-352.3 866.08,-353.11 860.82,-347.88 858.71,-352.3"/>
</g>
<!-- Why_compile_product_grouped_helper&#45;&gt;Why_compile_product_groups -->
<g id="edge14" class="edge">
<title>Why_compile_product_grouped_helper&#45;&gt;Why_compile_product_groups</title>
<path fill="none" stroke="#64748b" d="M520.72,-247.4C557.28,-302.49 665.9,-466.1 707.65,-528.99"/>
<polygon fill="#64748b" stroke="#64748b" points="705.42,-530.06 711.33,-534.54 709.5,-527.35 705.42,-530.06"/>
</g>
<!-- Why_compile_product_grouped_helper&#45;&gt;Why_compile_product_helper_types -->
<g id="edge16" class="edge">
<title>Why_compile_product_grouped_helper&#45;&gt;Why_compile_product_helper_types</title>
<path fill="none" stroke="#64748b" d="M588.39,-210.53C593.36,-208.03 598.11,-205.21 602.5,-202 625.79,-184.98 615.43,-165.32 638.5,-148 640.68,-146.36 642.97,-144.82 645.34,-143.37"/>
<polygon fill="#64748b" stroke="#64748b" points="646.4,-145.58 651.32,-140.03 644.01,-141.3 646.4,-145.58"/>
</g>
<!-- Why_compile_product_grouped_helper&#45;&gt;Why_compile_product_helper_body -->
<g id="edge15" class="edge">
<title>Why_compile_product_grouped_helper&#45;&gt;Why_compile_product_helper_body</title>
<path fill="none" stroke="#64748b" d="M582.15,-210.57C601.57,-205.71 622.64,-200.43 642.46,-195.47"/>
<polygon fill="#64748b" stroke="#64748b" points="642.91,-197.89 649.1,-193.81 641.72,-193.13 642.91,-197.89"/>
</g>
<!-- Why_compile_product_grouped_helper&#45;&gt;Why_compile_product_layout -->
<g id="edge17" class="edge">
<title>Why_compile_product_grouped_helper&#45;&gt;Why_compile_product_layout</title>
<path fill="none" stroke="#64748b" d="M600,-229C614.78,-229 629.99,-229 644.47,-229"/>
<polygon fill="#64748b" stroke="#64748b" points="644.39,-231.45 651.39,-229 644.39,-226.55 644.39,-231.45"/>
</g>
<!-- Why_compile_product_grouped_helper&#45;&gt;Why_product_step_names -->
<g id="edge18" class="edge">
<title>Why_compile_product_grouped_helper&#45;&gt;Why_product_step_names</title>
<path fill="none" stroke="#64748b" d="M539.36,-247.48C565.13,-262.27 603.23,-282.68 638.5,-296 711.78,-323.67 799.2,-344.15 859.66,-356.46"/>
<polygon fill="#64748b" stroke="#64748b" points="858.81,-358.79 866.16,-357.77 859.78,-353.99 858.81,-358.79"/>
</g>
<!-- Why_compile_helper_unit -->
<g id="node19" class="node">
<title>Why_compile_helper_unit</title>
<path fill="#f8fafc" stroke="#475569" d="M985.88,-193C985.88,-193 882.12,-193 882.12,-193 876.12,-193 870.12,-187 870.12,-181 870.12,-181 870.12,-169 870.12,-169 870.12,-163 876.12,-157 882.12,-157 882.12,-157 985.88,-157 985.88,-157 991.88,-157 997.88,-163 997.88,-169 997.88,-169 997.88,-181 997.88,-181 997.88,-187 991.88,-193 985.88,-193"/>
<text xml:space="preserve" text-anchor="middle" x="934" y="-171.12" font-family="Helvetica,sans-Serif" font-size="10.00">Why_compile_helper_unit</text>
</g>
<!-- Why_compile_product_helper_types&#45;&gt;Why_compile_product_specs -->
<g id="edge25" class="edge">
<title>Why_compile_product_helper_types&#45;&gt;Why_compile_product_specs</title>
<path fill="none" stroke="#64748b" d="M770.1,-102.55C802.72,-88.82 847.33,-70.05 881.62,-55.62"/>
<polygon fill="#64748b" stroke="#64748b" points="882.32,-57.98 887.82,-53.01 880.42,-53.47 882.32,-57.98"/>
</g>
<!-- Why_compile_product_helper_types&#45;&gt;Why_compile_helper_unit -->
<g id="edge24" class="edge">
<title>Why_compile_product_helper_types&#45;&gt;Why_compile_helper_unit</title>
<path fill="none" stroke="#64748b" d="M796.82,-139.43C817.68,-144.88 840.53,-150.85 861.45,-156.31"/>
<polygon fill="#64748b" stroke="#64748b" points="860.82,-158.68 868.21,-158.08 862.06,-153.94 860.82,-158.68"/>
</g>
<!-- Why_compile_step -->
<g id="node25" class="node">
<title>Why_compile_step</title>
<path fill="#f8fafc" stroke="#475569" d="M971.62,-334C971.62,-334 896.38,-334 896.38,-334 890.38,-334 884.38,-328 884.38,-322 884.38,-322 884.38,-310 884.38,-310 884.38,-304 890.38,-298 896.38,-298 896.38,-298 971.62,-298 971.62,-298 977.62,-298 983.62,-304 983.62,-310 983.62,-310 983.62,-322 983.62,-322 983.62,-328 977.62,-334 971.62,-334"/>
<text xml:space="preserve" text-anchor="middle" x="934" y="-312.12" font-family="Helvetica,sans-Serif" font-size="10.00">Why_compile_step</text>
</g>
<!-- Why_compile_product_helper_body&#45;&gt;Why_compile_step -->
<g id="edge23" class="edge">
<title>Why_compile_product_helper_body&#45;&gt;Why_compile_step</title>
<path fill="none" stroke="#64748b" d="M800.22,-193.39C804.44,-195.9 808.41,-198.75 812,-202 842.12,-229.25 818.35,-258.24 848,-286 856.01,-293.5 866.01,-299.14 876.31,-303.38"/>
<polygon fill="#64748b" stroke="#64748b" points="875.38,-305.65 882.8,-305.83 877.11,-301.07 875.38,-305.65"/>
</g>
<!-- Why_compile_contract_facts&#45;&gt;Why_compile_bundles -->
<g id="edge2" class="edge">
<title>Why_compile_contract_facts&#45;&gt;Why_compile_bundles</title>
<path fill="none" stroke="#64748b" d="M1005.72,-424C1030.54,-424 1058.29,-424 1082.6,-424"/>
<polygon fill="#64748b" stroke="#64748b" points="1082.54,-426.45 1089.54,-424 1082.54,-421.55 1082.54,-426.45"/>
</g>
<!-- Why_compile_bundles&#45;&gt;Why_compile_ptree_helpers -->
<g id="edge1" class="edge">
<title>Why_compile_bundles&#45;&gt;Why_compile_ptree_helpers</title>
<path fill="none" stroke="#64748b" d="M1206,-424C1232.17,-424 1263.66,-424 1291.98,-424"/>
<polygon fill="#64748b" stroke="#64748b" points="1291.75,-426.45 1298.75,-424 1291.75,-421.55 1291.75,-426.45"/>
</g>
<!-- Why_compile_modules&#45;&gt;Why_compile_helper_unit -->
<g id="edge3" class="edge">
<title>Why_compile_modules&#45;&gt;Why_compile_helper_unit</title>
<path fill="none" stroke="#64748b" d="M1127.29,-351.56C1088.63,-316.06 1003.9,-238.27 961,-198.87"/>
<polygon fill="#64748b" stroke="#64748b" points="962.91,-197.3 956.09,-194.37 959.59,-200.91 962.91,-197.3"/>
</g>
<!-- Why_compile_modules&#45;&gt;Why_compile_ptree_helpers -->
<g id="edge4" class="edge">
<title>Why_compile_modules&#45;&gt;Why_compile_ptree_helpers</title>
<path fill="none" stroke="#64748b" d="M1207.43,-384.26C1233.37,-390.63 1264.31,-398.23 1292.15,-405.07"/>
<polygon fill="#64748b" stroke="#64748b" points="1291.45,-407.42 1298.83,-406.71 1292.62,-402.66 1291.45,-407.42"/>
</g>
</g>
</svg>
